G04 #@! TF.GenerationSoftware,KiCad,Pcbnew,9.0.0*
G04 #@! TF.CreationDate,2025-03-10T13:11:58-03:00*
G04 #@! TF.ProjectId,aeon-keyboard,61656f6e-2d6b-4657-9962-6f6172642e6b,v1*
G04 #@! TF.SameCoordinates,Original*
G04 #@! TF.FileFunction,Copper,L4,Inr*
G04 #@! TF.FilePolarity,Positive*
%FSLAX46Y46*%
G04 Gerber Fmt 4.6, Leading zero omitted, Abs format (unit mm)*
G04 Created by KiCad (PCBNEW 9.0.0) date 2025-03-10 13:11:58*
%MOMM*%
%LPD*%
G01*
G04 APERTURE LIST*
G04 #@! TA.AperFunction,ComponentPad*
%ADD10C,1.397000*%
G04 #@! TD*
G04 #@! TA.AperFunction,ComponentPad*
%ADD11O,2.500000X1.700000*%
G04 #@! TD*
G04 #@! TA.AperFunction,ComponentPad*
%ADD12C,4.700000*%
G04 #@! TD*
G04 #@! TA.AperFunction,ComponentPad*
%ADD13C,1.524000*%
G04 #@! TD*
G04 #@! TA.AperFunction,ComponentPad*
%ADD14C,2.000000*%
G04 #@! TD*
G04 #@! TA.AperFunction,ComponentPad*
%ADD15C,4.000000*%
G04 #@! TD*
G04 #@! TA.AperFunction,ComponentPad*
%ADD16R,1.524000X1.524000*%
G04 #@! TD*
G04 #@! TA.AperFunction,ComponentPad*
%ADD17R,3.200000X2.000000*%
G04 #@! TD*
G04 #@! TA.AperFunction,ViaPad*
%ADD18C,0.400000*%
G04 #@! TD*
G04 APERTURE END LIST*
D10*
X95499272Y-80311965D03*
X100579272Y-80311965D03*
X95499272Y-78061965D03*
X100579272Y-78061965D03*
D11*
X98300000Y-89500000D03*
X98300000Y-83550000D03*
X94300000Y-89500000D03*
X94300000Y-83550000D03*
X91300000Y-89500000D03*
X91300000Y-83550000D03*
X99800000Y-87750000D03*
X99800000Y-85300000D03*
D10*
X102700000Y-80300000D03*
X102700000Y-78100000D03*
D12*
X130000000Y-57000000D03*
X206000000Y-61500000D03*
X130000000Y-97500000D03*
X206000000Y-100000000D03*
X103000000Y-119000000D03*
D13*
X92180000Y-41230000D03*
X108718815Y-42425745D03*
X92180000Y-43770000D03*
X108718815Y-44965745D03*
X92180000Y-46310000D03*
X108718815Y-47505745D03*
X92180000Y-48850000D03*
X108718815Y-50045745D03*
X92180000Y-51390000D03*
X108718815Y-52585745D03*
X92180000Y-53930000D03*
X108718815Y-55125745D03*
X92180000Y-56470000D03*
X108718815Y-57665745D03*
X92180000Y-59010000D03*
X108718815Y-60205745D03*
X92180000Y-61550000D03*
X108718815Y-62745745D03*
X92180000Y-64090000D03*
X108718815Y-65285745D03*
X92180000Y-66630000D03*
X108718815Y-67825745D03*
X92180000Y-69170000D03*
X108718815Y-70365745D03*
X93478815Y-70365745D03*
X107420000Y-69170000D03*
X93478815Y-67825745D03*
X107420000Y-66630000D03*
X93478815Y-65285745D03*
X107420000Y-64090000D03*
X93478815Y-62745745D03*
X107420000Y-61550000D03*
X93478815Y-60205745D03*
X107420000Y-59010000D03*
X93478815Y-57665745D03*
X107420000Y-56470000D03*
X93478815Y-55125745D03*
X107420000Y-53930000D03*
X93478815Y-52585745D03*
X107420000Y-51390000D03*
X93478815Y-50045745D03*
X107420000Y-48850000D03*
X93478815Y-47505745D03*
X107420000Y-46310000D03*
X93478815Y-44965745D03*
X107420000Y-43770000D03*
X93478815Y-42425745D03*
X107420000Y-41230000D03*
D14*
X90000000Y-74250000D03*
X90000000Y-80750000D03*
D15*
X91500000Y-93500000D03*
D16*
X107900000Y-81100000D03*
X107900000Y-78600000D03*
X107900000Y-76000000D03*
D10*
X96700000Y-74600000D03*
X99240000Y-74600000D03*
X101780000Y-74600000D03*
X104320000Y-74600000D03*
D15*
X107000000Y-93500000D03*
D14*
X92500000Y-102000000D03*
X92500000Y-107000000D03*
X92500000Y-104500000D03*
D17*
X100000000Y-98900000D03*
X100000000Y-110100000D03*
D14*
X107000000Y-107000000D03*
X107000000Y-102000000D03*
D16*
X185500000Y-101150000D03*
D13*
X185500000Y-98650000D03*
X185500000Y-96050000D03*
D16*
X176327000Y-114706600D03*
D13*
X178827000Y-114706600D03*
X181427000Y-114706600D03*
D16*
X112500000Y-80500000D03*
D13*
X112500000Y-83000000D03*
X112500000Y-85600000D03*
D18*
X127450000Y-49000000D03*
X128750000Y-46400000D03*
X122732600Y-123332600D03*
X100200000Y-122600000D03*
X105189400Y-122624800D03*
X122773800Y-119020000D03*
X122732600Y-121732600D03*
X105327833Y-67072169D03*
X109512300Y-119762300D03*
X106250000Y-97000000D03*
X136588496Y-55452510D03*
X131000000Y-46150000D03*
X150550000Y-49640000D03*
X165250000Y-52190000D03*
X151362500Y-45677500D03*
X105700000Y-59000000D03*
X169250000Y-45150000D03*
X150500004Y-42222496D03*
X137450000Y-45600000D03*
X126750000Y-44600000D03*
X188000000Y-49750000D03*
X130000000Y-43900000D03*
X206750000Y-48250000D03*
X169250000Y-46150000D03*
X169900000Y-51850000D03*
X206500000Y-65500000D03*
X105700000Y-61900000D03*
X111574990Y-62800000D03*
X189500000Y-65000000D03*
X189500000Y-67550000D03*
X128239998Y-62400000D03*
X170775000Y-61875000D03*
X146532600Y-61061600D03*
X200650000Y-68350000D03*
X151500000Y-59540000D03*
X202565000Y-67310000D03*
X188000000Y-50750000D03*
X203800000Y-53200000D03*
X206825000Y-84500000D03*
X170480000Y-81650000D03*
X149750000Y-80940000D03*
X188500000Y-88250000D03*
X130000000Y-81900000D03*
X113250000Y-77750000D03*
X176450000Y-82900000D03*
X105700000Y-64000000D03*
X147500012Y-82050000D03*
X214655400Y-60291210D03*
X207750000Y-53000000D03*
X207057999Y-103273747D03*
X105600000Y-65200000D03*
X112000000Y-102250000D03*
X111350001Y-97825012D03*
X186000000Y-94400000D03*
X169250000Y-98900000D03*
X150000000Y-97940000D03*
X205800000Y-104000000D03*
X189387500Y-105862500D03*
X129750000Y-101400000D03*
X112750000Y-75650000D03*
X126800000Y-66600000D03*
X131800000Y-70900000D03*
X131000000Y-65600000D03*
X150250000Y-61540000D03*
X150900000Y-68440000D03*
X170487500Y-66412500D03*
X169900000Y-70850000D03*
X188250000Y-67500000D03*
X204000000Y-71750000D03*
X207750000Y-70500000D03*
X208250000Y-75850000D03*
X113050000Y-92600000D03*
X128500000Y-86900000D03*
X131550000Y-89900000D03*
X150800000Y-87640000D03*
X169900000Y-89950000D03*
X169750000Y-86650000D03*
X201797467Y-97158879D03*
X188500000Y-91750000D03*
X207750000Y-89250000D03*
X209750000Y-97500000D03*
X112800000Y-111450000D03*
X112000000Y-103250000D03*
X131800000Y-108950000D03*
X150900000Y-106540000D03*
X169900000Y-109050000D03*
X189000000Y-113850000D03*
X208050000Y-113850000D03*
X208000000Y-108600000D03*
X98687000Y-139889000D03*
X101175000Y-125000000D03*
X122750000Y-135000000D03*
X110984999Y-121234999D03*
X129000000Y-124200000D03*
X141108000Y-131259000D03*
X116350000Y-83400000D03*
X193300000Y-63925000D03*
X162250000Y-53790000D03*
X154300002Y-77790000D03*
X173000000Y-99900000D03*
X172781800Y-117399000D03*
X192700000Y-84950000D03*
X173100000Y-81250000D03*
X153294800Y-114915000D03*
X135325000Y-60125000D03*
X210875000Y-85875000D03*
X113000000Y-59800000D03*
X173475000Y-61875000D03*
X110250000Y-48000000D03*
X134375000Y-79125000D03*
X116000000Y-44500000D03*
X206175000Y-66675000D03*
X154099999Y-60539999D03*
X100400008Y-68800000D03*
X104503600Y-128314400D03*
X100400000Y-50045745D03*
X173806234Y-42086230D03*
X205994000Y-44373800D03*
X193012500Y-44737500D03*
X192532000Y-61849000D03*
X161650000Y-60890000D03*
X166424990Y-111865010D03*
X167750000Y-38440000D03*
X160475000Y-80440000D03*
X198874990Y-69700000D03*
X98966400Y-127646200D03*
X115800000Y-61500000D03*
X200950000Y-69700000D03*
X167803400Y-111861800D03*
X116850000Y-99700000D03*
X167325000Y-78115000D03*
X166424990Y-98714990D03*
X106400000Y-87200000D03*
X189950000Y-118650000D03*
X211400000Y-46400000D03*
X108600000Y-124300000D03*
X106624999Y-82800000D03*
X135000000Y-99200004D03*
X135500000Y-40575010D03*
X209800000Y-44400000D03*
X211625000Y-104875000D03*
X153750000Y-96290000D03*
X130160600Y-115417800D03*
X111725000Y-46525000D03*
X207340200Y-44373800D03*
X192100000Y-104000000D03*
X202250000Y-100999998D03*
X128025000Y-113250000D03*
X211650000Y-66100000D03*
X153800000Y-39290000D03*
X135669468Y-118748132D03*
X167325000Y-91715000D03*
X166650000Y-55940000D03*
X142400000Y-102800000D03*
X165700000Y-72900000D03*
X209450000Y-64250000D03*
X188700000Y-76550000D03*
X147000000Y-64600000D03*
X224200000Y-110000000D03*
X182000000Y-79650000D03*
X144175000Y-60125000D03*
X192925700Y-40627300D03*
X185000000Y-123500000D03*
X143383000Y-118554500D03*
X181200002Y-117425000D03*
X116395500Y-41541700D03*
X217322400Y-61607700D03*
X221200000Y-107000000D03*
X161000002Y-41375002D03*
X177203100Y-57429400D03*
X163614100Y-130975100D03*
X210832700Y-43180000D03*
X213900000Y-118700000D03*
X145400000Y-44000000D03*
X140800000Y-132800000D03*
X188300000Y-70950000D03*
X223685100Y-57200800D03*
X147370800Y-84328000D03*
X148500000Y-95400000D03*
X207721200Y-80670400D03*
X220562002Y-83212002D03*
X187600000Y-94000000D03*
X187000000Y-89000000D03*
X209905600Y-100698300D03*
X170800000Y-117800000D03*
X167894000Y-37439600D03*
X90792300Y-119316500D03*
X211836000Y-69608700D03*
X207200000Y-108800000D03*
X99700000Y-134300000D03*
X126800000Y-59000000D03*
X143000000Y-95400000D03*
X149100000Y-127800000D03*
X169050000Y-56850000D03*
X165200000Y-110900000D03*
X125250001Y-60399999D03*
X144800000Y-64400000D03*
X94348300Y-124167900D03*
X172700000Y-37600000D03*
X163510800Y-112581400D03*
X167600000Y-121700000D03*
X224000000Y-117200000D03*
X203847700Y-78790800D03*
X163200000Y-77240000D03*
X155740100Y-81953100D03*
X162950000Y-59590002D03*
X220800000Y-68400000D03*
X222211900Y-44970700D03*
X148500000Y-61500000D03*
X223400000Y-79000000D03*
X205100000Y-118700000D03*
X172800000Y-78200000D03*
X102000000Y-86000000D03*
X148500000Y-112300000D03*
X114176200Y-62687000D03*
X215049100Y-61772800D03*
X131800000Y-131400000D03*
X204500000Y-52050000D03*
X220200000Y-66650000D03*
X107937300Y-117297200D03*
X167500000Y-114300000D03*
X206629000Y-96100900D03*
X184600000Y-62800000D03*
X96900000Y-44965745D03*
X100076000Y-104254300D03*
X151282400Y-130479800D03*
X218541600Y-88684100D03*
X163850000Y-39890000D03*
X165700000Y-76700000D03*
X146900000Y-124100000D03*
X123950000Y-85550000D03*
X128600000Y-131000000D03*
X148500000Y-64700000D03*
X181700000Y-43200000D03*
X148500000Y-52300000D03*
X169700000Y-79600000D03*
X189000000Y-62600000D03*
X156806900Y-132270500D03*
X103800000Y-134400000D03*
X123599600Y-104863700D03*
X146883600Y-115783200D03*
X128200000Y-126000000D03*
X186924999Y-110225001D03*
X124598000Y-80950008D03*
X111750000Y-88500000D03*
X172681900Y-58877200D03*
X148500000Y-46100000D03*
X201750000Y-47800000D03*
X201056001Y-67443999D03*
X165370000Y-38370000D03*
X190000000Y-89000000D03*
X105400000Y-84000000D03*
X200200000Y-107800000D03*
X133000000Y-78000000D03*
X96900000Y-48800000D03*
X220400000Y-47800000D03*
X177000000Y-76200000D03*
X206781400Y-42494200D03*
X132800000Y-60600000D03*
X143000000Y-58000000D03*
X146600000Y-46400000D03*
X186150000Y-40900000D03*
X185350000Y-65950000D03*
X220433900Y-62064900D03*
X125674990Y-125000000D03*
X182381001Y-99068999D03*
X204698600Y-45529500D03*
X215800000Y-101100000D03*
X199099994Y-48824994D03*
X181975000Y-60125000D03*
X163500000Y-117700000D03*
X206200000Y-115700000D03*
X168600000Y-126400000D03*
X181900000Y-37600000D03*
X220900000Y-88100000D03*
X105418000Y-130194000D03*
X86855300Y-129565400D03*
X217000000Y-81000000D03*
X166600000Y-59800000D03*
X222923100Y-52451000D03*
X131000000Y-79200000D03*
X206743300Y-114604800D03*
X162700000Y-96490000D03*
X149500000Y-107400000D03*
X168900000Y-75900000D03*
X146200000Y-131400000D03*
X217600000Y-119000000D03*
X190400000Y-97800000D03*
X219800000Y-80200000D03*
X185400000Y-82150000D03*
X192000000Y-105600000D03*
X209804000Y-88176100D03*
X144000000Y-40800000D03*
X210934300Y-60553600D03*
X211963000Y-88176100D03*
X185700000Y-54750000D03*
X153625000Y-52915000D03*
X104600000Y-125200000D03*
X190400000Y-45250000D03*
X222400000Y-105400000D03*
X189077600Y-128346200D03*
X213398100Y-122529600D03*
X220175021Y-104874979D03*
X168600000Y-40800000D03*
X202600000Y-107800000D03*
X165800000Y-63100000D03*
X200100000Y-100400000D03*
X162600000Y-115700000D03*
X133600000Y-58200000D03*
X191549016Y-49050984D03*
X223200000Y-68600000D03*
X94843600Y-112979200D03*
X170400000Y-132600000D03*
X201500000Y-104250000D03*
X151511000Y-78308200D03*
X107200000Y-134400000D03*
X101438100Y-46469100D03*
X93176999Y-99176999D03*
X169243100Y-38356900D03*
X124500000Y-44250000D03*
X193400000Y-88800000D03*
X200750000Y-85750000D03*
X172770800Y-38938200D03*
X95288100Y-38671500D03*
X106700000Y-74700000D03*
X144900000Y-98900004D03*
X186500000Y-72150000D03*
X96700000Y-67800000D03*
X113900000Y-137800000D03*
X212500000Y-81000000D03*
X168500000Y-67800000D03*
X113868200Y-46418500D03*
X168500000Y-128100000D03*
X154000000Y-111200000D03*
X148018500Y-78536800D03*
X185650000Y-78000000D03*
X112699800Y-43713400D03*
X113236400Y-67208200D03*
X139400000Y-76100000D03*
X148500000Y-101700000D03*
X185450000Y-59400000D03*
X209350000Y-67600000D03*
X98374200Y-92811600D03*
X102565200Y-94475300D03*
X190500000Y-83150000D03*
X204762100Y-86385400D03*
X204837500Y-82500000D03*
X220408500Y-49885600D03*
X151100000Y-111300000D03*
X149800000Y-73200000D03*
X120909801Y-123820001D03*
X184302400Y-131940300D03*
X172600000Y-43100000D03*
X149047200Y-92125800D03*
X218351100Y-69646800D03*
X123000000Y-46950000D03*
X223000000Y-64800000D03*
X110959900Y-41744900D03*
X103100000Y-139800000D03*
X117150000Y-47100000D03*
X130600000Y-74700000D03*
X165900000Y-128300000D03*
X166100000Y-120400000D03*
X211378787Y-48652217D03*
X144950000Y-79150000D03*
X187600000Y-123500000D03*
X167800000Y-62500000D03*
X223200000Y-101400000D03*
X223500000Y-85800000D03*
X101955600Y-38404800D03*
X202120500Y-60959998D03*
X190600000Y-105000000D03*
X147600000Y-42800000D03*
X127800001Y-76100001D03*
X223000000Y-48400000D03*
X169800000Y-120300000D03*
X218846400Y-107911900D03*
X151422100Y-82042000D03*
X192374999Y-100924999D03*
X125450000Y-101500000D03*
X128400000Y-134500000D03*
X133500000Y-133200000D03*
X220500000Y-59750000D03*
X220550000Y-78474990D03*
X177303000Y-130988000D03*
X208000600Y-43586400D03*
X210000000Y-116499990D03*
X102675000Y-57665745D03*
X209250000Y-45500000D03*
X220750000Y-97750000D03*
X103175000Y-60205745D03*
X188000000Y-46500000D03*
X202005399Y-115899399D03*
X190850000Y-77900000D03*
X158686500Y-128333500D03*
X167188400Y-126421400D03*
X191298400Y-119913600D03*
X203600000Y-110000000D03*
X181500000Y-39900000D03*
X201500000Y-78650000D03*
X189275000Y-57250000D03*
X201272457Y-97462850D03*
X190150000Y-64300000D03*
X193276189Y-116984200D03*
X203200000Y-87185500D03*
X173779989Y-111625000D03*
X169011600Y-42494200D03*
X182400000Y-92950000D03*
X182400000Y-73850000D03*
X152723174Y-39803920D03*
X171969000Y-115265400D03*
X183250000Y-81650000D03*
X182950011Y-61131673D03*
X182400000Y-54850000D03*
X183500000Y-83650000D03*
X138831761Y-130667561D03*
X147788200Y-129354000D03*
X181878761Y-111028761D03*
X183250000Y-64900000D03*
X162636200Y-42595800D03*
X103700000Y-62745745D03*
X166928800Y-42570400D03*
X163400000Y-71440000D03*
X152061699Y-39875010D03*
X163300000Y-90640000D03*
X151750000Y-63540000D03*
X165000000Y-78540000D03*
X152070275Y-41620210D03*
X104300000Y-64575000D03*
X150250000Y-52265000D03*
X123500000Y-133500000D03*
X163400000Y-109540000D03*
X153000000Y-109040000D03*
X165000000Y-81540021D03*
X144300000Y-54900000D03*
X144300000Y-73900000D03*
X144050000Y-92524990D03*
X144300000Y-111950000D03*
X133154739Y-42695261D03*
X105000000Y-66000000D03*
X130773547Y-113628547D03*
X133250000Y-111300000D03*
X88273000Y-133285000D03*
X132975354Y-45304243D03*
X96100000Y-51390000D03*
X96050000Y-67805847D03*
X105600000Y-51400000D03*
X103100000Y-67900000D03*
X105700006Y-41600000D03*
X114000000Y-79250000D03*
X101200000Y-53900000D03*
X105700018Y-54200000D03*
X102826022Y-68770500D03*
X129779600Y-122098000D03*
X157491000Y-128828990D03*
X132624400Y-130327600D03*
X143317800Y-131826200D03*
X105699992Y-56700000D03*
X95100000Y-44200000D03*
X105700000Y-44000000D03*
X94800000Y-70600000D03*
X178065000Y-131623000D03*
X128682800Y-119020000D03*
X107775000Y-97775000D03*
X110445094Y-69104375D03*
X110775010Y-89750000D03*
X125300000Y-114450000D03*
X111200000Y-74350000D03*
X114250000Y-113750000D03*
X114750000Y-56500000D03*
X111750000Y-112250000D03*
X125300000Y-76600000D03*
X111649995Y-69150005D03*
X125550000Y-95600000D03*
X101874255Y-55125745D03*
X98514255Y-52585745D03*
X114999994Y-83800000D03*
X109400000Y-124116732D03*
X124600000Y-59500000D03*
X117500000Y-87500000D03*
X122250000Y-66450000D03*
X112900000Y-119525021D03*
X146500000Y-57300000D03*
X116600000Y-59700000D03*
X154500000Y-53790000D03*
X149250000Y-55940000D03*
X165750003Y-56789997D03*
X191475000Y-63700000D03*
X162650000Y-54590000D03*
X159000000Y-53790000D03*
X189436812Y-63750000D03*
X201400000Y-61250000D03*
X187250000Y-81650000D03*
X187250000Y-86650000D03*
X190950000Y-61400000D03*
X108300000Y-132000000D03*
X148347000Y-122121502D03*
X106068010Y-126351315D03*
X152817400Y-118135600D03*
X102740000Y-125677500D03*
X145222800Y-118211800D03*
X188822468Y-120130068D03*
X149796500Y-120015000D03*
X181113000Y-120243800D03*
X168750000Y-93625000D03*
X104704243Y-86504950D03*
X170000000Y-94675000D03*
X108550000Y-84250000D03*
X111403027Y-84250000D03*
X109400000Y-87400004D03*
X173823200Y-118288000D03*
X143240373Y-41790373D03*
X116400000Y-43450000D03*
X125450000Y-44300002D03*
X116750000Y-63750000D03*
X116200000Y-65450000D03*
X143350000Y-60949994D03*
X135550000Y-41900000D03*
X154719240Y-39400010D03*
X180250000Y-44599999D03*
X174600000Y-44599999D03*
X162500016Y-39540000D03*
X154750000Y-58790000D03*
X173000000Y-42150000D03*
X181549998Y-61100000D03*
X176800500Y-50349500D03*
X209800000Y-48000000D03*
X219400000Y-47000000D03*
X218400000Y-44400000D03*
X192800000Y-46750000D03*
X200750000Y-47000000D03*
X193000000Y-66000000D03*
X212800000Y-49000000D03*
X219519500Y-65849500D03*
X212000000Y-47000000D03*
X212800000Y-50800000D03*
X120800002Y-79525000D03*
X124600000Y-63450000D03*
X122923621Y-65881628D03*
X116275021Y-82255755D03*
X135650000Y-60950000D03*
X143650000Y-79900000D03*
X153600000Y-78040000D03*
X162300000Y-58740000D03*
X181600000Y-80300000D03*
X175150000Y-63050000D03*
X173700000Y-61100000D03*
X175000000Y-64650000D03*
X191750000Y-85100000D03*
X200650004Y-66024990D03*
X193600000Y-79800000D03*
X210951402Y-66950000D03*
X219750000Y-84750000D03*
X216000000Y-77974990D03*
X125450000Y-83500000D03*
X116975317Y-101458646D03*
X143600000Y-99050000D03*
X135350000Y-80100000D03*
X155400000Y-92814979D03*
X158750000Y-90040000D03*
X154750000Y-96540000D03*
X162169493Y-77468245D03*
X175250000Y-83425000D03*
X173500000Y-80349998D03*
X181250000Y-98900000D03*
X193034627Y-103965373D03*
X200600000Y-84650000D03*
X199771000Y-87349989D03*
X196400000Y-98049998D03*
X219425000Y-103125000D03*
X212000000Y-85000000D03*
X124450000Y-101500000D03*
X125258400Y-118415000D03*
X105132534Y-133973520D03*
X135700010Y-98757169D03*
X120000000Y-125900000D03*
X125207600Y-117128000D03*
X116100000Y-119800000D03*
X161450000Y-94690000D03*
X112500000Y-124000000D03*
X165949996Y-113631410D03*
X147122200Y-121482800D03*
X173500000Y-99150000D03*
X143470200Y-117449800D03*
X200750000Y-103750000D03*
X184633532Y-112308932D03*
X198249998Y-107175010D03*
X154798600Y-116078200D03*
X212250010Y-104050000D03*
X183576800Y-118110200D03*
X181773400Y-118262600D03*
X98509200Y-126985800D03*
X120000000Y-122200000D03*
X119800000Y-124800000D03*
X110300000Y-127100000D03*
X135621600Y-117957800D03*
X152400000Y-113093500D03*
X154686200Y-113030200D03*
X141311200Y-115011400D03*
X162493589Y-114386621D03*
M02*
