G04 #@! TF.GenerationSoftware,KiCad,Pcbnew,9.0.0*
G04 #@! TF.CreationDate,2025-03-10T13:11:58-03:00*
G04 #@! TF.ProjectId,aeon-keyboard,61656f6e-2d6b-4657-9962-6f6172642e6b,v1*
G04 #@! TF.SameCoordinates,Original*
G04 #@! TF.FileFunction,Soldermask,Bot*
G04 #@! TF.FilePolarity,Negative*
%FSLAX46Y46*%
G04 Gerber Fmt 4.6, Leading zero omitted, Abs format (unit mm)*
G04 Created by KiCad (PCBNEW 9.0.0) date 2025-03-10 13:11:58*
%MOMM*%
%LPD*%
G01*
G04 APERTURE LIST*
G04 Aperture macros list*
%AMRoundRect*
0 Rectangle with rounded corners*
0 $1 Rounding radius*
0 $2 $3 $4 $5 $6 $7 $8 $9 X,Y pos of 4 corners*
0 Add a 4 corners polygon primitive as box body*
4,1,4,$2,$3,$4,$5,$6,$7,$8,$9,$2,$3,0*
0 Add four circle primitives for the rounded corners*
1,1,$1+$1,$2,$3*
1,1,$1+$1,$4,$5*
1,1,$1+$1,$6,$7*
1,1,$1+$1,$8,$9*
0 Add four rect primitives between the rounded corners*
20,1,$1+$1,$2,$3,$4,$5,0*
20,1,$1+$1,$4,$5,$6,$7,0*
20,1,$1+$1,$6,$7,$8,$9,0*
20,1,$1+$1,$8,$9,$2,$3,0*%
G04 Aperture macros list end*
%ADD10C,0.000000*%
%ADD11C,1.797000*%
%ADD12C,1.600000*%
%ADD13O,2.900000X2.100000*%
%ADD14C,5.100000*%
%ADD15C,1.924000*%
%ADD16C,2.400000*%
%ADD17RoundRect,0.200000X-0.475000X0.650000X-0.475000X-0.650000X0.475000X-0.650000X0.475000X0.650000X0*%
%ADD18RoundRect,0.200000X-0.650000X-0.475000X0.650000X-0.475000X0.650000X0.475000X-0.650000X0.475000X0*%
%ADD19C,2.300000*%
%ADD20C,2.100000*%
%ADD21C,3.400000*%
%ADD22C,4.500000*%
%ADD23RoundRect,0.200000X0.800000X0.500000X-0.800000X0.500000X-0.800000X-0.500000X0.800000X-0.500000X0*%
%ADD24RoundRect,0.200000X-1.150000X-1.000000X1.150000X-1.000000X1.150000X1.000000X-1.150000X1.000000X0*%
%ADD25RoundRect,0.200000X0.833013X-0.442820X0.033013X0.942820X-0.833013X0.442820X-0.033013X-0.942820X0*%
%ADD26RoundRect,0.200000X-1.441025X0.495929X-0.291025X-1.495929X1.441025X-0.495929X0.291025X1.495929X0*%
%ADD27C,4.400000*%
%ADD28RoundRect,0.200000X-0.762000X0.762000X-0.762000X-0.762000X0.762000X-0.762000X0.762000X0.762000X0*%
%ADD29RoundRect,0.200000X0.762000X0.762000X-0.762000X0.762000X-0.762000X-0.762000X0.762000X-0.762000X0*%
%ADD30RoundRect,0.200000X-1.600000X-1.000000X1.600000X-1.000000X1.600000X1.000000X-1.600000X1.000000X0*%
%ADD31RoundRect,0.200000X1.000000X0.500000X-1.000000X0.500000X-1.000000X-0.500000X1.000000X-0.500000X0*%
%ADD32RoundRect,0.200000X-1.000000X-0.500000X1.000000X-0.500000X1.000000X0.500000X-1.000000X0.500000X0*%
%ADD33RoundRect,0.200000X0.762000X-0.762000X0.762000X0.762000X-0.762000X0.762000X-0.762000X-0.762000X0*%
%ADD34RoundRect,0.200000X0.643331X0.690018X-0.902150X0.275908X-0.643331X-0.690018X0.902150X-0.275908X0*%
%ADD35RoundRect,0.200000X-0.851996X-1.263568X1.369634X-0.668284X0.851996X1.263568X-1.369634X0.668284X0*%
%ADD36RoundRect,0.200000X0.571500X-0.317500X0.571500X0.317500X-0.571500X0.317500X-0.571500X-0.317500X0*%
G04 APERTURE END LIST*
D10*
G36*
X201254038Y-125472371D02*
G01*
X201105032Y-125526943D01*
X200942124Y-125079240D01*
X201091131Y-125024668D01*
X201254038Y-125472371D01*
G37*
G36*
X199361395Y-122605310D02*
G01*
X199422917Y-122608009D01*
X199484074Y-122613245D01*
X199544791Y-122620987D01*
X199604996Y-122631203D01*
X199664615Y-122643861D01*
X199723575Y-122658930D01*
X199781804Y-122676377D01*
X199839228Y-122696173D01*
X199895772Y-122718283D01*
X199951367Y-122742677D01*
X199957881Y-122745500D01*
X202253875Y-123815528D01*
X202201457Y-123826023D01*
X202147925Y-123835206D01*
X202093397Y-123842935D01*
X202037995Y-123849061D01*
X201981839Y-123853441D01*
X201925050Y-123855927D01*
X201867748Y-123856375D01*
X201810054Y-123854637D01*
X201752089Y-123850570D01*
X201693972Y-123844027D01*
X201635825Y-123834862D01*
X201577769Y-123822929D01*
X201519923Y-123808083D01*
X201462409Y-123790180D01*
X201405347Y-123769071D01*
X201348857Y-123744612D01*
X200652336Y-123419998D01*
X199824438Y-123034312D01*
X199824306Y-123034163D01*
X199824165Y-123034023D01*
X199824015Y-123033889D01*
X199823857Y-123033763D01*
X199823690Y-123033643D01*
X199823518Y-123033529D01*
X199823152Y-123033318D01*
X199822762Y-123033127D01*
X199822351Y-123032953D01*
X199821924Y-123032793D01*
X199821485Y-123032645D01*
X199820580Y-123032368D01*
X199819666Y-123032098D01*
X199819215Y-123031959D01*
X199818771Y-123031813D01*
X199818340Y-123031656D01*
X199817924Y-123031488D01*
X199766879Y-123009271D01*
X199714788Y-122989513D01*
X199661744Y-122972252D01*
X199607846Y-122957530D01*
X199553188Y-122945387D01*
X199497870Y-122935864D01*
X199441987Y-122929000D01*
X199385635Y-122924838D01*
X199328912Y-122923415D01*
X199271913Y-122924773D01*
X199214735Y-122928952D01*
X199157475Y-122935993D01*
X199100231Y-122945936D01*
X199043098Y-122958821D01*
X198986172Y-122974688D01*
X198929550Y-122993580D01*
X198900412Y-123004618D01*
X198871766Y-123016377D01*
X198843606Y-123028830D01*
X198815923Y-123041951D01*
X198788713Y-123055711D01*
X198761969Y-123070084D01*
X198735683Y-123085044D01*
X198709851Y-123100562D01*
X200398086Y-123887545D01*
X201217299Y-124269468D01*
X201242544Y-124281443D01*
X201293203Y-124302948D01*
X201344858Y-124322045D01*
X201397418Y-124338694D01*
X201450791Y-124352857D01*
X201504887Y-124364496D01*
X201559615Y-124373570D01*
X201614884Y-124380042D01*
X201670602Y-124383873D01*
X201726676Y-124385023D01*
X201783018Y-124383456D01*
X201839534Y-124379129D01*
X201896135Y-124372007D01*
X201952728Y-124362048D01*
X202009223Y-124349217D01*
X202065528Y-124333473D01*
X202121552Y-124314776D01*
X202150690Y-124303737D01*
X202179336Y-124291978D01*
X202207497Y-124279524D01*
X202235179Y-124266404D01*
X202262390Y-124252644D01*
X202289134Y-124238270D01*
X202315420Y-124223312D01*
X202341252Y-124207793D01*
X202670376Y-124361289D01*
X202646269Y-124381064D01*
X202621683Y-124400331D01*
X202596626Y-124419083D01*
X202571103Y-124437315D01*
X202545119Y-124455018D01*
X202518682Y-124472183D01*
X202491797Y-124488807D01*
X202464470Y-124504879D01*
X202436708Y-124520395D01*
X202408517Y-124535346D01*
X202379903Y-124549725D01*
X202350871Y-124563524D01*
X202321429Y-124576738D01*
X202291582Y-124589359D01*
X202261336Y-124601379D01*
X202230698Y-124612791D01*
X202199499Y-124623597D01*
X202167616Y-124633791D01*
X202135124Y-124643353D01*
X202102097Y-124652270D01*
X202068608Y-124660520D01*
X202034732Y-124668088D01*
X202000543Y-124674955D01*
X201966116Y-124681104D01*
X201931524Y-124686515D01*
X201896842Y-124691173D01*
X201862145Y-124695059D01*
X201827504Y-124698156D01*
X201792997Y-124700446D01*
X201758695Y-124701910D01*
X201724674Y-124702533D01*
X201691009Y-124702295D01*
X201653373Y-124701046D01*
X201615843Y-124698828D01*
X201578438Y-124695650D01*
X201541180Y-124691523D01*
X201504088Y-124686455D01*
X201467182Y-124680455D01*
X201430481Y-124673533D01*
X201394007Y-124665700D01*
X201357779Y-124656964D01*
X201321817Y-124647334D01*
X201286142Y-124636820D01*
X201250773Y-124625433D01*
X201215731Y-124613180D01*
X201181035Y-124600071D01*
X201146706Y-124586116D01*
X201112765Y-124571325D01*
X201080325Y-124555716D01*
X197070982Y-122685240D01*
X197123256Y-122674865D01*
X197176665Y-122665787D01*
X197231087Y-122658154D01*
X197286403Y-122652113D01*
X197342490Y-122647811D01*
X197399229Y-122645398D01*
X197456499Y-122645021D01*
X197514177Y-122646828D01*
X197572145Y-122650966D01*
X197630281Y-122657584D01*
X197688466Y-122666830D01*
X197746576Y-122678851D01*
X197804492Y-122693795D01*
X197862094Y-122711810D01*
X197919260Y-122733045D01*
X197975869Y-122757647D01*
X197972206Y-122756576D01*
X198379236Y-122946936D01*
X198403343Y-122927161D01*
X198427930Y-122907892D01*
X198452991Y-122889136D01*
X198478522Y-122870899D01*
X198504518Y-122853187D01*
X198530973Y-122836005D01*
X198557883Y-122819361D01*
X198585243Y-122803260D01*
X198613049Y-122787709D01*
X198641294Y-122772713D01*
X198669973Y-122758279D01*
X198699083Y-122744413D01*
X198728618Y-122731121D01*
X198758573Y-122718411D01*
X198788944Y-122706286D01*
X198819724Y-122694754D01*
X198840705Y-122687187D01*
X198861724Y-122679977D01*
X198882783Y-122673121D01*
X198903880Y-122666622D01*
X198925018Y-122660477D01*
X198946194Y-122654689D01*
X198967410Y-122649256D01*
X198988665Y-122644179D01*
X199050849Y-122630987D01*
X199113105Y-122620523D01*
X199175361Y-122612755D01*
X199237543Y-122607651D01*
X199299578Y-122605180D01*
X199361395Y-122605310D01*
G37*
G36*
X198271406Y-123595565D02*
G01*
X198269915Y-123595433D01*
X198247404Y-123646725D01*
X198227372Y-123699051D01*
X198209862Y-123752318D01*
X198194915Y-123806431D01*
X198182574Y-123861295D01*
X198172882Y-123916817D01*
X198165879Y-123972902D01*
X198161611Y-124029456D01*
X198160117Y-124086385D01*
X198161442Y-124143595D01*
X198165627Y-124200991D01*
X198172714Y-124258479D01*
X198182745Y-124315965D01*
X198195765Y-124373355D01*
X198211814Y-124430555D01*
X198230935Y-124487469D01*
X198252905Y-124543343D01*
X198277409Y-124597453D01*
X198304355Y-124649756D01*
X198333648Y-124700209D01*
X198365195Y-124748767D01*
X198398902Y-124795388D01*
X198434675Y-124840027D01*
X198472422Y-124882642D01*
X198512045Y-124923189D01*
X198553455Y-124961623D01*
X198596557Y-124997902D01*
X198641256Y-125031982D01*
X198687459Y-125063819D01*
X198735073Y-125093370D01*
X198784003Y-125120592D01*
X198834156Y-125145441D01*
X198885438Y-125167872D01*
X198937756Y-125187844D01*
X198991015Y-125205311D01*
X199045123Y-125220232D01*
X199099985Y-125232561D01*
X199155507Y-125242255D01*
X199211596Y-125249272D01*
X199268159Y-125253567D01*
X199325100Y-125255097D01*
X199382328Y-125253819D01*
X199439748Y-125249687D01*
X199497266Y-125242660D01*
X199554789Y-125232695D01*
X199612222Y-125219746D01*
X199669472Y-125203771D01*
X199726447Y-125184725D01*
X199782319Y-125162753D01*
X199836425Y-125138242D01*
X199888721Y-125111286D01*
X199939167Y-125081979D01*
X199987720Y-125050416D01*
X200034337Y-125016691D01*
X200078975Y-124980898D01*
X200121594Y-124943131D01*
X200162150Y-124903484D01*
X200200600Y-124862053D01*
X200236903Y-124818930D01*
X200271016Y-124774210D01*
X200302897Y-124727988D01*
X200332503Y-124680358D01*
X200359793Y-124631413D01*
X200384722Y-124581249D01*
X200672722Y-124715371D01*
X200641168Y-124779187D01*
X200606577Y-124841435D01*
X200569005Y-124901999D01*
X200528512Y-124960761D01*
X200485153Y-125017604D01*
X200438988Y-125072411D01*
X200390072Y-125125066D01*
X200338464Y-125175449D01*
X200284222Y-125223445D01*
X200227403Y-125268937D01*
X200168064Y-125311808D01*
X200106263Y-125351940D01*
X200042058Y-125389216D01*
X199975506Y-125423520D01*
X199906665Y-125454733D01*
X199835592Y-125482740D01*
X199763143Y-125507053D01*
X199690342Y-125527454D01*
X199617307Y-125543999D01*
X199544159Y-125556743D01*
X199471016Y-125565741D01*
X199397996Y-125571050D01*
X199325221Y-125572725D01*
X199252809Y-125570821D01*
X199180879Y-125565394D01*
X199109550Y-125556499D01*
X199038942Y-125544192D01*
X198969173Y-125528528D01*
X198900364Y-125509564D01*
X198832632Y-125487354D01*
X198766098Y-125461955D01*
X198700880Y-125433421D01*
X198637099Y-125401808D01*
X198574872Y-125367172D01*
X198514319Y-125329568D01*
X198455560Y-125289053D01*
X198398714Y-125245681D01*
X198343899Y-125199506D01*
X198291236Y-125150587D01*
X198240843Y-125098978D01*
X198192839Y-125044735D01*
X198147344Y-124987913D01*
X198104476Y-124928568D01*
X198064356Y-124866755D01*
X198027103Y-124802529D01*
X197992834Y-124735947D01*
X197961671Y-124667063D01*
X197933731Y-124595935D01*
X197909351Y-124523538D01*
X197888902Y-124450767D01*
X197872327Y-124377746D01*
X197859567Y-124304596D01*
X197850567Y-124231441D01*
X197845270Y-124158401D01*
X197843617Y-124085603D01*
X197845555Y-124013167D01*
X197851023Y-123941215D01*
X197859966Y-123869872D01*
X197872328Y-123799259D01*
X197888049Y-123729499D01*
X197907075Y-123660714D01*
X197929348Y-123593028D01*
X197954811Y-123526563D01*
X197983406Y-123461441D01*
X198271406Y-123595565D01*
G37*
G36*
X200076075Y-122236001D02*
G01*
X199927068Y-122290574D01*
X199764160Y-121842872D01*
X199913167Y-121788299D01*
X200076075Y-122236001D01*
G37*
G36*
X201795232Y-121734578D02*
G01*
X201867202Y-121739971D01*
X201938569Y-121748834D01*
X202009211Y-121761112D01*
X202079011Y-121776750D01*
X202147849Y-121795691D01*
X202215607Y-121817879D01*
X202282163Y-121843259D01*
X202347401Y-121871776D01*
X202411200Y-121903374D01*
X202473443Y-121937997D01*
X202534009Y-121975589D01*
X202592780Y-122016096D01*
X202649636Y-122059459D01*
X202704458Y-122105626D01*
X202757129Y-122154540D01*
X202807528Y-122206144D01*
X202855535Y-122260384D01*
X202901034Y-122317204D01*
X202943904Y-122376547D01*
X202984025Y-122438359D01*
X203021280Y-122502584D01*
X203055548Y-122569166D01*
X203086712Y-122638048D01*
X203114652Y-122709177D01*
X203139032Y-122781575D01*
X203159481Y-122854345D01*
X203176056Y-122927367D01*
X203188816Y-123000517D01*
X203197815Y-123073672D01*
X203203113Y-123146711D01*
X203204765Y-123219509D01*
X203202828Y-123291945D01*
X203197359Y-123363897D01*
X203188417Y-123435240D01*
X203176055Y-123505854D01*
X203160333Y-123575614D01*
X203141307Y-123644398D01*
X203119034Y-123712085D01*
X203093572Y-123778549D01*
X203064976Y-123843671D01*
X203047548Y-123879466D01*
X203029170Y-123914862D01*
X203009841Y-123949821D01*
X202989570Y-123984312D01*
X202968357Y-124018296D01*
X202946204Y-124051742D01*
X202923116Y-124084613D01*
X202899095Y-124116872D01*
X202602410Y-123978986D01*
X202628174Y-123948117D01*
X202652814Y-123916314D01*
X202676313Y-123883654D01*
X202698657Y-123850216D01*
X202719830Y-123816076D01*
X202739816Y-123781313D01*
X202758600Y-123746004D01*
X202776165Y-123710229D01*
X202777657Y-123710359D01*
X202800168Y-123659067D01*
X202820200Y-123606741D01*
X202837711Y-123553474D01*
X202852657Y-123499362D01*
X202864998Y-123444498D01*
X202874690Y-123388976D01*
X202881692Y-123332891D01*
X202885961Y-123276337D01*
X202887455Y-123219408D01*
X202886130Y-123162198D01*
X202881945Y-123104802D01*
X202874858Y-123047313D01*
X202864825Y-122989827D01*
X202851806Y-122932437D01*
X202835757Y-122875238D01*
X202816637Y-122818323D01*
X202794667Y-122762449D01*
X202770163Y-122708339D01*
X202743217Y-122656036D01*
X202713923Y-122605583D01*
X202682377Y-122557025D01*
X202648670Y-122510404D01*
X202612896Y-122465764D01*
X202575151Y-122423150D01*
X202535525Y-122382604D01*
X202494116Y-122344169D01*
X202451015Y-122307890D01*
X202406315Y-122273811D01*
X202360112Y-122241973D01*
X202312498Y-122212422D01*
X202263569Y-122185200D01*
X202213415Y-122160352D01*
X202162134Y-122137920D01*
X202109816Y-122117949D01*
X202056556Y-122100481D01*
X202002449Y-122085561D01*
X201947587Y-122073231D01*
X201892065Y-122063537D01*
X201835976Y-122056521D01*
X201779414Y-122052225D01*
X201722471Y-122050695D01*
X201665244Y-122051974D01*
X201607824Y-122056104D01*
X201550306Y-122063131D01*
X201492783Y-122073098D01*
X201435349Y-122086047D01*
X201378099Y-122102022D01*
X201321124Y-122121068D01*
X201265252Y-122143040D01*
X201211147Y-122167551D01*
X201158850Y-122194507D01*
X201108404Y-122223814D01*
X201059851Y-122255376D01*
X201013235Y-122289102D01*
X200968596Y-122324895D01*
X200925977Y-122362662D01*
X200885422Y-122402308D01*
X200846972Y-122443740D01*
X200810669Y-122486862D01*
X200776556Y-122531582D01*
X200744675Y-122577805D01*
X200715068Y-122625435D01*
X200687780Y-122674379D01*
X200662849Y-122724543D01*
X200374850Y-122590421D01*
X200406403Y-122526605D01*
X200440994Y-122464357D01*
X200478566Y-122403793D01*
X200519060Y-122345031D01*
X200562418Y-122288189D01*
X200608584Y-122233381D01*
X200657499Y-122180727D01*
X200709107Y-122130344D01*
X200763349Y-122082347D01*
X200820169Y-122036855D01*
X200879508Y-121993984D01*
X200941309Y-121953853D01*
X201005513Y-121916575D01*
X201072065Y-121882273D01*
X201140907Y-121851060D01*
X201211979Y-121823053D01*
X201284502Y-121798677D01*
X201357373Y-121778218D01*
X201430472Y-121761619D01*
X201503680Y-121748825D01*
X201576880Y-121739779D01*
X201649951Y-121734426D01*
X201722774Y-121732711D01*
X201795232Y-121734578D01*
G37*
D11*
X95499272Y-80311965D03*
X100579272Y-80311965D03*
X95499272Y-78061965D03*
X100579272Y-78061965D03*
D12*
X89500000Y-87400000D03*
X96500000Y-87400000D03*
X89500000Y-85650000D03*
X96500000Y-85650000D03*
D13*
X98300000Y-89500000D03*
X98300000Y-83550000D03*
X94300000Y-89500000D03*
X94300000Y-83550000D03*
X91300000Y-89500000D03*
X91300000Y-83550000D03*
X99800000Y-87750000D03*
X99800000Y-85300000D03*
D11*
X102700000Y-80300000D03*
X102700000Y-78100000D03*
D14*
X130000000Y-57000000D03*
X206000000Y-61500000D03*
X130000000Y-97500000D03*
X206000000Y-100000000D03*
X103000000Y-119000000D03*
D15*
X92180000Y-41230000D03*
X108718815Y-42425745D03*
X92180000Y-43770000D03*
X108718815Y-44965745D03*
X92180000Y-46310000D03*
X108718815Y-47505745D03*
X92180000Y-48850000D03*
X108718815Y-50045745D03*
X92180000Y-51390000D03*
X108718815Y-52585745D03*
X92180000Y-53930000D03*
X108718815Y-55125745D03*
X92180000Y-56470000D03*
X108718815Y-57665745D03*
X92180000Y-59010000D03*
X108718815Y-60205745D03*
X92180000Y-61550000D03*
X108718815Y-62745745D03*
X92180000Y-64090000D03*
X108718815Y-65285745D03*
X92180000Y-66630000D03*
X108718815Y-67825745D03*
X92180000Y-69170000D03*
X108718815Y-70365745D03*
X93478815Y-70365745D03*
X107420000Y-69170000D03*
X93478815Y-67825745D03*
X107420000Y-66630000D03*
X93478815Y-65285745D03*
X107420000Y-64090000D03*
X93478815Y-62745745D03*
X107420000Y-61550000D03*
X93478815Y-60205745D03*
X107420000Y-59010000D03*
X93478815Y-57665745D03*
X107420000Y-56470000D03*
X93478815Y-55125745D03*
X107420000Y-53930000D03*
X93478815Y-52585745D03*
X107420000Y-51390000D03*
X93478815Y-50045745D03*
X107420000Y-48850000D03*
X93478815Y-47505745D03*
X107420000Y-46310000D03*
X93478815Y-44965745D03*
X107420000Y-43770000D03*
X93478815Y-42425745D03*
X107420000Y-41230000D03*
D16*
X90000000Y-74250000D03*
X90000000Y-80750000D03*
D17*
X128750000Y-44000000D03*
X128750000Y-47550000D03*
X131000000Y-44005500D03*
X131000000Y-47555500D03*
X150500000Y-41265000D03*
X150500000Y-44815000D03*
X169250000Y-43650000D03*
X169250000Y-47200000D03*
X188000000Y-48475000D03*
X188000000Y-52025000D03*
X207750000Y-48250000D03*
X207750000Y-51800000D03*
X126800000Y-62000000D03*
X126800000Y-65550000D03*
X129800000Y-62025000D03*
X129800000Y-65575000D03*
X150250000Y-59290000D03*
X150250000Y-62840000D03*
X169500000Y-61875000D03*
X169500000Y-65425000D03*
X188250000Y-65000000D03*
X188250000Y-68550000D03*
X207750000Y-65500000D03*
X207750000Y-69050000D03*
X128500000Y-82000000D03*
X128500000Y-85550000D03*
X131250000Y-81900000D03*
X131250000Y-85450000D03*
X149750000Y-79790000D03*
X149750000Y-83340000D03*
X169725000Y-81650000D03*
X169725000Y-85200000D03*
X188500000Y-87000000D03*
X188500000Y-90550000D03*
X207750000Y-84500000D03*
X207750000Y-88050000D03*
X112000000Y-100975000D03*
X112000000Y-104525000D03*
X131000000Y-101400000D03*
X131000000Y-104950000D03*
X150000000Y-96790000D03*
X150000000Y-100340000D03*
X169250000Y-100375000D03*
X169250000Y-103925000D03*
X188500000Y-104975000D03*
X188500000Y-108525000D03*
X208200000Y-103400000D03*
X208200000Y-106950000D03*
D18*
X105225000Y-97000000D03*
X108775000Y-97000000D03*
X99025000Y-123600000D03*
X102575000Y-123600000D03*
X108649800Y-120624800D03*
X112199800Y-120624800D03*
X124000000Y-124200000D03*
X127550000Y-124200000D03*
X124000000Y-121600000D03*
X127550000Y-121600000D03*
D19*
X125580000Y-50000000D03*
D20*
X125000000Y-50000000D03*
D21*
X124310000Y-52540000D03*
X123040000Y-55080000D03*
D22*
X120500000Y-50000000D03*
D21*
X117960000Y-55080000D03*
X116690000Y-52540001D03*
D20*
X116000000Y-50000000D03*
D19*
X115420000Y-50000000D03*
D23*
X122900000Y-45375000D03*
X122900000Y-43625000D03*
X118100000Y-43625000D03*
X118100000Y-45375000D03*
D24*
X127500000Y-52580000D03*
X114800000Y-55120000D03*
D19*
X144580000Y-47500000D03*
D20*
X144000000Y-47500000D03*
D21*
X143310000Y-50040000D03*
X142040000Y-52580000D03*
D22*
X139500000Y-47500000D03*
D21*
X136960000Y-52580000D03*
X135690000Y-50040001D03*
D20*
X135000000Y-47500000D03*
D19*
X134420000Y-47500000D03*
D23*
X141900000Y-42875000D03*
X141900000Y-41125000D03*
X137100000Y-41125000D03*
X137100000Y-42875000D03*
D24*
X146500000Y-50080000D03*
X133800000Y-52620000D03*
D19*
X163680000Y-45000000D03*
D20*
X163100000Y-45000000D03*
D21*
X162410000Y-47540000D03*
X161140000Y-50080000D03*
D22*
X158600000Y-45000000D03*
D21*
X156060000Y-50080000D03*
X154790000Y-47540001D03*
D20*
X154100000Y-45000000D03*
D19*
X153520000Y-45000000D03*
D23*
X161000000Y-40375000D03*
X161000000Y-38625000D03*
X156200000Y-38625000D03*
X156200000Y-40375000D03*
D24*
X165600000Y-47580000D03*
X152900000Y-50120000D03*
D19*
X182680000Y-47500000D03*
D20*
X182100000Y-47500000D03*
D21*
X181410000Y-50040000D03*
X180140000Y-52580000D03*
D22*
X177600000Y-47500000D03*
D21*
X175060000Y-52580000D03*
X173790000Y-50040001D03*
D20*
X173100000Y-47500000D03*
D19*
X172520000Y-47500000D03*
D23*
X180000000Y-42875000D03*
X180000000Y-41125000D03*
X175200000Y-41125000D03*
X175200000Y-42875000D03*
D24*
X184600000Y-50080000D03*
X171900000Y-52620000D03*
D19*
X201780000Y-52400000D03*
D20*
X201200000Y-52400000D03*
D21*
X200510000Y-54940000D03*
X199240000Y-57480000D03*
D22*
X196700000Y-52400000D03*
D21*
X194160000Y-57480000D03*
X192890000Y-54940001D03*
D20*
X192200000Y-52400000D03*
D19*
X191620000Y-52400000D03*
D23*
X199100000Y-47775000D03*
X199100000Y-46025000D03*
X194300000Y-46025000D03*
X194300000Y-47775000D03*
D24*
X203700000Y-54980000D03*
X191000000Y-57520000D03*
D19*
X125580000Y-69100000D03*
D20*
X125000000Y-69100000D03*
D21*
X124310000Y-71640000D03*
X123040000Y-74180000D03*
D22*
X120500000Y-69100000D03*
D21*
X117960000Y-74180000D03*
X116690000Y-71640001D03*
D20*
X116000000Y-69100000D03*
D19*
X115420000Y-69100000D03*
D23*
X122900000Y-64475000D03*
X122900000Y-62725000D03*
X118100000Y-62725000D03*
X118100000Y-64475000D03*
D24*
X127500000Y-71680000D03*
X114800000Y-74220000D03*
D19*
X144580000Y-66600000D03*
D20*
X144000000Y-66600000D03*
D21*
X143310000Y-69140000D03*
X142040000Y-71680000D03*
D22*
X139500000Y-66600000D03*
D21*
X136960000Y-71680000D03*
X135690000Y-69140001D03*
D20*
X135000000Y-66600000D03*
D19*
X134420000Y-66600000D03*
D23*
X141900000Y-61975000D03*
X141900000Y-60225000D03*
X137100000Y-60225000D03*
X137100000Y-61975000D03*
D24*
X146500000Y-69180000D03*
X133800000Y-71720000D03*
D19*
X163680000Y-64090000D03*
D20*
X163100000Y-64090000D03*
D21*
X162410000Y-66630000D03*
X161140000Y-69170000D03*
D22*
X158600000Y-64090000D03*
D21*
X156060000Y-69170000D03*
X154790000Y-66630001D03*
D20*
X154100000Y-64090000D03*
D19*
X153520000Y-64090000D03*
D23*
X161000000Y-59465000D03*
X161000000Y-57715000D03*
X156200000Y-57715000D03*
X156200000Y-59465000D03*
D24*
X165600000Y-66670000D03*
X152900000Y-69210000D03*
D19*
X182680000Y-66500000D03*
D20*
X182100000Y-66500000D03*
D21*
X181410000Y-69040000D03*
X180140000Y-71580000D03*
D22*
X177600000Y-66500000D03*
D21*
X175060000Y-71580000D03*
X173790000Y-69040001D03*
D20*
X173100000Y-66500000D03*
D19*
X172520000Y-66500000D03*
D23*
X180000000Y-61875000D03*
X180000000Y-60125000D03*
X175200000Y-60125000D03*
X175200000Y-61875000D03*
D24*
X184600000Y-69080000D03*
X171900000Y-71620000D03*
D19*
X201780000Y-71300000D03*
D20*
X201200000Y-71300000D03*
D21*
X200510000Y-73840000D03*
X199240000Y-76380000D03*
D22*
X196700000Y-71300000D03*
D21*
X194160000Y-76380000D03*
X192890000Y-73840001D03*
D20*
X192200000Y-71300000D03*
D19*
X191620000Y-71300000D03*
D23*
X199100000Y-66675000D03*
X199100000Y-64925000D03*
X194300000Y-64925000D03*
X194300000Y-66675000D03*
D24*
X203700000Y-73880000D03*
X191000000Y-76420000D03*
D19*
X220780000Y-71300000D03*
D20*
X220200000Y-71300000D03*
D21*
X219510000Y-73840000D03*
X218240000Y-76380000D03*
D22*
X215700000Y-71300000D03*
D21*
X213160000Y-76380000D03*
X211890000Y-73840001D03*
D20*
X211200000Y-71300000D03*
D19*
X210620000Y-71300000D03*
D23*
X218100000Y-66675000D03*
X218100000Y-64925000D03*
X213300000Y-64925000D03*
X213300000Y-66675000D03*
D24*
X222700000Y-73880000D03*
X210000000Y-76420000D03*
D19*
X125580000Y-88100000D03*
D20*
X125000000Y-88100000D03*
D21*
X124310000Y-90640000D03*
X123040000Y-93180000D03*
D22*
X120500000Y-88100000D03*
D21*
X117960000Y-93180000D03*
X116690000Y-90640001D03*
D20*
X116000000Y-88100000D03*
D19*
X115420000Y-88100000D03*
D23*
X122900000Y-83475000D03*
X122900000Y-81725000D03*
X118100000Y-81725000D03*
X118100000Y-83475000D03*
D24*
X127500000Y-90680000D03*
X114800000Y-93220000D03*
D19*
X144580000Y-85600000D03*
D20*
X144000000Y-85600000D03*
D21*
X143310000Y-88140000D03*
X142040000Y-90680000D03*
D22*
X139500000Y-85600000D03*
D21*
X136960000Y-90680000D03*
X135690000Y-88140001D03*
D20*
X135000000Y-85600000D03*
D19*
X134420000Y-85600000D03*
D23*
X141900000Y-80975000D03*
X141900000Y-79225000D03*
X137100000Y-79225000D03*
X137100000Y-80975000D03*
D24*
X146500000Y-88180000D03*
X133800000Y-90720000D03*
D19*
X163680000Y-83190000D03*
D20*
X163100000Y-83190000D03*
D21*
X162410000Y-85730000D03*
X161140000Y-88270000D03*
D22*
X158600000Y-83190000D03*
D21*
X156060000Y-88270000D03*
X154790000Y-85730001D03*
D20*
X154100000Y-83190000D03*
D19*
X153520000Y-83190000D03*
D23*
X161000000Y-78565000D03*
X161000000Y-76815000D03*
X156200000Y-76815000D03*
X156200000Y-78565000D03*
D24*
X165600000Y-85770000D03*
X152900000Y-88310000D03*
D19*
X182680000Y-85600000D03*
D20*
X182100000Y-85600000D03*
D21*
X181410000Y-88140000D03*
X180140000Y-90680000D03*
D22*
X177600000Y-85600000D03*
D21*
X175060000Y-90680000D03*
X173790000Y-88140001D03*
D20*
X173100000Y-85600000D03*
D19*
X172520000Y-85600000D03*
D23*
X180000000Y-80975000D03*
X180000000Y-79225000D03*
X175200000Y-79225000D03*
X175200000Y-80975000D03*
D24*
X184600000Y-88180000D03*
X171900000Y-90720000D03*
D19*
X201780000Y-90500000D03*
D20*
X201200000Y-90500000D03*
D21*
X200510000Y-93040000D03*
X199240000Y-95580000D03*
D22*
X196700000Y-90500000D03*
D21*
X194160000Y-95580000D03*
X192890000Y-93040001D03*
D20*
X192200000Y-90500000D03*
D19*
X191620000Y-90500000D03*
D23*
X199100000Y-85875000D03*
X199100000Y-84125000D03*
X194300000Y-84125000D03*
X194300000Y-85875000D03*
D24*
X203700000Y-93080000D03*
X191000000Y-95620000D03*
D19*
X220780000Y-90500000D03*
D20*
X220200000Y-90500000D03*
D21*
X219510000Y-93040000D03*
X218240000Y-95580000D03*
D22*
X215700000Y-90500000D03*
D21*
X213160000Y-95580000D03*
X211890000Y-93040001D03*
D20*
X211200000Y-90500000D03*
D19*
X210620000Y-90500000D03*
D23*
X218100000Y-85875000D03*
X218100000Y-84125000D03*
X213300000Y-84125000D03*
X213300000Y-85875000D03*
D24*
X222700000Y-93080000D03*
X210000000Y-95620000D03*
D19*
X125580000Y-107100000D03*
D20*
X125000000Y-107100000D03*
D21*
X124310000Y-109640000D03*
X123040000Y-112180000D03*
D22*
X120500000Y-107100000D03*
D21*
X117960000Y-112180000D03*
X116690000Y-109640001D03*
D20*
X116000000Y-107100000D03*
D19*
X115420000Y-107100000D03*
D23*
X122900000Y-102475000D03*
X122900000Y-100725000D03*
X118100000Y-100725000D03*
X118100000Y-102475000D03*
D24*
X127500000Y-109680000D03*
X114800000Y-112220000D03*
D19*
X144580000Y-104700000D03*
D20*
X144000000Y-104700000D03*
D21*
X143310000Y-107240000D03*
X142040000Y-109780000D03*
D22*
X139500000Y-104700000D03*
D21*
X136960000Y-109780000D03*
X135690000Y-107240001D03*
D20*
X135000000Y-104700000D03*
D19*
X134420000Y-104700000D03*
D23*
X141900000Y-100075000D03*
X141900000Y-98325000D03*
X137100000Y-98325000D03*
X137100000Y-100075000D03*
D24*
X146500000Y-107280000D03*
X133800000Y-109820000D03*
D19*
X163680000Y-102190000D03*
D20*
X163100000Y-102190000D03*
D21*
X162410000Y-104730000D03*
X161140000Y-107270000D03*
D22*
X158600000Y-102190000D03*
D21*
X156060000Y-107270000D03*
X154790000Y-104730001D03*
D20*
X154100000Y-102190000D03*
D19*
X153520000Y-102190000D03*
D23*
X161000000Y-97565000D03*
X161000000Y-95815000D03*
X156200000Y-95815000D03*
X156200000Y-97565000D03*
D24*
X165600000Y-104770000D03*
X152900000Y-107310000D03*
D19*
X182680000Y-104700000D03*
D20*
X182100000Y-104700000D03*
D21*
X181410000Y-107240000D03*
X180140000Y-109780000D03*
D22*
X177600000Y-104700000D03*
D21*
X175060000Y-109780000D03*
X173790000Y-107240001D03*
D20*
X173100000Y-104700000D03*
D19*
X172520000Y-104700000D03*
D23*
X180000000Y-100075000D03*
X180000000Y-98325000D03*
X175200000Y-98325000D03*
X175200000Y-100075000D03*
D24*
X184600000Y-107280000D03*
X171900000Y-109820000D03*
D19*
X201780000Y-109500000D03*
D20*
X201200000Y-109500000D03*
D21*
X200510000Y-112040000D03*
X199240000Y-114580000D03*
D22*
X196700000Y-109500000D03*
D21*
X194160000Y-114580000D03*
X192890000Y-112040001D03*
D20*
X192200000Y-109500000D03*
D19*
X191620000Y-109500000D03*
D23*
X199100000Y-104875000D03*
X199100000Y-103125000D03*
X194300000Y-103125000D03*
X194300000Y-104875000D03*
D24*
X203700000Y-112080000D03*
X191000000Y-114620000D03*
D19*
X220830000Y-109500000D03*
D20*
X220250000Y-109500000D03*
D21*
X219560000Y-112040000D03*
X218290000Y-114580000D03*
D22*
X215750000Y-109500000D03*
D21*
X213210000Y-114580000D03*
X211940000Y-112040001D03*
D20*
X211250000Y-109500000D03*
D19*
X210670000Y-109500000D03*
D23*
X218150000Y-104875000D03*
X218150000Y-103125000D03*
X213350000Y-103125000D03*
X213350000Y-104875000D03*
D24*
X222750000Y-112080000D03*
X210050000Y-114620000D03*
D19*
X99250000Y-137799409D03*
D20*
X98960000Y-137297114D03*
D21*
X96415295Y-137969557D03*
X93580591Y-138139705D03*
D22*
X96750000Y-133330000D03*
D21*
X91040591Y-133740295D03*
X92605295Y-131370444D03*
D20*
X94460000Y-129502886D03*
D19*
X94170000Y-129000591D03*
D25*
X101915367Y-133165961D03*
X103430912Y-132290961D03*
X101030912Y-128134039D03*
X99515367Y-129009039D03*
D26*
X97975654Y-140752178D03*
X89425950Y-131023655D03*
D19*
X144580000Y-123700000D03*
D20*
X144000000Y-123700000D03*
D21*
X143310000Y-126240000D03*
X142040000Y-128780000D03*
D22*
X139500000Y-123700000D03*
D21*
X136960000Y-128780000D03*
X135690000Y-126240001D03*
D20*
X135000000Y-123700000D03*
D19*
X134420000Y-123700000D03*
D23*
X141900000Y-119075000D03*
X141900000Y-117325000D03*
X137100000Y-117325000D03*
X137100000Y-119075000D03*
D24*
X146500000Y-126280000D03*
X133800000Y-128820000D03*
D19*
X163680000Y-121290000D03*
D20*
X163100000Y-121290000D03*
D21*
X162410000Y-123830000D03*
X161140000Y-126370000D03*
D22*
X158600000Y-121290000D03*
D21*
X156060000Y-126370000D03*
X154790000Y-123830001D03*
D20*
X154100000Y-121290000D03*
D19*
X153520000Y-121290000D03*
D23*
X161000000Y-116665000D03*
X161000000Y-114915000D03*
X156200000Y-114915000D03*
X156200000Y-116665000D03*
D24*
X165600000Y-123870000D03*
X152900000Y-126410000D03*
D27*
X91500000Y-93500000D03*
D28*
X107900000Y-81100000D03*
D29*
X107900000Y-78600000D03*
X107900000Y-76000000D03*
D11*
X96700000Y-74600000D03*
X99240000Y-74600000D03*
X101780000Y-74600000D03*
X104320000Y-74600000D03*
D18*
X124030000Y-119020000D03*
X127580000Y-119020000D03*
D27*
X107000000Y-93500000D03*
D16*
X92500000Y-102000000D03*
X92500000Y-107000000D03*
X92500000Y-104500000D03*
D30*
X100000000Y-98900000D03*
X100000000Y-110100000D03*
D16*
X107000000Y-107000000D03*
X107000000Y-102000000D03*
D31*
X122700000Y-58625000D03*
X122700000Y-60375000D03*
X118300000Y-60375000D03*
X118300000Y-58625000D03*
D32*
X156300000Y-54665000D03*
X156300000Y-52915000D03*
X160700000Y-52915000D03*
X160700000Y-54665000D03*
D31*
X199700000Y-60375000D03*
X199700000Y-62125000D03*
X195300000Y-62125000D03*
X195300000Y-60375000D03*
D32*
X106650000Y-125005000D03*
X106650000Y-123255000D03*
X111050000Y-123255000D03*
X111050000Y-125005000D03*
X146883600Y-119137600D03*
X146883600Y-117387600D03*
X151283600Y-117387600D03*
X151283600Y-119137600D03*
X182850000Y-121195000D03*
X182850000Y-119445000D03*
X187250000Y-119445000D03*
X187250000Y-121195000D03*
X103550000Y-87375000D03*
X103550000Y-85625000D03*
X107950000Y-85625000D03*
X107950000Y-87375000D03*
D28*
X185500000Y-101150000D03*
D15*
X185500000Y-98650000D03*
X185500000Y-96050000D03*
D29*
X176327000Y-114706600D03*
D15*
X178827000Y-114706600D03*
X181427000Y-114706600D03*
D33*
X112500000Y-80500000D03*
D15*
X112500000Y-83000000D03*
X112500000Y-85600000D03*
D19*
X182680000Y-123800000D03*
D20*
X182100000Y-123800000D03*
D21*
X181410000Y-126340000D03*
X180140000Y-128880000D03*
D22*
X177600000Y-123800000D03*
D21*
X175060000Y-128880000D03*
X173790000Y-126340001D03*
D20*
X173100000Y-123800000D03*
D19*
X172520000Y-123800000D03*
D23*
X180000000Y-119175000D03*
X180000000Y-117425000D03*
X175200000Y-117425000D03*
X175200000Y-119175000D03*
D24*
X184600000Y-126380000D03*
X171900000Y-128920000D03*
D19*
X122506903Y-127085199D03*
D20*
X121946666Y-127235314D03*
D21*
X121937578Y-129867351D03*
X121368252Y-132649503D03*
D22*
X117600000Y-128400000D03*
D21*
X116461349Y-133964304D03*
X114577223Y-131839553D03*
D20*
X113253334Y-129564686D03*
D19*
X112693097Y-129714801D03*
D34*
X118721184Y-123311427D03*
X118268251Y-121621057D03*
X113631807Y-122863390D03*
X114084740Y-124553759D03*
D35*
X125029234Y-129080355D03*
X113419376Y-134820809D03*
D19*
X220880000Y-52400000D03*
D20*
X220300000Y-52400000D03*
D21*
X219610000Y-54940000D03*
X218340000Y-57480000D03*
D22*
X215800000Y-52400000D03*
D21*
X213260000Y-57480000D03*
X211990000Y-54940001D03*
D20*
X211300000Y-52400000D03*
D19*
X210720000Y-52400000D03*
D23*
X218200000Y-47775000D03*
X218200000Y-46025000D03*
X213400000Y-46025000D03*
X213400000Y-47775000D03*
D24*
X222800000Y-54980000D03*
X210100000Y-57520000D03*
D36*
X101700000Y-69800380D03*
X101700000Y-68799620D03*
X99200000Y-69800380D03*
X99200000Y-68799620D03*
X96700000Y-69800380D03*
X96700000Y-68799620D03*
X104300000Y-69800380D03*
X104300000Y-68799620D03*
M02*
