G04 #@! TF.GenerationSoftware,KiCad,Pcbnew,9.0.0*
G04 #@! TF.CreationDate,2025-03-10T13:11:58-03:00*
G04 #@! TF.ProjectId,aeon-keyboard,61656f6e-2d6b-4657-9962-6f6172642e6b,v1*
G04 #@! TF.SameCoordinates,Original*
G04 #@! TF.FileFunction,Legend,Bot*
G04 #@! TF.FilePolarity,Positive*
%FSLAX46Y46*%
G04 Gerber Fmt 4.6, Leading zero omitted, Abs format (unit mm)*
G04 Created by KiCad (PCBNEW 9.0.0) date 2025-03-10 13:11:58*
%MOMM*%
%LPD*%
G01*
G04 APERTURE LIST*
%ADD10C,0.150000*%
%ADD11C,0.400000*%
%ADD12C,0.500000*%
%ADD13C,1.000000*%
%ADD14C,3.500000*%
%ADD15C,0.300000*%
%ADD16C,3.000000*%
%ADD17C,0.800000*%
%ADD18C,0.120000*%
%ADD19C,1.524000*%
G04 APERTURE END LIST*
D10*
X114093247Y-81044285D02*
X114131342Y-81158571D01*
X114131342Y-81158571D02*
X114169438Y-81196666D01*
X114169438Y-81196666D02*
X114245628Y-81234762D01*
X114245628Y-81234762D02*
X114359914Y-81234762D01*
X114359914Y-81234762D02*
X114436104Y-81196666D01*
X114436104Y-81196666D02*
X114474200Y-81158571D01*
X114474200Y-81158571D02*
X114512295Y-81082381D01*
X114512295Y-81082381D02*
X114512295Y-80777619D01*
X114512295Y-80777619D02*
X113712295Y-80777619D01*
X113712295Y-80777619D02*
X113712295Y-81044285D01*
X113712295Y-81044285D02*
X113750390Y-81120476D01*
X113750390Y-81120476D02*
X113788485Y-81158571D01*
X113788485Y-81158571D02*
X113864676Y-81196666D01*
X113864676Y-81196666D02*
X113940866Y-81196666D01*
X113940866Y-81196666D02*
X114017057Y-81158571D01*
X114017057Y-81158571D02*
X114055152Y-81120476D01*
X114055152Y-81120476D02*
X114093247Y-81044285D01*
X114093247Y-81044285D02*
X114093247Y-80777619D01*
X114131342Y-81730000D02*
X114512295Y-81730000D01*
X113712295Y-81463333D02*
X114131342Y-81730000D01*
X114131342Y-81730000D02*
X113712295Y-81996666D01*
X114512295Y-82263333D02*
X113712295Y-82263333D01*
X113712295Y-82263333D02*
X113712295Y-82568095D01*
X113712295Y-82568095D02*
X113750390Y-82644285D01*
X113750390Y-82644285D02*
X113788485Y-82682380D01*
X113788485Y-82682380D02*
X113864676Y-82720476D01*
X113864676Y-82720476D02*
X113978961Y-82720476D01*
X113978961Y-82720476D02*
X114055152Y-82682380D01*
X114055152Y-82682380D02*
X114093247Y-82644285D01*
X114093247Y-82644285D02*
X114131342Y-82568095D01*
X114131342Y-82568095D02*
X114131342Y-82263333D01*
X114432295Y-83580953D02*
X113632295Y-83580953D01*
X114432295Y-83961905D02*
X113632295Y-83961905D01*
X113632295Y-83961905D02*
X114432295Y-84419048D01*
X114432295Y-84419048D02*
X113632295Y-84419048D01*
X114432295Y-84800000D02*
X113632295Y-84800000D01*
X113632295Y-84800000D02*
X113632295Y-84990476D01*
X113632295Y-84990476D02*
X113670390Y-85104762D01*
X113670390Y-85104762D02*
X113746580Y-85180952D01*
X113746580Y-85180952D02*
X113822771Y-85219047D01*
X113822771Y-85219047D02*
X113975152Y-85257143D01*
X113975152Y-85257143D02*
X114089438Y-85257143D01*
X114089438Y-85257143D02*
X114241819Y-85219047D01*
X114241819Y-85219047D02*
X114318009Y-85180952D01*
X114318009Y-85180952D02*
X114394200Y-85104762D01*
X114394200Y-85104762D02*
X114432295Y-84990476D01*
X114432295Y-84990476D02*
X114432295Y-84800000D01*
X178533332Y-113143247D02*
X178266666Y-113143247D01*
X178152380Y-113562295D02*
X178533332Y-113562295D01*
X178533332Y-113562295D02*
X178533332Y-112762295D01*
X178533332Y-112762295D02*
X178152380Y-112762295D01*
X177809522Y-113562295D02*
X177809522Y-112762295D01*
X177809522Y-112762295D02*
X177352379Y-113562295D01*
X177352379Y-113562295D02*
X177352379Y-112762295D01*
X177009523Y-113333723D02*
X176628570Y-113333723D01*
X177085713Y-113562295D02*
X176819046Y-112762295D01*
X176819046Y-112762295D02*
X176552380Y-113562295D01*
X183609525Y-111943247D02*
X183495239Y-111981342D01*
X183495239Y-111981342D02*
X183457144Y-112019438D01*
X183457144Y-112019438D02*
X183419048Y-112095628D01*
X183419048Y-112095628D02*
X183419048Y-112209914D01*
X183419048Y-112209914D02*
X183457144Y-112286104D01*
X183457144Y-112286104D02*
X183495239Y-112324200D01*
X183495239Y-112324200D02*
X183571429Y-112362295D01*
X183571429Y-112362295D02*
X183876191Y-112362295D01*
X183876191Y-112362295D02*
X183876191Y-111562295D01*
X183876191Y-111562295D02*
X183609525Y-111562295D01*
X183609525Y-111562295D02*
X183533334Y-111600390D01*
X183533334Y-111600390D02*
X183495239Y-111638485D01*
X183495239Y-111638485D02*
X183457144Y-111714676D01*
X183457144Y-111714676D02*
X183457144Y-111790866D01*
X183457144Y-111790866D02*
X183495239Y-111867057D01*
X183495239Y-111867057D02*
X183533334Y-111905152D01*
X183533334Y-111905152D02*
X183609525Y-111943247D01*
X183609525Y-111943247D02*
X183876191Y-111943247D01*
X182733334Y-112362295D02*
X182733334Y-111943247D01*
X182733334Y-111943247D02*
X182771429Y-111867057D01*
X182771429Y-111867057D02*
X182847620Y-111828961D01*
X182847620Y-111828961D02*
X183000001Y-111828961D01*
X183000001Y-111828961D02*
X183076191Y-111867057D01*
X182733334Y-112324200D02*
X182809525Y-112362295D01*
X182809525Y-112362295D02*
X183000001Y-112362295D01*
X183000001Y-112362295D02*
X183076191Y-112324200D01*
X183076191Y-112324200D02*
X183114287Y-112248009D01*
X183114287Y-112248009D02*
X183114287Y-112171819D01*
X183114287Y-112171819D02*
X183076191Y-112095628D01*
X183076191Y-112095628D02*
X183000001Y-112057533D01*
X183000001Y-112057533D02*
X182809525Y-112057533D01*
X182809525Y-112057533D02*
X182733334Y-112019438D01*
X182009524Y-112324200D02*
X182085715Y-112362295D01*
X182085715Y-112362295D02*
X182238096Y-112362295D01*
X182238096Y-112362295D02*
X182314286Y-112324200D01*
X182314286Y-112324200D02*
X182352381Y-112286104D01*
X182352381Y-112286104D02*
X182390477Y-112209914D01*
X182390477Y-112209914D02*
X182390477Y-111981342D01*
X182390477Y-111981342D02*
X182352381Y-111905152D01*
X182352381Y-111905152D02*
X182314286Y-111867057D01*
X182314286Y-111867057D02*
X182238096Y-111828961D01*
X182238096Y-111828961D02*
X182085715Y-111828961D01*
X182085715Y-111828961D02*
X182009524Y-111867057D01*
X181666667Y-112362295D02*
X181666667Y-111562295D01*
X181590477Y-112057533D02*
X181361905Y-112362295D01*
X181361905Y-111828961D02*
X181666667Y-112133723D01*
X180904763Y-112362295D02*
X180980953Y-112324200D01*
X180980953Y-112324200D02*
X181019048Y-112248009D01*
X181019048Y-112248009D02*
X181019048Y-111562295D01*
X180600000Y-112362295D02*
X180600000Y-111828961D01*
X180600000Y-111562295D02*
X180638096Y-111600390D01*
X180638096Y-111600390D02*
X180600000Y-111638485D01*
X180600000Y-111638485D02*
X180561905Y-111600390D01*
X180561905Y-111600390D02*
X180600000Y-111562295D01*
X180600000Y-111562295D02*
X180600000Y-111638485D01*
X179876191Y-111828961D02*
X179876191Y-112476580D01*
X179876191Y-112476580D02*
X179914286Y-112552771D01*
X179914286Y-112552771D02*
X179952382Y-112590866D01*
X179952382Y-112590866D02*
X180028572Y-112628961D01*
X180028572Y-112628961D02*
X180142858Y-112628961D01*
X180142858Y-112628961D02*
X180219048Y-112590866D01*
X179876191Y-112324200D02*
X179952382Y-112362295D01*
X179952382Y-112362295D02*
X180104763Y-112362295D01*
X180104763Y-112362295D02*
X180180953Y-112324200D01*
X180180953Y-112324200D02*
X180219048Y-112286104D01*
X180219048Y-112286104D02*
X180257144Y-112209914D01*
X180257144Y-112209914D02*
X180257144Y-111981342D01*
X180257144Y-111981342D02*
X180219048Y-111905152D01*
X180219048Y-111905152D02*
X180180953Y-111867057D01*
X180180953Y-111867057D02*
X180104763Y-111828961D01*
X180104763Y-111828961D02*
X179952382Y-111828961D01*
X179952382Y-111828961D02*
X179876191Y-111867057D01*
X179495238Y-112362295D02*
X179495238Y-111562295D01*
X179152381Y-112362295D02*
X179152381Y-111943247D01*
X179152381Y-111943247D02*
X179190476Y-111867057D01*
X179190476Y-111867057D02*
X179266667Y-111828961D01*
X179266667Y-111828961D02*
X179380953Y-111828961D01*
X179380953Y-111828961D02*
X179457143Y-111867057D01*
X179457143Y-111867057D02*
X179495238Y-111905152D01*
X178885714Y-111828961D02*
X178580952Y-111828961D01*
X178771428Y-111562295D02*
X178771428Y-112248009D01*
X178771428Y-112248009D02*
X178733333Y-112324200D01*
X178733333Y-112324200D02*
X178657143Y-112362295D01*
X178657143Y-112362295D02*
X178580952Y-112362295D01*
X177399999Y-112324200D02*
X177476190Y-112362295D01*
X177476190Y-112362295D02*
X177628571Y-112362295D01*
X177628571Y-112362295D02*
X177704761Y-112324200D01*
X177704761Y-112324200D02*
X177742857Y-112248009D01*
X177742857Y-112248009D02*
X177742857Y-111943247D01*
X177742857Y-111943247D02*
X177704761Y-111867057D01*
X177704761Y-111867057D02*
X177628571Y-111828961D01*
X177628571Y-111828961D02*
X177476190Y-111828961D01*
X177476190Y-111828961D02*
X177399999Y-111867057D01*
X177399999Y-111867057D02*
X177361904Y-111943247D01*
X177361904Y-111943247D02*
X177361904Y-112019438D01*
X177361904Y-112019438D02*
X177742857Y-112095628D01*
X177019047Y-111828961D02*
X177019047Y-112362295D01*
X177019047Y-111905152D02*
X176980952Y-111867057D01*
X176980952Y-111867057D02*
X176904762Y-111828961D01*
X176904762Y-111828961D02*
X176790476Y-111828961D01*
X176790476Y-111828961D02*
X176714285Y-111867057D01*
X176714285Y-111867057D02*
X176676190Y-111943247D01*
X176676190Y-111943247D02*
X176676190Y-112362295D01*
X175952380Y-112362295D02*
X175952380Y-111943247D01*
X175952380Y-111943247D02*
X175990475Y-111867057D01*
X175990475Y-111867057D02*
X176066666Y-111828961D01*
X176066666Y-111828961D02*
X176219047Y-111828961D01*
X176219047Y-111828961D02*
X176295237Y-111867057D01*
X175952380Y-112324200D02*
X176028571Y-112362295D01*
X176028571Y-112362295D02*
X176219047Y-112362295D01*
X176219047Y-112362295D02*
X176295237Y-112324200D01*
X176295237Y-112324200D02*
X176333333Y-112248009D01*
X176333333Y-112248009D02*
X176333333Y-112171819D01*
X176333333Y-112171819D02*
X176295237Y-112095628D01*
X176295237Y-112095628D02*
X176219047Y-112057533D01*
X176219047Y-112057533D02*
X176028571Y-112057533D01*
X176028571Y-112057533D02*
X175952380Y-112019438D01*
X175571427Y-112362295D02*
X175571427Y-111562295D01*
X175571427Y-111867057D02*
X175495237Y-111828961D01*
X175495237Y-111828961D02*
X175342856Y-111828961D01*
X175342856Y-111828961D02*
X175266665Y-111867057D01*
X175266665Y-111867057D02*
X175228570Y-111905152D01*
X175228570Y-111905152D02*
X175190475Y-111981342D01*
X175190475Y-111981342D02*
X175190475Y-112209914D01*
X175190475Y-112209914D02*
X175228570Y-112286104D01*
X175228570Y-112286104D02*
X175266665Y-112324200D01*
X175266665Y-112324200D02*
X175342856Y-112362295D01*
X175342856Y-112362295D02*
X175495237Y-112362295D01*
X175495237Y-112362295D02*
X175571427Y-112324200D01*
X174733332Y-112362295D02*
X174809522Y-112324200D01*
X174809522Y-112324200D02*
X174847617Y-112248009D01*
X174847617Y-112248009D02*
X174847617Y-111562295D01*
X174123807Y-112324200D02*
X174199998Y-112362295D01*
X174199998Y-112362295D02*
X174352379Y-112362295D01*
X174352379Y-112362295D02*
X174428569Y-112324200D01*
X174428569Y-112324200D02*
X174466665Y-112248009D01*
X174466665Y-112248009D02*
X174466665Y-111943247D01*
X174466665Y-111943247D02*
X174428569Y-111867057D01*
X174428569Y-111867057D02*
X174352379Y-111828961D01*
X174352379Y-111828961D02*
X174199998Y-111828961D01*
X174199998Y-111828961D02*
X174123807Y-111867057D01*
X174123807Y-111867057D02*
X174085712Y-111943247D01*
X174085712Y-111943247D02*
X174085712Y-112019438D01*
X174085712Y-112019438D02*
X174466665Y-112095628D01*
X186832295Y-96372381D02*
X187479914Y-96372381D01*
X187479914Y-96372381D02*
X187556104Y-96410476D01*
X187556104Y-96410476D02*
X187594200Y-96448571D01*
X187594200Y-96448571D02*
X187632295Y-96524762D01*
X187632295Y-96524762D02*
X187632295Y-96677143D01*
X187632295Y-96677143D02*
X187594200Y-96753333D01*
X187594200Y-96753333D02*
X187556104Y-96791428D01*
X187556104Y-96791428D02*
X187479914Y-96829524D01*
X187479914Y-96829524D02*
X186832295Y-96829524D01*
X187632295Y-97210476D02*
X186832295Y-97210476D01*
X186832295Y-97210476D02*
X187632295Y-97667619D01*
X187632295Y-97667619D02*
X186832295Y-97667619D01*
X187632295Y-98048571D02*
X186832295Y-98048571D01*
X186832295Y-98048571D02*
X186832295Y-98239047D01*
X186832295Y-98239047D02*
X186870390Y-98353333D01*
X186870390Y-98353333D02*
X186946580Y-98429523D01*
X186946580Y-98429523D02*
X187022771Y-98467618D01*
X187022771Y-98467618D02*
X187175152Y-98505714D01*
X187175152Y-98505714D02*
X187289438Y-98505714D01*
X187289438Y-98505714D02*
X187441819Y-98467618D01*
X187441819Y-98467618D02*
X187518009Y-98429523D01*
X187518009Y-98429523D02*
X187594200Y-98353333D01*
X187594200Y-98353333D02*
X187632295Y-98239047D01*
X187632295Y-98239047D02*
X187632295Y-98048571D01*
X187153247Y-99903333D02*
X187191342Y-100017619D01*
X187191342Y-100017619D02*
X187229438Y-100055714D01*
X187229438Y-100055714D02*
X187305628Y-100093810D01*
X187305628Y-100093810D02*
X187419914Y-100093810D01*
X187419914Y-100093810D02*
X187496104Y-100055714D01*
X187496104Y-100055714D02*
X187534200Y-100017619D01*
X187534200Y-100017619D02*
X187572295Y-99941429D01*
X187572295Y-99941429D02*
X187572295Y-99636667D01*
X187572295Y-99636667D02*
X186772295Y-99636667D01*
X186772295Y-99636667D02*
X186772295Y-99903333D01*
X186772295Y-99903333D02*
X186810390Y-99979524D01*
X186810390Y-99979524D02*
X186848485Y-100017619D01*
X186848485Y-100017619D02*
X186924676Y-100055714D01*
X186924676Y-100055714D02*
X187000866Y-100055714D01*
X187000866Y-100055714D02*
X187077057Y-100017619D01*
X187077057Y-100017619D02*
X187115152Y-99979524D01*
X187115152Y-99979524D02*
X187153247Y-99903333D01*
X187153247Y-99903333D02*
X187153247Y-99636667D01*
X187572295Y-100817619D02*
X187572295Y-100436667D01*
X187572295Y-100436667D02*
X186772295Y-100436667D01*
X184152295Y-96566666D02*
X184152295Y-96185714D01*
X184152295Y-96185714D02*
X183352295Y-96185714D01*
X184152295Y-96833333D02*
X183618961Y-96833333D01*
X183352295Y-96833333D02*
X183390390Y-96795237D01*
X183390390Y-96795237D02*
X183428485Y-96833333D01*
X183428485Y-96833333D02*
X183390390Y-96871428D01*
X183390390Y-96871428D02*
X183352295Y-96833333D01*
X183352295Y-96833333D02*
X183428485Y-96833333D01*
X183618961Y-97557142D02*
X184266580Y-97557142D01*
X184266580Y-97557142D02*
X184342771Y-97519047D01*
X184342771Y-97519047D02*
X184380866Y-97480951D01*
X184380866Y-97480951D02*
X184418961Y-97404761D01*
X184418961Y-97404761D02*
X184418961Y-97290475D01*
X184418961Y-97290475D02*
X184380866Y-97214285D01*
X184114200Y-97557142D02*
X184152295Y-97480951D01*
X184152295Y-97480951D02*
X184152295Y-97328570D01*
X184152295Y-97328570D02*
X184114200Y-97252380D01*
X184114200Y-97252380D02*
X184076104Y-97214285D01*
X184076104Y-97214285D02*
X183999914Y-97176189D01*
X183999914Y-97176189D02*
X183771342Y-97176189D01*
X183771342Y-97176189D02*
X183695152Y-97214285D01*
X183695152Y-97214285D02*
X183657057Y-97252380D01*
X183657057Y-97252380D02*
X183618961Y-97328570D01*
X183618961Y-97328570D02*
X183618961Y-97480951D01*
X183618961Y-97480951D02*
X183657057Y-97557142D01*
X184152295Y-97938095D02*
X183352295Y-97938095D01*
X184152295Y-98280952D02*
X183733247Y-98280952D01*
X183733247Y-98280952D02*
X183657057Y-98242857D01*
X183657057Y-98242857D02*
X183618961Y-98166666D01*
X183618961Y-98166666D02*
X183618961Y-98052380D01*
X183618961Y-98052380D02*
X183657057Y-97976190D01*
X183657057Y-97976190D02*
X183695152Y-97938095D01*
X183618961Y-98547619D02*
X183618961Y-98852381D01*
X183352295Y-98661905D02*
X184038009Y-98661905D01*
X184038009Y-98661905D02*
X184114200Y-98700000D01*
X184114200Y-98700000D02*
X184152295Y-98776190D01*
X184152295Y-98776190D02*
X184152295Y-98852381D01*
X184114200Y-99690476D02*
X184152295Y-99804762D01*
X184152295Y-99804762D02*
X184152295Y-99995238D01*
X184152295Y-99995238D02*
X184114200Y-100071429D01*
X184114200Y-100071429D02*
X184076104Y-100109524D01*
X184076104Y-100109524D02*
X183999914Y-100147619D01*
X183999914Y-100147619D02*
X183923723Y-100147619D01*
X183923723Y-100147619D02*
X183847533Y-100109524D01*
X183847533Y-100109524D02*
X183809438Y-100071429D01*
X183809438Y-100071429D02*
X183771342Y-99995238D01*
X183771342Y-99995238D02*
X183733247Y-99842857D01*
X183733247Y-99842857D02*
X183695152Y-99766667D01*
X183695152Y-99766667D02*
X183657057Y-99728572D01*
X183657057Y-99728572D02*
X183580866Y-99690476D01*
X183580866Y-99690476D02*
X183504676Y-99690476D01*
X183504676Y-99690476D02*
X183428485Y-99728572D01*
X183428485Y-99728572D02*
X183390390Y-99766667D01*
X183390390Y-99766667D02*
X183352295Y-99842857D01*
X183352295Y-99842857D02*
X183352295Y-100033334D01*
X183352295Y-100033334D02*
X183390390Y-100147619D01*
X184114200Y-100795239D02*
X184152295Y-100719048D01*
X184152295Y-100719048D02*
X184152295Y-100566667D01*
X184152295Y-100566667D02*
X184114200Y-100490477D01*
X184114200Y-100490477D02*
X184038009Y-100452381D01*
X184038009Y-100452381D02*
X183733247Y-100452381D01*
X183733247Y-100452381D02*
X183657057Y-100490477D01*
X183657057Y-100490477D02*
X183618961Y-100566667D01*
X183618961Y-100566667D02*
X183618961Y-100719048D01*
X183618961Y-100719048D02*
X183657057Y-100795239D01*
X183657057Y-100795239D02*
X183733247Y-100833334D01*
X183733247Y-100833334D02*
X183809438Y-100833334D01*
X183809438Y-100833334D02*
X183885628Y-100452381D01*
X184152295Y-101290476D02*
X184114200Y-101214286D01*
X184114200Y-101214286D02*
X184038009Y-101176191D01*
X184038009Y-101176191D02*
X183352295Y-101176191D01*
X188772295Y-96989048D02*
X188772295Y-96950953D01*
X188772295Y-96950953D02*
X188734200Y-96874762D01*
X188734200Y-96874762D02*
X188619914Y-96760476D01*
X188619914Y-96760476D02*
X188391342Y-96570000D01*
X188391342Y-96570000D02*
X188277057Y-96493810D01*
X188277057Y-96493810D02*
X188162771Y-96455714D01*
X188162771Y-96455714D02*
X188086580Y-96455714D01*
X188086580Y-96455714D02*
X188010390Y-96493810D01*
X188010390Y-96493810D02*
X187972295Y-96570000D01*
X187972295Y-96570000D02*
X187972295Y-96608095D01*
X187972295Y-96608095D02*
X188010390Y-96684286D01*
X188010390Y-96684286D02*
X188086580Y-96722381D01*
X188086580Y-96722381D02*
X188124676Y-96722381D01*
X188124676Y-96722381D02*
X188200866Y-96684286D01*
X188200866Y-96684286D02*
X188238961Y-96646191D01*
X188238961Y-96646191D02*
X188391342Y-96417619D01*
X188391342Y-96417619D02*
X188429438Y-96379524D01*
X188429438Y-96379524D02*
X188505628Y-96341429D01*
X188505628Y-96341429D02*
X188619914Y-96341429D01*
X188619914Y-96341429D02*
X188696104Y-96379524D01*
X188696104Y-96379524D02*
X188734200Y-96417619D01*
X188734200Y-96417619D02*
X188772295Y-96493810D01*
X188772295Y-96493810D02*
X188772295Y-96608095D01*
X188772295Y-96608095D02*
X188734200Y-96684286D01*
X188734200Y-96684286D02*
X188696104Y-96722381D01*
X188696104Y-96722381D02*
X188543723Y-96836667D01*
X188543723Y-96836667D02*
X188429438Y-96874762D01*
X188429438Y-96874762D02*
X188353247Y-96874762D01*
X188353247Y-97598571D02*
X188391342Y-97712857D01*
X188391342Y-97712857D02*
X188429438Y-97750952D01*
X188429438Y-97750952D02*
X188505628Y-97789048D01*
X188505628Y-97789048D02*
X188619914Y-97789048D01*
X188619914Y-97789048D02*
X188696104Y-97750952D01*
X188696104Y-97750952D02*
X188734200Y-97712857D01*
X188734200Y-97712857D02*
X188772295Y-97636667D01*
X188772295Y-97636667D02*
X188772295Y-97331905D01*
X188772295Y-97331905D02*
X187972295Y-97331905D01*
X187972295Y-97331905D02*
X187972295Y-97598571D01*
X187972295Y-97598571D02*
X188010390Y-97674762D01*
X188010390Y-97674762D02*
X188048485Y-97712857D01*
X188048485Y-97712857D02*
X188124676Y-97750952D01*
X188124676Y-97750952D02*
X188200866Y-97750952D01*
X188200866Y-97750952D02*
X188277057Y-97712857D01*
X188277057Y-97712857D02*
X188315152Y-97674762D01*
X188315152Y-97674762D02*
X188353247Y-97598571D01*
X188353247Y-97598571D02*
X188353247Y-97331905D01*
X188772295Y-98512857D02*
X188772295Y-98131905D01*
X188772295Y-98131905D02*
X187972295Y-98131905D01*
X115562295Y-79533332D02*
X114762295Y-79533332D01*
X115028961Y-79914284D02*
X115562295Y-79914284D01*
X115105152Y-79914284D02*
X115067057Y-79952379D01*
X115067057Y-79952379D02*
X115028961Y-80028569D01*
X115028961Y-80028569D02*
X115028961Y-80142855D01*
X115028961Y-80142855D02*
X115067057Y-80219046D01*
X115067057Y-80219046D02*
X115143247Y-80257141D01*
X115143247Y-80257141D02*
X115562295Y-80257141D01*
X115562295Y-80980951D02*
X114762295Y-80980951D01*
X115524200Y-80980951D02*
X115562295Y-80904760D01*
X115562295Y-80904760D02*
X115562295Y-80752379D01*
X115562295Y-80752379D02*
X115524200Y-80676189D01*
X115524200Y-80676189D02*
X115486104Y-80638094D01*
X115486104Y-80638094D02*
X115409914Y-80599998D01*
X115409914Y-80599998D02*
X115181342Y-80599998D01*
X115181342Y-80599998D02*
X115105152Y-80638094D01*
X115105152Y-80638094D02*
X115067057Y-80676189D01*
X115067057Y-80676189D02*
X115028961Y-80752379D01*
X115028961Y-80752379D02*
X115028961Y-80904760D01*
X115028961Y-80904760D02*
X115067057Y-80980951D01*
X115562295Y-81971428D02*
X114762295Y-81971428D01*
X115067057Y-81971428D02*
X115028961Y-82047618D01*
X115028961Y-82047618D02*
X115028961Y-82199999D01*
X115028961Y-82199999D02*
X115067057Y-82276190D01*
X115067057Y-82276190D02*
X115105152Y-82314285D01*
X115105152Y-82314285D02*
X115181342Y-82352380D01*
X115181342Y-82352380D02*
X115409914Y-82352380D01*
X115409914Y-82352380D02*
X115486104Y-82314285D01*
X115486104Y-82314285D02*
X115524200Y-82276190D01*
X115524200Y-82276190D02*
X115562295Y-82199999D01*
X115562295Y-82199999D02*
X115562295Y-82047618D01*
X115562295Y-82047618D02*
X115524200Y-81971428D01*
X115028961Y-82619047D02*
X115562295Y-82809523D01*
X115028961Y-83000000D02*
X115562295Y-82809523D01*
X115562295Y-82809523D02*
X115752771Y-82733333D01*
X115752771Y-82733333D02*
X115790866Y-82695238D01*
X115790866Y-82695238D02*
X115828961Y-82619047D01*
X115028961Y-83304762D02*
X115828961Y-83304762D01*
X115067057Y-83304762D02*
X115028961Y-83380952D01*
X115028961Y-83380952D02*
X115028961Y-83533333D01*
X115028961Y-83533333D02*
X115067057Y-83609524D01*
X115067057Y-83609524D02*
X115105152Y-83647619D01*
X115105152Y-83647619D02*
X115181342Y-83685714D01*
X115181342Y-83685714D02*
X115409914Y-83685714D01*
X115409914Y-83685714D02*
X115486104Y-83647619D01*
X115486104Y-83647619D02*
X115524200Y-83609524D01*
X115524200Y-83609524D02*
X115562295Y-83533333D01*
X115562295Y-83533333D02*
X115562295Y-83380952D01*
X115562295Y-83380952D02*
X115524200Y-83304762D01*
X115562295Y-84371429D02*
X115143247Y-84371429D01*
X115143247Y-84371429D02*
X115067057Y-84333334D01*
X115067057Y-84333334D02*
X115028961Y-84257143D01*
X115028961Y-84257143D02*
X115028961Y-84104762D01*
X115028961Y-84104762D02*
X115067057Y-84028572D01*
X115524200Y-84371429D02*
X115562295Y-84295238D01*
X115562295Y-84295238D02*
X115562295Y-84104762D01*
X115562295Y-84104762D02*
X115524200Y-84028572D01*
X115524200Y-84028572D02*
X115448009Y-83990476D01*
X115448009Y-83990476D02*
X115371819Y-83990476D01*
X115371819Y-83990476D02*
X115295628Y-84028572D01*
X115295628Y-84028572D02*
X115257533Y-84104762D01*
X115257533Y-84104762D02*
X115257533Y-84295238D01*
X115257533Y-84295238D02*
X115219438Y-84371429D01*
X115524200Y-84714286D02*
X115562295Y-84790477D01*
X115562295Y-84790477D02*
X115562295Y-84942858D01*
X115562295Y-84942858D02*
X115524200Y-85019048D01*
X115524200Y-85019048D02*
X115448009Y-85057144D01*
X115448009Y-85057144D02*
X115409914Y-85057144D01*
X115409914Y-85057144D02*
X115333723Y-85019048D01*
X115333723Y-85019048D02*
X115295628Y-84942858D01*
X115295628Y-84942858D02*
X115295628Y-84828572D01*
X115295628Y-84828572D02*
X115257533Y-84752382D01*
X115257533Y-84752382D02*
X115181342Y-84714286D01*
X115181342Y-84714286D02*
X115143247Y-84714286D01*
X115143247Y-84714286D02*
X115067057Y-84752382D01*
X115067057Y-84752382D02*
X115028961Y-84828572D01*
X115028961Y-84828572D02*
X115028961Y-84942858D01*
X115028961Y-84942858D02*
X115067057Y-85019048D01*
X115524200Y-85361905D02*
X115562295Y-85438096D01*
X115562295Y-85438096D02*
X115562295Y-85590477D01*
X115562295Y-85590477D02*
X115524200Y-85666667D01*
X115524200Y-85666667D02*
X115448009Y-85704763D01*
X115448009Y-85704763D02*
X115409914Y-85704763D01*
X115409914Y-85704763D02*
X115333723Y-85666667D01*
X115333723Y-85666667D02*
X115295628Y-85590477D01*
X115295628Y-85590477D02*
X115295628Y-85476191D01*
X115295628Y-85476191D02*
X115257533Y-85400001D01*
X115257533Y-85400001D02*
X115181342Y-85361905D01*
X115181342Y-85361905D02*
X115143247Y-85361905D01*
X115143247Y-85361905D02*
X115067057Y-85400001D01*
X115067057Y-85400001D02*
X115028961Y-85476191D01*
X115028961Y-85476191D02*
X115028961Y-85590477D01*
X115028961Y-85590477D02*
X115067057Y-85666667D01*
G36*
X170392222Y-132219437D02*
G01*
X170358384Y-132186151D01*
X170314614Y-132153003D01*
X170282041Y-132135812D01*
X170244839Y-132125201D01*
X170201957Y-132121496D01*
X170149232Y-132126198D01*
X170103405Y-132139692D01*
X170062077Y-132161467D01*
X170027140Y-132189945D01*
X169998764Y-132224850D01*
X169977498Y-132266088D01*
X169964450Y-132311471D01*
X169959974Y-132361770D01*
X169959974Y-132817100D01*
X170119464Y-132817100D01*
X170119464Y-132391262D01*
X170123677Y-132349985D01*
X170138332Y-132313532D01*
X170150866Y-132299209D01*
X170168435Y-132287642D01*
X170189669Y-132280493D01*
X170218749Y-132277811D01*
X170241141Y-132280014D01*
X170264972Y-132286909D01*
X170311134Y-132310723D01*
X170354487Y-132342963D01*
X170392222Y-132377279D01*
X170392222Y-132817100D01*
X170551713Y-132817100D01*
X170551713Y-131742431D01*
X170392222Y-131742431D01*
X170392222Y-132219437D01*
G37*
G36*
X169359869Y-132702611D02*
G01*
X169414037Y-132754596D01*
X169461291Y-132788523D01*
X169510533Y-132810195D01*
X169558499Y-132817100D01*
X169594242Y-132814456D01*
X169627803Y-132806658D01*
X169659965Y-132792239D01*
X169695642Y-132767030D01*
X169730204Y-132729714D01*
X169759267Y-132676599D01*
X169777790Y-132617716D01*
X169783752Y-132561072D01*
X169783752Y-132266088D01*
X169877481Y-132266088D01*
X169877481Y-132133220D01*
X169783752Y-132133220D01*
X169783752Y-131999069D01*
X169627071Y-131922194D01*
X169627071Y-132133220D01*
X169403222Y-132133220D01*
X169403222Y-132266088D01*
X169627071Y-132266088D01*
X169627071Y-132530664D01*
X169622659Y-132571926D01*
X169610363Y-132604735D01*
X169590678Y-132630986D01*
X169565180Y-132644124D01*
X169527725Y-132649060D01*
X169508857Y-132646252D01*
X169480158Y-132636299D01*
X169448712Y-132617858D01*
X169418609Y-132590931D01*
X169359869Y-132702611D01*
G37*
G36*
X168796156Y-132702611D02*
G01*
X168850325Y-132754596D01*
X168897578Y-132788523D01*
X168946820Y-132810195D01*
X168994787Y-132817100D01*
X169030529Y-132814456D01*
X169064091Y-132806658D01*
X169096253Y-132792239D01*
X169131929Y-132767030D01*
X169166491Y-132729714D01*
X169195555Y-132676599D01*
X169214077Y-132617716D01*
X169220040Y-132561072D01*
X169220040Y-132266088D01*
X169313768Y-132266088D01*
X169313768Y-132133220D01*
X169220040Y-132133220D01*
X169220040Y-131999069D01*
X169063358Y-131922194D01*
X169063358Y-132133220D01*
X168839510Y-132133220D01*
X168839510Y-132266088D01*
X169063358Y-132266088D01*
X169063358Y-132530664D01*
X169058947Y-132571926D01*
X169046651Y-132604735D01*
X169026966Y-132630986D01*
X169001468Y-132644124D01*
X168964012Y-132649060D01*
X168945145Y-132646252D01*
X168916446Y-132636299D01*
X168885000Y-132617858D01*
X168854897Y-132590931D01*
X168796156Y-132702611D01*
G37*
G36*
X168402510Y-132121995D02*
G01*
X168446462Y-132135418D01*
X168487947Y-132156588D01*
X168526207Y-132184755D01*
X168526207Y-132133220D01*
X168685698Y-132133220D01*
X168685698Y-133086744D01*
X168526207Y-133086744D01*
X168526207Y-132750665D01*
X168484161Y-132783021D01*
X168440905Y-132807574D01*
X168395717Y-132823687D01*
X168352734Y-132828823D01*
X168294937Y-132822905D01*
X168238061Y-132804948D01*
X168185478Y-132775587D01*
X168138716Y-132734668D01*
X168100321Y-132683804D01*
X168069473Y-132620118D01*
X168050376Y-132548744D01*
X168044365Y-132473206D01*
X168203074Y-132473206D01*
X168206107Y-132513907D01*
X168214981Y-132551363D01*
X168229537Y-132585865D01*
X168248564Y-132614439D01*
X168272604Y-132638193D01*
X168301748Y-132656754D01*
X168334468Y-132668501D01*
X168370930Y-132672508D01*
X168414650Y-132667358D01*
X168456964Y-132651747D01*
X168494984Y-132627112D01*
X168526207Y-132595083D01*
X168526207Y-132355603D01*
X168494941Y-132322134D01*
X168456964Y-132296130D01*
X168414572Y-132279397D01*
X168370930Y-132273903D01*
X168334471Y-132277925D01*
X168301748Y-132289718D01*
X168272659Y-132308373D01*
X168248564Y-132332705D01*
X168229502Y-132361890D01*
X168214981Y-132396513D01*
X168206081Y-132433780D01*
X168203074Y-132473206D01*
X168044365Y-132473206D01*
X168043583Y-132463375D01*
X168050420Y-132388460D01*
X168070206Y-132322141D01*
X168101526Y-132262143D01*
X168140853Y-132212476D01*
X168188199Y-132171956D01*
X168241542Y-132142195D01*
X168299266Y-132123700D01*
X168358351Y-132117588D01*
X168402510Y-132121995D01*
G37*
G36*
X167630996Y-132828823D02*
G01*
X167710070Y-132823999D01*
X167779312Y-132808795D01*
X167845807Y-132781196D01*
X167916394Y-132739003D01*
X167861866Y-132613706D01*
X167800890Y-132650125D01*
X167750675Y-132673179D01*
X167698027Y-132686989D01*
X167630996Y-132692047D01*
X167593260Y-132689238D01*
X167542885Y-132677881D01*
X167519083Y-132667442D01*
X167498861Y-132653701D01*
X167484716Y-132635693D01*
X167479932Y-132612485D01*
X167484314Y-132593478D01*
X167497456Y-132579085D01*
X167516125Y-132568601D01*
X167538733Y-132560645D01*
X167586299Y-132552829D01*
X167624035Y-132551363D01*
X167718435Y-132545746D01*
X167771102Y-132536398D01*
X167820589Y-132519795D01*
X167865178Y-132494490D01*
X167902411Y-132459406D01*
X167920365Y-132430932D01*
X167931833Y-132394880D01*
X167935994Y-132349191D01*
X167932163Y-132302394D01*
X167921450Y-132263858D01*
X167904548Y-132232016D01*
X167869130Y-132191261D01*
X167826879Y-132161124D01*
X167778925Y-132139993D01*
X167726190Y-132126747D01*
X167672507Y-132119770D01*
X167625439Y-132117588D01*
X167561417Y-132121081D01*
X167508362Y-132130776D01*
X167464544Y-132145737D01*
X167403778Y-132180679D01*
X167347003Y-132231527D01*
X167405804Y-132338017D01*
X167456313Y-132304186D01*
X167507959Y-132279277D01*
X167563028Y-132263679D01*
X167625439Y-132258272D01*
X167670930Y-132259676D01*
X167724052Y-132268042D01*
X167748187Y-132277660D01*
X167768138Y-132292344D01*
X167781548Y-132312384D01*
X167786334Y-132340276D01*
X167781358Y-132359962D01*
X167766062Y-132375081D01*
X167744515Y-132385836D01*
X167718496Y-132393827D01*
X167663908Y-132401459D01*
X167624035Y-132402864D01*
X167531040Y-132410618D01*
X167479884Y-132421907D01*
X167432365Y-132440111D01*
X167389783Y-132466590D01*
X167354025Y-132502698D01*
X167336682Y-132531454D01*
X167325754Y-132566519D01*
X167321846Y-132609493D01*
X167325831Y-132653425D01*
X167336999Y-132689474D01*
X167354757Y-132719219D01*
X167391161Y-132757006D01*
X167434503Y-132785959D01*
X167482898Y-132806624D01*
X167535192Y-132819664D01*
X167587740Y-132826691D01*
X167630996Y-132828823D01*
G37*
G36*
X167016908Y-132722089D02*
G01*
X167023712Y-132760429D01*
X167044202Y-132793957D01*
X167064079Y-132811292D01*
X167086395Y-132821450D01*
X167112041Y-132824915D01*
X167137687Y-132821450D01*
X167160003Y-132811292D01*
X167179879Y-132793957D01*
X167200370Y-132760429D01*
X167207173Y-132722089D01*
X167200228Y-132681398D01*
X167179879Y-132648083D01*
X167160051Y-132631156D01*
X167137733Y-132621200D01*
X167112041Y-132617797D01*
X167086348Y-132621200D01*
X167064030Y-132631156D01*
X167044202Y-132648083D01*
X167023854Y-132681398D01*
X167016908Y-132722089D01*
G37*
G36*
X167016908Y-132229695D02*
G01*
X167023712Y-132268035D01*
X167044202Y-132301564D01*
X167064079Y-132318898D01*
X167086395Y-132329057D01*
X167112041Y-132332522D01*
X167137687Y-132329057D01*
X167160003Y-132318898D01*
X167179879Y-132301564D01*
X167200370Y-132268035D01*
X167207173Y-132229695D01*
X167200228Y-132189004D01*
X167179879Y-132155690D01*
X167160051Y-132138763D01*
X167137733Y-132128807D01*
X167112041Y-132125404D01*
X167086348Y-132128807D01*
X167064030Y-132138763D01*
X167044202Y-132155690D01*
X167023854Y-132189004D01*
X167016908Y-132229695D01*
G37*
G36*
X166807287Y-132910889D02*
G01*
X166919211Y-132910889D01*
X166433779Y-131742431D01*
X166321854Y-131742431D01*
X166807287Y-132910889D01*
G37*
G36*
X166182025Y-132910889D02*
G01*
X166293949Y-132910889D01*
X165808517Y-131742431D01*
X165696593Y-131742431D01*
X166182025Y-132910889D01*
G37*
G36*
X165387690Y-132123715D02*
G01*
X165444839Y-132142195D01*
X165497322Y-132172121D01*
X165543513Y-132213209D01*
X165581323Y-132263973D01*
X165612023Y-132327759D01*
X165631147Y-132398912D01*
X165637913Y-132483036D01*
X165631045Y-132559088D01*
X165611352Y-132625003D01*
X165580039Y-132684387D01*
X165540705Y-132733935D01*
X165493308Y-132774457D01*
X165439954Y-132804216D01*
X165382230Y-132822711D01*
X165323145Y-132828823D01*
X165279013Y-132824530D01*
X165235706Y-132811543D01*
X165194829Y-132790774D01*
X165156633Y-132762450D01*
X165156633Y-132805254D01*
X165160819Y-132837909D01*
X165172753Y-132864605D01*
X165190977Y-132887618D01*
X165213969Y-132907408D01*
X165243781Y-132924080D01*
X165279059Y-132936351D01*
X165315835Y-132943712D01*
X165349707Y-132946060D01*
X165398068Y-132942596D01*
X165444839Y-132932260D01*
X165487542Y-132915302D01*
X165517563Y-132895013D01*
X165570746Y-133011456D01*
X165526459Y-133046492D01*
X165472133Y-133074593D01*
X165412676Y-133092463D01*
X165349707Y-133098467D01*
X165302209Y-133095693D01*
X165244804Y-133086560D01*
X165187570Y-133070044D01*
X165132819Y-133043940D01*
X165096316Y-133017762D01*
X165063761Y-132984893D01*
X165034939Y-132944594D01*
X165013569Y-132900172D01*
X165000349Y-132849769D01*
X164995738Y-132792126D01*
X164995738Y-132352489D01*
X165155228Y-132352489D01*
X165155228Y-132589648D01*
X165186457Y-132623160D01*
X165224471Y-132649671D01*
X165267086Y-132666829D01*
X165311910Y-132672508D01*
X165348331Y-132668497D01*
X165380481Y-132656815D01*
X165408969Y-132638233D01*
X165432932Y-132613951D01*
X165451967Y-132584850D01*
X165466516Y-132550386D01*
X165475389Y-132513051D01*
X165478423Y-132472473D01*
X165475415Y-132433178D01*
X165466516Y-132396086D01*
X165451961Y-132361580D01*
X165432932Y-132332522D01*
X165408962Y-132308203D01*
X165380481Y-132289657D01*
X165348327Y-132277929D01*
X165311910Y-132273903D01*
X165266974Y-132279092D01*
X165224471Y-132294664D01*
X165186550Y-132319447D01*
X165155228Y-132352489D01*
X164995738Y-132352489D01*
X164995738Y-132133220D01*
X165155228Y-132133220D01*
X165155228Y-132195746D01*
X165197169Y-132163346D01*
X165239858Y-132138837D01*
X165284600Y-132122784D01*
X165328702Y-132117588D01*
X165387690Y-132123715D01*
G37*
G36*
X164818234Y-132817100D02*
G01*
X164818234Y-132133220D01*
X164658744Y-132133220D01*
X164658744Y-132817100D01*
X164818234Y-132817100D01*
G37*
G36*
X164646165Y-131935871D02*
G01*
X164653181Y-131977315D01*
X164673459Y-132010060D01*
X164703819Y-132032134D01*
X164739893Y-132039430D01*
X164773725Y-132032293D01*
X164804251Y-132010060D01*
X164825049Y-131977262D01*
X164832217Y-131935871D01*
X164825047Y-131894491D01*
X164804251Y-131861744D01*
X164773721Y-131839462D01*
X164739893Y-131832312D01*
X164703824Y-131839622D01*
X164673459Y-131861744D01*
X164653183Y-131894437D01*
X164646165Y-131935871D01*
G37*
G36*
X164050029Y-132702611D02*
G01*
X164104198Y-132754596D01*
X164151451Y-132788523D01*
X164200693Y-132810195D01*
X164248660Y-132817100D01*
X164284402Y-132814456D01*
X164317964Y-132806658D01*
X164350126Y-132792239D01*
X164385802Y-132767030D01*
X164420364Y-132729714D01*
X164449428Y-132676599D01*
X164467950Y-132617716D01*
X164473913Y-132561072D01*
X164473913Y-132266088D01*
X164567641Y-132266088D01*
X164567641Y-132133220D01*
X164473913Y-132133220D01*
X164473913Y-131999069D01*
X164317231Y-131922194D01*
X164317231Y-132133220D01*
X164093382Y-132133220D01*
X164093382Y-132266088D01*
X164317231Y-132266088D01*
X164317231Y-132530664D01*
X164312820Y-132571926D01*
X164300524Y-132604735D01*
X164280839Y-132630986D01*
X164255341Y-132644124D01*
X164217885Y-132649060D01*
X164199018Y-132646252D01*
X164170319Y-132636299D01*
X164138873Y-132617858D01*
X164108770Y-132590931D01*
X164050029Y-132702611D01*
G37*
G36*
X163780080Y-132219437D02*
G01*
X163746241Y-132186151D01*
X163702472Y-132153003D01*
X163669899Y-132135812D01*
X163632696Y-132125201D01*
X163589815Y-132121496D01*
X163537090Y-132126198D01*
X163491263Y-132139692D01*
X163449934Y-132161467D01*
X163414998Y-132189945D01*
X163386621Y-132224850D01*
X163365356Y-132266088D01*
X163352308Y-132311471D01*
X163347831Y-132361770D01*
X163347831Y-132817100D01*
X163507322Y-132817100D01*
X163507322Y-132391262D01*
X163511535Y-132349985D01*
X163526190Y-132313532D01*
X163538724Y-132299209D01*
X163556292Y-132287642D01*
X163577527Y-132280493D01*
X163606607Y-132277811D01*
X163628999Y-132280014D01*
X163652829Y-132286909D01*
X163698991Y-132310723D01*
X163742344Y-132342963D01*
X163780080Y-132377279D01*
X163780080Y-132817100D01*
X163939571Y-132817100D01*
X163939571Y-131742431D01*
X163780080Y-131742431D01*
X163780080Y-132219437D01*
G37*
G36*
X162772884Y-132742972D02*
G01*
X162806289Y-132773272D01*
X162847744Y-132802018D01*
X162894662Y-132821903D01*
X162950570Y-132828823D01*
X163003598Y-132824185D01*
X163051320Y-132810688D01*
X163094526Y-132788775D01*
X163130333Y-132760374D01*
X163159574Y-132725484D01*
X163182112Y-132684292D01*
X163196207Y-132638978D01*
X163200980Y-132589954D01*
X163200980Y-132133220D01*
X163042894Y-132133220D01*
X163042894Y-132557958D01*
X163038009Y-132599845D01*
X163021950Y-132636909D01*
X163008726Y-132651173D01*
X162990443Y-132662738D01*
X162968577Y-132669863D01*
X162939396Y-132672508D01*
X162918487Y-132670468D01*
X162896715Y-132664142D01*
X162853362Y-132643199D01*
X162810680Y-132614561D01*
X162772884Y-132581710D01*
X162772884Y-132133220D01*
X162611989Y-132133220D01*
X162611989Y-132817100D01*
X162754687Y-132817100D01*
X162772884Y-132744376D01*
X162772884Y-132742972D01*
G37*
G36*
X162470206Y-132817100D02*
G01*
X162310715Y-132817100D01*
X162310715Y-132750665D01*
X162268669Y-132783021D01*
X162225413Y-132807574D01*
X162180225Y-132823687D01*
X162137242Y-132828823D01*
X162079445Y-132822905D01*
X162022570Y-132804948D01*
X161969986Y-132775587D01*
X161923224Y-132734668D01*
X161884829Y-132683804D01*
X161853981Y-132620118D01*
X161834884Y-132548744D01*
X161828873Y-132473206D01*
X161987582Y-132473206D01*
X161990615Y-132513907D01*
X161999489Y-132551363D01*
X162014045Y-132585865D01*
X162033072Y-132614439D01*
X162057112Y-132638193D01*
X162086256Y-132656754D01*
X162118976Y-132668501D01*
X162155438Y-132672508D01*
X162199158Y-132667358D01*
X162241472Y-132651747D01*
X162279492Y-132627112D01*
X162310715Y-132595083D01*
X162310715Y-132355603D01*
X162279449Y-132322134D01*
X162241472Y-132296130D01*
X162199080Y-132279397D01*
X162155438Y-132273903D01*
X162118979Y-132277925D01*
X162086256Y-132289718D01*
X162057167Y-132308373D01*
X162033072Y-132332705D01*
X162014010Y-132361890D01*
X161999489Y-132396513D01*
X161990589Y-132433780D01*
X161987582Y-132473206D01*
X161828873Y-132473206D01*
X161828091Y-132463375D01*
X161834928Y-132388460D01*
X161854714Y-132322141D01*
X161886034Y-132262143D01*
X161925361Y-132212476D01*
X161972707Y-132171956D01*
X162026050Y-132142195D01*
X162083774Y-132123700D01*
X162142859Y-132117588D01*
X162187018Y-132121995D01*
X162230970Y-132135418D01*
X162272455Y-132156588D01*
X162310715Y-132184755D01*
X162310715Y-131742431D01*
X162470206Y-131742431D01*
X162470206Y-132817100D01*
G37*
G36*
X161505080Y-132722089D02*
G01*
X161511884Y-132760429D01*
X161532374Y-132793957D01*
X161552251Y-132811292D01*
X161574567Y-132821450D01*
X161600213Y-132824915D01*
X161625858Y-132821450D01*
X161648174Y-132811292D01*
X161668051Y-132793957D01*
X161688541Y-132760429D01*
X161695345Y-132722089D01*
X161688399Y-132681398D01*
X161668051Y-132648083D01*
X161648223Y-132631156D01*
X161625905Y-132621200D01*
X161600213Y-132617797D01*
X161574520Y-132621200D01*
X161552202Y-132631156D01*
X161532374Y-132648083D01*
X161512026Y-132681398D01*
X161505080Y-132722089D01*
G37*
G36*
X160741210Y-132735767D02*
G01*
X160791088Y-132771508D01*
X160858752Y-132802445D01*
X160933503Y-132822096D01*
X161015434Y-132828823D01*
X161078956Y-132823245D01*
X161141341Y-132806414D01*
X161199700Y-132778537D01*
X161251861Y-132739736D01*
X161295703Y-132690845D01*
X161330935Y-132630315D01*
X161347215Y-132585885D01*
X161357408Y-132535480D01*
X161360977Y-132478090D01*
X161357383Y-132417886D01*
X161347164Y-132365438D01*
X161330935Y-132319638D01*
X161295604Y-132257183D01*
X161251861Y-132207408D01*
X161199648Y-132168041D01*
X161141341Y-132140058D01*
X161078954Y-132123181D01*
X161015434Y-132117588D01*
X160930910Y-132124031D01*
X160856974Y-132142484D01*
X160791858Y-132172221D01*
X160734189Y-132213331D01*
X160787372Y-132343879D01*
X160824666Y-132321569D01*
X160879696Y-132296984D01*
X160941297Y-132279967D01*
X161015434Y-132273903D01*
X161054620Y-132278033D01*
X161089562Y-132290084D01*
X161120794Y-132309144D01*
X161146959Y-132333682D01*
X161168090Y-132363099D01*
X161184694Y-132397735D01*
X161195147Y-132435172D01*
X161198677Y-132475098D01*
X161195118Y-132513412D01*
X161184694Y-132548249D01*
X161168153Y-132580092D01*
X161146959Y-132607356D01*
X161120869Y-132629727D01*
X161089562Y-132646740D01*
X161054729Y-132657179D01*
X161015434Y-132660784D01*
X160953656Y-132657387D01*
X160897221Y-132647534D01*
X160844077Y-132629795D01*
X160795738Y-132603448D01*
X160741210Y-132735767D01*
G37*
G36*
X160362558Y-132127077D02*
G01*
X160427725Y-132143905D01*
X160488713Y-132171745D01*
X160542458Y-132210278D01*
X160587250Y-132259543D01*
X160622936Y-132322141D01*
X160639225Y-132368247D01*
X160649415Y-132420333D01*
X160652978Y-132479373D01*
X160649411Y-132536514D01*
X160639221Y-132586739D01*
X160622936Y-132631048D01*
X160587431Y-132691232D01*
X160542458Y-132740041D01*
X160488715Y-132778588D01*
X160427725Y-132806475D01*
X160362560Y-132823256D01*
X160296261Y-132828823D01*
X160228768Y-132823378D01*
X160164065Y-132807147D01*
X160103794Y-132779828D01*
X160050736Y-132741445D01*
X160006360Y-132692568D01*
X159970991Y-132631719D01*
X159954652Y-132586973D01*
X159944450Y-132536510D01*
X159940888Y-132479373D01*
X159941267Y-132473328D01*
X160103187Y-132473328D01*
X160106777Y-132514035D01*
X160117170Y-132550203D01*
X160134089Y-132582836D01*
X160156371Y-132610226D01*
X160183855Y-132632562D01*
X160217187Y-132650037D01*
X160254200Y-132660922D01*
X160296200Y-132664692D01*
X160338254Y-132660920D01*
X160375274Y-132650037D01*
X160408567Y-132632427D01*
X160436151Y-132609554D01*
X160458420Y-132581567D01*
X160475291Y-132548799D01*
X160485714Y-132512812D01*
X160489274Y-132473328D01*
X160485700Y-132432582D01*
X160475291Y-132395842D01*
X160458374Y-132362465D01*
X160436151Y-132334415D01*
X160408587Y-132311345D01*
X160375274Y-132293199D01*
X160338217Y-132281764D01*
X160296200Y-132277811D01*
X160254236Y-132281763D01*
X160217187Y-132293199D01*
X160183885Y-132311348D01*
X160156371Y-132334415D01*
X160134100Y-132362470D01*
X160117170Y-132395842D01*
X160106761Y-132432582D01*
X160103187Y-132473328D01*
X159941267Y-132473328D01*
X159944410Y-132423144D01*
X159954575Y-132372609D01*
X159970991Y-132326965D01*
X160006378Y-132264674D01*
X160050736Y-132214430D01*
X160103820Y-132174462D01*
X160164065Y-132145248D01*
X160228850Y-132127448D01*
X160296261Y-132121496D01*
X160362558Y-132127077D01*
G37*
G36*
X159266655Y-132237694D02*
G01*
X159229592Y-132197578D01*
X159184162Y-132160208D01*
X159129574Y-132132548D01*
X159099410Y-132124305D01*
X159066620Y-132121496D01*
X159013458Y-132126137D01*
X158965199Y-132139692D01*
X158921126Y-132161532D01*
X158884049Y-132189945D01*
X158853705Y-132224948D01*
X158830926Y-132266088D01*
X158816819Y-132311538D01*
X158811997Y-132361770D01*
X158811997Y-132817100D01*
X158971488Y-132817100D01*
X158971488Y-132391262D01*
X158976373Y-132349985D01*
X158983057Y-132330611D01*
X158993164Y-132313532D01*
X159006932Y-132299185D01*
X159025343Y-132287642D01*
X159047214Y-132280472D01*
X159076390Y-132277811D01*
X159115014Y-132283495D01*
X159156135Y-132301625D01*
X159195417Y-132326932D01*
X159231668Y-132354870D01*
X159231668Y-132817100D01*
X159391158Y-132817100D01*
X159391158Y-132391262D01*
X159396043Y-132349985D01*
X159402889Y-132330659D01*
X159413567Y-132313532D01*
X159427876Y-132299152D01*
X159446418Y-132287642D01*
X159468289Y-132280472D01*
X159497465Y-132277811D01*
X159537555Y-132284091D01*
X159581423Y-132304434D01*
X159623259Y-132332609D01*
X159661169Y-132363235D01*
X159661169Y-132817100D01*
X159820659Y-132817100D01*
X159820659Y-132133220D01*
X159661169Y-132133220D01*
X159661169Y-132210034D01*
X159627728Y-132178734D01*
X159586369Y-132149156D01*
X159539761Y-132128537D01*
X159486291Y-132121496D01*
X159437704Y-132125193D01*
X159394165Y-132135889D01*
X159354827Y-132153309D01*
X159319040Y-132177208D01*
X159289875Y-132205247D01*
X159266655Y-132237694D01*
G37*
G36*
X158603658Y-132910889D02*
G01*
X158715582Y-132910889D01*
X158230150Y-131742431D01*
X158118225Y-131742431D01*
X158603658Y-132910889D01*
G37*
G36*
X158010575Y-132817100D02*
G01*
X157656607Y-132817100D01*
X157585587Y-132812722D01*
X157520827Y-132800013D01*
X157461456Y-132779364D01*
X157405517Y-132750695D01*
X157356312Y-132716222D01*
X157313201Y-132675805D01*
X157276025Y-132629712D01*
X157244808Y-132578130D01*
X157219473Y-132520467D01*
X157201367Y-132459959D01*
X157190324Y-132395767D01*
X157186793Y-132331545D01*
X157361439Y-132331545D01*
X157367283Y-132397360D01*
X157384520Y-132458490D01*
X157412521Y-132514523D01*
X157449611Y-132562232D01*
X157495574Y-132601411D01*
X157551033Y-132631658D01*
X157612979Y-132650353D01*
X157684572Y-132656876D01*
X157831484Y-132656876D01*
X157830080Y-131996444D01*
X157680420Y-131996444D01*
X157622992Y-131999697D01*
X157574228Y-132008832D01*
X157532836Y-132023127D01*
X157476983Y-132054868D01*
X157434223Y-132094629D01*
X157401816Y-132143088D01*
X157378963Y-132201180D01*
X157365894Y-132264061D01*
X157361439Y-132331545D01*
X157186793Y-132331545D01*
X157186561Y-132327332D01*
X157194139Y-132232397D01*
X157216664Y-132141951D01*
X157239874Y-132084425D01*
X157268544Y-132032371D01*
X157302699Y-131985269D01*
X157342581Y-131943090D01*
X157387656Y-131907035D01*
X157438376Y-131876826D01*
X157492846Y-131854542D01*
X157552226Y-131840907D01*
X157617467Y-131836220D01*
X158010575Y-131836220D01*
X158010575Y-132817100D01*
G37*
G36*
X156570336Y-132840547D02*
G01*
X156620137Y-132837085D01*
X156672430Y-132826392D01*
X156727751Y-132807818D01*
X156780250Y-132782602D01*
X156830036Y-132750001D01*
X156877411Y-132709511D01*
X156919295Y-132663312D01*
X156956607Y-132609682D01*
X156989335Y-132547822D01*
X157013226Y-132482274D01*
X157028184Y-132407926D01*
X157033421Y-132323302D01*
X157028702Y-132245116D01*
X157015031Y-132174102D01*
X156992877Y-132109284D01*
X156962431Y-132047777D01*
X156926974Y-131993880D01*
X156886509Y-131946862D01*
X156840433Y-131905377D01*
X156791339Y-131871371D01*
X156738925Y-131844402D01*
X156683483Y-131824433D01*
X156628856Y-131812725D01*
X156574550Y-131808865D01*
X156510152Y-131812466D01*
X156452123Y-131822848D01*
X156396931Y-131839373D01*
X156346488Y-131860461D01*
X156299136Y-131886092D01*
X156256240Y-131914866D01*
X156216611Y-131946813D01*
X156181380Y-131980385D01*
X156259721Y-132126747D01*
X156321331Y-132072708D01*
X156354757Y-132048266D01*
X156391306Y-132026424D01*
X156430191Y-132008118D01*
X156472395Y-131993452D01*
X156517043Y-131984081D01*
X156567528Y-131980812D01*
X156621137Y-131986689D01*
X156673895Y-132004565D01*
X156722363Y-132033352D01*
X156765486Y-132073075D01*
X156800958Y-132121736D01*
X156829844Y-132182068D01*
X156847954Y-132249010D01*
X156854330Y-132327332D01*
X156848195Y-132403287D01*
X156830577Y-132469908D01*
X156802221Y-132530174D01*
X156766891Y-132578902D01*
X156723802Y-132618737D01*
X156675300Y-132648083D01*
X156622509Y-132666472D01*
X156568932Y-132672508D01*
X156518361Y-132669266D01*
X156473128Y-132659929D01*
X156430121Y-132645181D01*
X156389902Y-132626346D01*
X156317118Y-132578780D01*
X156254164Y-132524191D01*
X156165992Y-132651503D01*
X156188470Y-132679207D01*
X156221985Y-132712136D01*
X156261142Y-132742953D01*
X156310157Y-132773197D01*
X156364265Y-132798934D01*
X156427638Y-132821068D01*
X156495182Y-132835538D01*
X156570336Y-132840547D01*
G37*
G36*
X155848782Y-132124549D02*
G01*
X155919429Y-132141951D01*
X155979574Y-132164971D01*
X156003942Y-132178320D01*
X156018775Y-132190006D01*
X155990748Y-132293321D01*
X155946723Y-132275125D01*
X155894944Y-132256990D01*
X155840417Y-132243678D01*
X155787904Y-132238732D01*
X155718662Y-132244289D01*
X155687110Y-132253303D01*
X155657784Y-132269385D01*
X155639633Y-132287909D01*
X155629147Y-132313959D01*
X155622796Y-132362686D01*
X155622796Y-132378073D01*
X155698328Y-132366899D01*
X155785096Y-132359877D01*
X155840280Y-132363256D01*
X155892807Y-132373249D01*
X155942072Y-132390713D01*
X155984459Y-132415503D01*
X156020275Y-132448370D01*
X156048817Y-132490180D01*
X156066868Y-132538951D01*
X156073302Y-132599296D01*
X156066860Y-132651803D01*
X156048145Y-132697176D01*
X156019095Y-132736591D01*
X155982383Y-132768984D01*
X155939547Y-132794338D01*
X155890731Y-132813375D01*
X155839318Y-132824988D01*
X155787904Y-132828823D01*
X155737669Y-132826035D01*
X155695581Y-132818260D01*
X155656977Y-132803996D01*
X155622796Y-132782417D01*
X155607470Y-132767701D01*
X155593426Y-132751520D01*
X155579443Y-132773258D01*
X155564056Y-132789561D01*
X155538179Y-132806557D01*
X155506720Y-132817405D01*
X155443766Y-132824915D01*
X155420685Y-132822932D01*
X155400413Y-132817222D01*
X155380851Y-132807245D01*
X155356999Y-132789989D01*
X155387774Y-132693513D01*
X155409888Y-132700462D01*
X155427879Y-132698372D01*
X155443766Y-132687895D01*
X155455736Y-132670694D01*
X155460981Y-132650037D01*
X155618644Y-132650037D01*
X155647724Y-132671409D01*
X155684407Y-132688933D01*
X155726126Y-132699749D01*
X155780944Y-132703771D01*
X155821938Y-132700127D01*
X155853663Y-132690177D01*
X155878152Y-132674767D01*
X155896598Y-132653185D01*
X155908190Y-132624890D01*
X155912407Y-132587755D01*
X155908141Y-132552657D01*
X155896191Y-132524970D01*
X155876748Y-132502942D01*
X155851201Y-132487372D01*
X155816452Y-132477061D01*
X155769708Y-132473206D01*
X155692039Y-132479556D01*
X155622796Y-132491585D01*
X155621392Y-132610409D01*
X155621392Y-132630925D01*
X155618644Y-132650037D01*
X155460981Y-132650037D01*
X155461291Y-132648816D01*
X155463367Y-132597037D01*
X155463367Y-132365006D01*
X155468480Y-132302475D01*
X155482235Y-132255280D01*
X155497685Y-132228059D01*
X155521970Y-132199983D01*
X155557095Y-132170711D01*
X155582020Y-132154489D01*
X155609546Y-132142073D01*
X155667615Y-132126014D01*
X155725684Y-132118992D01*
X155776730Y-132117588D01*
X155848782Y-132124549D01*
G37*
G36*
X155224375Y-132817100D02*
G01*
X155224375Y-132133220D01*
X155064885Y-132133220D01*
X155064885Y-132817100D01*
X155224375Y-132817100D01*
G37*
G36*
X155052306Y-131935871D02*
G01*
X155059322Y-131977315D01*
X155079600Y-132010060D01*
X155109960Y-132032134D01*
X155146034Y-132039430D01*
X155179866Y-132032293D01*
X155210392Y-132010060D01*
X155231190Y-131977262D01*
X155238358Y-131935871D01*
X155231188Y-131894491D01*
X155210392Y-131861744D01*
X155179862Y-131839462D01*
X155146034Y-131832312D01*
X155109965Y-131839622D01*
X155079600Y-131861744D01*
X155059324Y-131894437D01*
X155052306Y-131935871D01*
G37*
G36*
X154641413Y-132127077D02*
G01*
X154706580Y-132143905D01*
X154767569Y-132171745D01*
X154821313Y-132210278D01*
X154866106Y-132259543D01*
X154901791Y-132322141D01*
X154918081Y-132368247D01*
X154928271Y-132420333D01*
X154931833Y-132479373D01*
X154928267Y-132536514D01*
X154918077Y-132586739D01*
X154901791Y-132631048D01*
X154866286Y-132691232D01*
X154821313Y-132740041D01*
X154767571Y-132778588D01*
X154706580Y-132806475D01*
X154641416Y-132823256D01*
X154575117Y-132828823D01*
X154507623Y-132823378D01*
X154442920Y-132807147D01*
X154382650Y-132779828D01*
X154329592Y-132741445D01*
X154285216Y-132692568D01*
X154249846Y-132631719D01*
X154233507Y-132586973D01*
X154223306Y-132536510D01*
X154219743Y-132479373D01*
X154220122Y-132473328D01*
X154382043Y-132473328D01*
X154385633Y-132514035D01*
X154396026Y-132550203D01*
X154412944Y-132582836D01*
X154435227Y-132610226D01*
X154462711Y-132632562D01*
X154496043Y-132650037D01*
X154533055Y-132660922D01*
X154575056Y-132664692D01*
X154617109Y-132660920D01*
X154654129Y-132650037D01*
X154687422Y-132632427D01*
X154715007Y-132609554D01*
X154737276Y-132581567D01*
X154754147Y-132548799D01*
X154764570Y-132512812D01*
X154768130Y-132473328D01*
X154764556Y-132432582D01*
X154754147Y-132395842D01*
X154737230Y-132362465D01*
X154715007Y-132334415D01*
X154687443Y-132311345D01*
X154654129Y-132293199D01*
X154617073Y-132281764D01*
X154575056Y-132277811D01*
X154533092Y-132281763D01*
X154496043Y-132293199D01*
X154462740Y-132311348D01*
X154435227Y-132334415D01*
X154412955Y-132362470D01*
X154396026Y-132395842D01*
X154385617Y-132432582D01*
X154382043Y-132473328D01*
X154220122Y-132473328D01*
X154223266Y-132423144D01*
X154233430Y-132372609D01*
X154249846Y-132326965D01*
X154285233Y-132264674D01*
X154329592Y-132214430D01*
X154382676Y-132174462D01*
X154442920Y-132145248D01*
X154507705Y-132127448D01*
X154575117Y-132121496D01*
X154641413Y-132127077D01*
G37*
G36*
X154063184Y-132817100D02*
G01*
X153882688Y-132817100D01*
X153882688Y-132524008D01*
X153656031Y-132524008D01*
X153586494Y-132518123D01*
X153523163Y-132500927D01*
X153465219Y-132472568D01*
X153415452Y-132434371D01*
X153374529Y-132386552D01*
X153342728Y-132327942D01*
X153323019Y-132262038D01*
X153316194Y-132185976D01*
X153496540Y-132185976D01*
X153500258Y-132221159D01*
X153511256Y-132253570D01*
X153528582Y-132282860D01*
X153551128Y-132307914D01*
X153578208Y-132328167D01*
X153609869Y-132343452D01*
X153644276Y-132352799D01*
X153681249Y-132355969D01*
X153882688Y-132355969D01*
X153882688Y-132015983D01*
X153658840Y-132015983D01*
X153622462Y-132018696D01*
X153591001Y-132029233D01*
X153563067Y-132046377D01*
X153539954Y-132068251D01*
X153521435Y-132094140D01*
X153507775Y-132123267D01*
X153499337Y-132154339D01*
X153496540Y-132185976D01*
X153316194Y-132185976D01*
X153316106Y-132184999D01*
X153323198Y-132105309D01*
X153343400Y-132037232D01*
X153376118Y-131976641D01*
X153418260Y-131927262D01*
X153469398Y-131887944D01*
X153528109Y-131859362D01*
X153592022Y-131842107D01*
X153661648Y-131836220D01*
X154063184Y-131836220D01*
X154063184Y-132817100D01*
G37*
G36*
X153116010Y-132910889D02*
G01*
X153227934Y-132910889D01*
X152742501Y-131742431D01*
X152630577Y-131742431D01*
X153116010Y-132910889D01*
G37*
G36*
X152327777Y-132124549D02*
G01*
X152398424Y-132141951D01*
X152458569Y-132164971D01*
X152482937Y-132178320D01*
X152497770Y-132190006D01*
X152469743Y-132293321D01*
X152425719Y-132275125D01*
X152373939Y-132256990D01*
X152319412Y-132243678D01*
X152266900Y-132238732D01*
X152197657Y-132244289D01*
X152166105Y-132253303D01*
X152136779Y-132269385D01*
X152118629Y-132287909D01*
X152108142Y-132313959D01*
X152101791Y-132362686D01*
X152101791Y-132378073D01*
X152177324Y-132366899D01*
X152264091Y-132359877D01*
X152319275Y-132363256D01*
X152371802Y-132373249D01*
X152421067Y-132390713D01*
X152463454Y-132415503D01*
X152499270Y-132448370D01*
X152527812Y-132490180D01*
X152545863Y-132538951D01*
X152552297Y-132599296D01*
X152545855Y-132651803D01*
X152527140Y-132697176D01*
X152498090Y-132736591D01*
X152461378Y-132768984D01*
X152418542Y-132794338D01*
X152369726Y-132813375D01*
X152318313Y-132824988D01*
X152266900Y-132828823D01*
X152216664Y-132826035D01*
X152174576Y-132818260D01*
X152135972Y-132803996D01*
X152101791Y-132782417D01*
X152086465Y-132767701D01*
X152072421Y-132751520D01*
X152058438Y-132773258D01*
X152043051Y-132789561D01*
X152017174Y-132806557D01*
X151985715Y-132817405D01*
X151922761Y-132824915D01*
X151899680Y-132822932D01*
X151879408Y-132817222D01*
X151859846Y-132807245D01*
X151835994Y-132789989D01*
X151866769Y-132693513D01*
X151888883Y-132700462D01*
X151906874Y-132698372D01*
X151922761Y-132687895D01*
X151934731Y-132670694D01*
X151939976Y-132650037D01*
X152097639Y-132650037D01*
X152126719Y-132671409D01*
X152163402Y-132688933D01*
X152205121Y-132699749D01*
X152259939Y-132703771D01*
X152300933Y-132700127D01*
X152332658Y-132690177D01*
X152357147Y-132674767D01*
X152375593Y-132653185D01*
X152387186Y-132624890D01*
X152391402Y-132587755D01*
X152387136Y-132552657D01*
X152375186Y-132524970D01*
X152355743Y-132502942D01*
X152330196Y-132487372D01*
X152295447Y-132477061D01*
X152248704Y-132473206D01*
X152171034Y-132479556D01*
X152101791Y-132491585D01*
X152100387Y-132610409D01*
X152100387Y-132630925D01*
X152097639Y-132650037D01*
X151939976Y-132650037D01*
X151940286Y-132648816D01*
X151942362Y-132597037D01*
X151942362Y-132365006D01*
X151947475Y-132302475D01*
X151961230Y-132255280D01*
X151976680Y-132228059D01*
X152000965Y-132199983D01*
X152036090Y-132170711D01*
X152061015Y-132154489D01*
X152088541Y-132142073D01*
X152146610Y-132126014D01*
X152204679Y-132118992D01*
X152255725Y-132117588D01*
X152327777Y-132124549D01*
G37*
G36*
X151521591Y-132123164D02*
G01*
X151582409Y-132140119D01*
X151639460Y-132167958D01*
X151690853Y-132206859D01*
X151733814Y-132256125D01*
X151768461Y-132318600D01*
X151784355Y-132364475D01*
X151794333Y-132416609D01*
X151797831Y-132476014D01*
X151794192Y-132533449D01*
X151783768Y-132584193D01*
X151767057Y-132629216D01*
X151731260Y-132690508D01*
X151687372Y-132739552D01*
X151635209Y-132778416D01*
X151576852Y-132806353D01*
X151514599Y-132823261D01*
X151452289Y-132828823D01*
X151370467Y-132821862D01*
X151292126Y-132802384D01*
X151224227Y-132772525D01*
X151195824Y-132753662D01*
X151175256Y-132734301D01*
X151235462Y-132633856D01*
X151282152Y-132659469D01*
X151331999Y-132674462D01*
X151385187Y-132681673D01*
X151446671Y-132684231D01*
X151483563Y-132680614D01*
X151518051Y-132669882D01*
X151549827Y-132653315D01*
X151576791Y-132633185D01*
X151599534Y-132609402D01*
X151616664Y-132583603D01*
X151627923Y-132556189D01*
X151631380Y-132531824D01*
X151144482Y-132531824D01*
X151143077Y-132449941D01*
X151147761Y-132406772D01*
X151297011Y-132406772D01*
X151624358Y-132406772D01*
X151610254Y-132360662D01*
X151590367Y-132323777D01*
X151564946Y-132294542D01*
X151533650Y-132272159D01*
X151499242Y-132258888D01*
X151460654Y-132254364D01*
X151408065Y-132259003D01*
X151371872Y-132271034D01*
X151342290Y-132290130D01*
X151322168Y-132311883D01*
X151308406Y-132336959D01*
X151301224Y-132362441D01*
X151297011Y-132406772D01*
X151147761Y-132406772D01*
X151151504Y-132372272D01*
X151165656Y-132319284D01*
X151185087Y-132271522D01*
X151211317Y-132228310D01*
X151245232Y-132191105D01*
X151286292Y-132160815D01*
X151336212Y-132137188D01*
X151392050Y-132122782D01*
X151460654Y-132117588D01*
X151521591Y-132123164D01*
G37*
G36*
X150750136Y-132127077D02*
G01*
X150815303Y-132143905D01*
X150876292Y-132171745D01*
X150930036Y-132210278D01*
X150974829Y-132259543D01*
X151010514Y-132322141D01*
X151026804Y-132368247D01*
X151036994Y-132420333D01*
X151040556Y-132479373D01*
X151036990Y-132536514D01*
X151026800Y-132586739D01*
X151010514Y-132631048D01*
X150975009Y-132691232D01*
X150930036Y-132740041D01*
X150876294Y-132778588D01*
X150815303Y-132806475D01*
X150750139Y-132823256D01*
X150683840Y-132828823D01*
X150616346Y-132823378D01*
X150551643Y-132807147D01*
X150491373Y-132779828D01*
X150438314Y-132741445D01*
X150393939Y-132692568D01*
X150358569Y-132631719D01*
X150342230Y-132586973D01*
X150332029Y-132536510D01*
X150328466Y-132479373D01*
X150328845Y-132473328D01*
X150490766Y-132473328D01*
X150494356Y-132514035D01*
X150504749Y-132550203D01*
X150521667Y-132582836D01*
X150543949Y-132610226D01*
X150571434Y-132632562D01*
X150604766Y-132650037D01*
X150641778Y-132660922D01*
X150683779Y-132664692D01*
X150725832Y-132660920D01*
X150762852Y-132650037D01*
X150796145Y-132632427D01*
X150823730Y-132609554D01*
X150845999Y-132581567D01*
X150862870Y-132548799D01*
X150873293Y-132512812D01*
X150876852Y-132473328D01*
X150873279Y-132432582D01*
X150862870Y-132395842D01*
X150845953Y-132362465D01*
X150823730Y-132334415D01*
X150796166Y-132311345D01*
X150762852Y-132293199D01*
X150725796Y-132281764D01*
X150683779Y-132277811D01*
X150641815Y-132281763D01*
X150604766Y-132293199D01*
X150571463Y-132311348D01*
X150543949Y-132334415D01*
X150521678Y-132362470D01*
X150504749Y-132395842D01*
X150494340Y-132432582D01*
X150490766Y-132473328D01*
X150328845Y-132473328D01*
X150331989Y-132423144D01*
X150342153Y-132372609D01*
X150358569Y-132326965D01*
X150393956Y-132264674D01*
X150438314Y-132214430D01*
X150491399Y-132174462D01*
X150551643Y-132145248D01*
X150616428Y-132127448D01*
X150683840Y-132121496D01*
X150750136Y-132127077D01*
G37*
G36*
X150048747Y-132212782D02*
G01*
X150015896Y-132180297D01*
X149975291Y-132151232D01*
X149927053Y-132129800D01*
X149899574Y-132123646D01*
X149868313Y-132121496D01*
X149815049Y-132126122D01*
X149766158Y-132139692D01*
X149721517Y-132161571D01*
X149684337Y-132189945D01*
X149653795Y-132224927D01*
X149630481Y-132266088D01*
X149615867Y-132311570D01*
X149610881Y-132361770D01*
X149610881Y-132817100D01*
X149768967Y-132817100D01*
X149768967Y-132396880D01*
X149774585Y-132354198D01*
X149781984Y-132333544D01*
X149792781Y-132315669D01*
X149807237Y-132300591D01*
X149826364Y-132288314D01*
X149848863Y-132280624D01*
X149878082Y-132277811D01*
X149900376Y-132280029D01*
X149923573Y-132286909D01*
X149969063Y-132310051D01*
X150011683Y-132340887D01*
X150048747Y-132374470D01*
X150048747Y-132817100D01*
X150208238Y-132817100D01*
X150208238Y-132133220D01*
X150048747Y-132133220D01*
X150048747Y-132212782D01*
G37*
G36*
X149500361Y-132430219D02*
G01*
X149500361Y-132273903D01*
X149131005Y-132273903D01*
X149131005Y-132430219D01*
X149500361Y-132430219D01*
G37*
G36*
X149031964Y-132817100D02*
G01*
X149031964Y-131742431D01*
X148872474Y-131742431D01*
X148872474Y-132370746D01*
X148869726Y-132370746D01*
X148640260Y-132133220D01*
X148470999Y-132133220D01*
X148470999Y-132147202D01*
X148693444Y-132378867D01*
X148462573Y-132803117D01*
X148462573Y-132817100D01*
X148629086Y-132817100D01*
X148812329Y-132492440D01*
X148872474Y-132551241D01*
X148872474Y-132817100D01*
X149031964Y-132817100D01*
G37*
G36*
X148141270Y-132123164D02*
G01*
X148202088Y-132140119D01*
X148259139Y-132167958D01*
X148310532Y-132206859D01*
X148353493Y-132256125D01*
X148388140Y-132318600D01*
X148404034Y-132364475D01*
X148414012Y-132416609D01*
X148417510Y-132476014D01*
X148413871Y-132533449D01*
X148403447Y-132584193D01*
X148386736Y-132629216D01*
X148350939Y-132690508D01*
X148307051Y-132739552D01*
X148254888Y-132778416D01*
X148196531Y-132806353D01*
X148134278Y-132823261D01*
X148071968Y-132828823D01*
X147990146Y-132821862D01*
X147911805Y-132802384D01*
X147843906Y-132772525D01*
X147815503Y-132753662D01*
X147794935Y-132734301D01*
X147855141Y-132633856D01*
X147901831Y-132659469D01*
X147951678Y-132674462D01*
X148004866Y-132681673D01*
X148066350Y-132684231D01*
X148103242Y-132680614D01*
X148137730Y-132669882D01*
X148169506Y-132653315D01*
X148196470Y-132633185D01*
X148219213Y-132609402D01*
X148236343Y-132583603D01*
X148247602Y-132556189D01*
X148251059Y-132531824D01*
X147764161Y-132531824D01*
X147762756Y-132449941D01*
X147767440Y-132406772D01*
X147916690Y-132406772D01*
X148244037Y-132406772D01*
X148229933Y-132360662D01*
X148210046Y-132323777D01*
X148184625Y-132294542D01*
X148153329Y-132272159D01*
X148118921Y-132258888D01*
X148080333Y-132254364D01*
X148027744Y-132259003D01*
X147991551Y-132271034D01*
X147961969Y-132290130D01*
X147941847Y-132311883D01*
X147928085Y-132336959D01*
X147920903Y-132362441D01*
X147916690Y-132406772D01*
X147767440Y-132406772D01*
X147771183Y-132372272D01*
X147785335Y-132319284D01*
X147804766Y-132271522D01*
X147830996Y-132228310D01*
X147864911Y-132191105D01*
X147905971Y-132160815D01*
X147955891Y-132137188D01*
X148011729Y-132122782D01*
X148080333Y-132117588D01*
X148141270Y-132123164D01*
G37*
G36*
X147308159Y-132961447D02*
G01*
X147328656Y-132999924D01*
X147355054Y-133029285D01*
X147386969Y-133052160D01*
X147422892Y-133069158D01*
X147461330Y-133080505D01*
X147501233Y-133086621D01*
X147578170Y-133087354D01*
X147655106Y-133080393D01*
X147635567Y-132929268D01*
X147564187Y-132936290D01*
X147538297Y-132936962D01*
X147498424Y-132932077D01*
X147457147Y-132913148D01*
X147439889Y-132896747D01*
X147427105Y-132871932D01*
X147392118Y-132776799D01*
X147695712Y-132150011D01*
X147695712Y-132133220D01*
X147527795Y-132133220D01*
X147317929Y-132564125D01*
X147152882Y-132133220D01*
X146989178Y-132133220D01*
X146989178Y-132150011D01*
X147308159Y-132961447D01*
G37*
G36*
X146879696Y-132817100D02*
G01*
X146720206Y-132817100D01*
X146720206Y-132750665D01*
X146678160Y-132783021D01*
X146634904Y-132807574D01*
X146589716Y-132823687D01*
X146546732Y-132828823D01*
X146488935Y-132822905D01*
X146432060Y-132804948D01*
X146379477Y-132775587D01*
X146332714Y-132734668D01*
X146294320Y-132683804D01*
X146263471Y-132620118D01*
X146244375Y-132548744D01*
X146238364Y-132473206D01*
X146397072Y-132473206D01*
X146400106Y-132513907D01*
X146408979Y-132551363D01*
X146423536Y-132585865D01*
X146442563Y-132614439D01*
X146466602Y-132638193D01*
X146495746Y-132656754D01*
X146528466Y-132668501D01*
X146564928Y-132672508D01*
X146608648Y-132667358D01*
X146650963Y-132651747D01*
X146688983Y-132627112D01*
X146720206Y-132595083D01*
X146720206Y-132355603D01*
X146688939Y-132322134D01*
X146650963Y-132296130D01*
X146608571Y-132279397D01*
X146564928Y-132273903D01*
X146528470Y-132277925D01*
X146495746Y-132289718D01*
X146466658Y-132308373D01*
X146442563Y-132332705D01*
X146423501Y-132361890D01*
X146408979Y-132396513D01*
X146400079Y-132433780D01*
X146397072Y-132473206D01*
X146238364Y-132473206D01*
X146237582Y-132463375D01*
X146244419Y-132388460D01*
X146264204Y-132322141D01*
X146295525Y-132262143D01*
X146334851Y-132212476D01*
X146382198Y-132171956D01*
X146435541Y-132142195D01*
X146493265Y-132123700D01*
X146552350Y-132117588D01*
X146596509Y-132121995D01*
X146640460Y-132135418D01*
X146681946Y-132156588D01*
X146720206Y-132184755D01*
X146720206Y-131742431D01*
X146879696Y-131742431D01*
X146879696Y-132817100D01*
G37*
G36*
X145843786Y-132127077D02*
G01*
X145908953Y-132143905D01*
X145969941Y-132171745D01*
X146023686Y-132210278D01*
X146068478Y-132259543D01*
X146104164Y-132322141D01*
X146120453Y-132368247D01*
X146130643Y-132420333D01*
X146134206Y-132479373D01*
X146130640Y-132536514D01*
X146120449Y-132586739D01*
X146104164Y-132631048D01*
X146068659Y-132691232D01*
X146023686Y-132740041D01*
X145969943Y-132778588D01*
X145908953Y-132806475D01*
X145843788Y-132823256D01*
X145777489Y-132828823D01*
X145709996Y-132823378D01*
X145645293Y-132807147D01*
X145585023Y-132779828D01*
X145531964Y-132741445D01*
X145487589Y-132692568D01*
X145452219Y-132631719D01*
X145435880Y-132586973D01*
X145425679Y-132536510D01*
X145422116Y-132479373D01*
X145422495Y-132473328D01*
X145584415Y-132473328D01*
X145588005Y-132514035D01*
X145598398Y-132550203D01*
X145615317Y-132582836D01*
X145637599Y-132610226D01*
X145665084Y-132632562D01*
X145698416Y-132650037D01*
X145735428Y-132660922D01*
X145777428Y-132664692D01*
X145819482Y-132660920D01*
X145856502Y-132650037D01*
X145889795Y-132632427D01*
X145917379Y-132609554D01*
X145939648Y-132581567D01*
X145956519Y-132548799D01*
X145966942Y-132512812D01*
X145970502Y-132473328D01*
X145966928Y-132432582D01*
X145956519Y-132395842D01*
X145939602Y-132362465D01*
X145917379Y-132334415D01*
X145889815Y-132311345D01*
X145856502Y-132293199D01*
X145819445Y-132281764D01*
X145777428Y-132277811D01*
X145735464Y-132281763D01*
X145698416Y-132293199D01*
X145665113Y-132311348D01*
X145637599Y-132334415D01*
X145615328Y-132362470D01*
X145598398Y-132395842D01*
X145587989Y-132432582D01*
X145584415Y-132473328D01*
X145422495Y-132473328D01*
X145425638Y-132423144D01*
X145435803Y-132372609D01*
X145452219Y-132326965D01*
X145487606Y-132264674D01*
X145531964Y-132214430D01*
X145585049Y-132174462D01*
X145645293Y-132145248D01*
X145710078Y-132127448D01*
X145777489Y-132121496D01*
X145843786Y-132127077D01*
G37*
G36*
X145102097Y-132124549D02*
G01*
X145172744Y-132141951D01*
X145232889Y-132164971D01*
X145257257Y-132178320D01*
X145272090Y-132190006D01*
X145244063Y-132293321D01*
X145200038Y-132275125D01*
X145148259Y-132256990D01*
X145093731Y-132243678D01*
X145041219Y-132238732D01*
X144971976Y-132244289D01*
X144940425Y-132253303D01*
X144911099Y-132269385D01*
X144892948Y-132287909D01*
X144882461Y-132313959D01*
X144876111Y-132362686D01*
X144876111Y-132378073D01*
X144951643Y-132366899D01*
X145038410Y-132359877D01*
X145093595Y-132363256D01*
X145146122Y-132373249D01*
X145195387Y-132390713D01*
X145237774Y-132415503D01*
X145273589Y-132448370D01*
X145302132Y-132490180D01*
X145320182Y-132538951D01*
X145326617Y-132599296D01*
X145320175Y-132651803D01*
X145301460Y-132697176D01*
X145272410Y-132736591D01*
X145235698Y-132768984D01*
X145192862Y-132794338D01*
X145144045Y-132813375D01*
X145092633Y-132824988D01*
X145041219Y-132828823D01*
X144990984Y-132826035D01*
X144948895Y-132818260D01*
X144910292Y-132803996D01*
X144876111Y-132782417D01*
X144860785Y-132767701D01*
X144846741Y-132751520D01*
X144832758Y-132773258D01*
X144817371Y-132789561D01*
X144791493Y-132806557D01*
X144760035Y-132817405D01*
X144697081Y-132824915D01*
X144674000Y-132822932D01*
X144653728Y-132817222D01*
X144634165Y-132807245D01*
X144610314Y-132789989D01*
X144641088Y-132693513D01*
X144663203Y-132700462D01*
X144681194Y-132698372D01*
X144697081Y-132687895D01*
X144709051Y-132670694D01*
X144714295Y-132650037D01*
X144871959Y-132650037D01*
X144901039Y-132671409D01*
X144937721Y-132688933D01*
X144979441Y-132699749D01*
X145034258Y-132703771D01*
X145075253Y-132700127D01*
X145106978Y-132690177D01*
X145131467Y-132674767D01*
X145149912Y-132653185D01*
X145161505Y-132624890D01*
X145165722Y-132587755D01*
X145161455Y-132552657D01*
X145149506Y-132524970D01*
X145130063Y-132502942D01*
X145104516Y-132487372D01*
X145069767Y-132477061D01*
X145023023Y-132473206D01*
X144945354Y-132479556D01*
X144876111Y-132491585D01*
X144874707Y-132610409D01*
X144874707Y-132630925D01*
X144871959Y-132650037D01*
X144714295Y-132650037D01*
X144714605Y-132648816D01*
X144716682Y-132597037D01*
X144716682Y-132365006D01*
X144721795Y-132302475D01*
X144735549Y-132255280D01*
X144750999Y-132228059D01*
X144775285Y-132199983D01*
X144810410Y-132170711D01*
X144835334Y-132154489D01*
X144862861Y-132142073D01*
X144920930Y-132126014D01*
X144978998Y-132118992D01*
X145030045Y-132117588D01*
X145102097Y-132124549D01*
G37*
G36*
X144090199Y-132320859D02*
G01*
X144115922Y-132299691D01*
X144148762Y-132286481D01*
X144190888Y-132281719D01*
X144213055Y-132284124D01*
X144235706Y-132291550D01*
X144277655Y-132317379D01*
X144314719Y-132352305D01*
X144346165Y-132389369D01*
X144346165Y-132817100D01*
X144505656Y-132817100D01*
X144505656Y-132133220D01*
X144346165Y-132133220D01*
X144346165Y-132213820D01*
X144311170Y-132179212D01*
X144268557Y-132147325D01*
X144222141Y-132124661D01*
X144178309Y-132117588D01*
X144145770Y-132119949D01*
X144109799Y-132127419D01*
X144074108Y-132139862D01*
X144038419Y-132158254D01*
X144090199Y-132320859D01*
G37*
G36*
X143453763Y-132195746D02*
G01*
X143495703Y-132163346D01*
X143538393Y-132138837D01*
X143583134Y-132122784D01*
X143627236Y-132117588D01*
X143686225Y-132123715D01*
X143743374Y-132142195D01*
X143795856Y-132172121D01*
X143842048Y-132213209D01*
X143879857Y-132263973D01*
X143910558Y-132327759D01*
X143929682Y-132398912D01*
X143936448Y-132483036D01*
X143929580Y-132559088D01*
X143909886Y-132625003D01*
X143878574Y-132684387D01*
X143839239Y-132733935D01*
X143791843Y-132774457D01*
X143738489Y-132804216D01*
X143680765Y-132822711D01*
X143621680Y-132828823D01*
X143576360Y-132824336D01*
X143532836Y-132810871D01*
X143491930Y-132789536D01*
X143453763Y-132761046D01*
X143439780Y-132817100D01*
X143294272Y-132817100D01*
X143294272Y-132352489D01*
X143453763Y-132352489D01*
X143453763Y-132589648D01*
X143484992Y-132623160D01*
X143523006Y-132649671D01*
X143565620Y-132666829D01*
X143610445Y-132672508D01*
X143646865Y-132668497D01*
X143679016Y-132656815D01*
X143707503Y-132638233D01*
X143731467Y-132613951D01*
X143750502Y-132584850D01*
X143765050Y-132550386D01*
X143773924Y-132513051D01*
X143776957Y-132472473D01*
X143773949Y-132433178D01*
X143765050Y-132396086D01*
X143750496Y-132361580D01*
X143731467Y-132332522D01*
X143707496Y-132308203D01*
X143679016Y-132289657D01*
X143646862Y-132277929D01*
X143610445Y-132273903D01*
X143565509Y-132279092D01*
X143523006Y-132294664D01*
X143485084Y-132319447D01*
X143453763Y-132352489D01*
X143294272Y-132352489D01*
X143294272Y-131742431D01*
X143453763Y-131742431D01*
X143453763Y-132195746D01*
G37*
X98172604Y-80662295D02*
X98439271Y-80281342D01*
X98629747Y-80662295D02*
X98629747Y-79862295D01*
X98629747Y-79862295D02*
X98324985Y-79862295D01*
X98324985Y-79862295D02*
X98248795Y-79900390D01*
X98248795Y-79900390D02*
X98210700Y-79938485D01*
X98210700Y-79938485D02*
X98172604Y-80014676D01*
X98172604Y-80014676D02*
X98172604Y-80128961D01*
X98172604Y-80128961D02*
X98210700Y-80205152D01*
X98210700Y-80205152D02*
X98248795Y-80243247D01*
X98248795Y-80243247D02*
X98324985Y-80281342D01*
X98324985Y-80281342D02*
X98629747Y-80281342D01*
X97410700Y-80662295D02*
X97867843Y-80662295D01*
X97639271Y-80662295D02*
X97639271Y-79862295D01*
X97639271Y-79862295D02*
X97715462Y-79976580D01*
X97715462Y-79976580D02*
X97791652Y-80052771D01*
X97791652Y-80052771D02*
X97867843Y-80090866D01*
X98172604Y-78424260D02*
X98439271Y-78043307D01*
X98629747Y-78424260D02*
X98629747Y-77624260D01*
X98629747Y-77624260D02*
X98324985Y-77624260D01*
X98324985Y-77624260D02*
X98248795Y-77662355D01*
X98248795Y-77662355D02*
X98210700Y-77700450D01*
X98210700Y-77700450D02*
X98172604Y-77776641D01*
X98172604Y-77776641D02*
X98172604Y-77890926D01*
X98172604Y-77890926D02*
X98210700Y-77967117D01*
X98210700Y-77967117D02*
X98248795Y-78005212D01*
X98248795Y-78005212D02*
X98324985Y-78043307D01*
X98324985Y-78043307D02*
X98629747Y-78043307D01*
X97867843Y-77700450D02*
X97829747Y-77662355D01*
X97829747Y-77662355D02*
X97753557Y-77624260D01*
X97753557Y-77624260D02*
X97563081Y-77624260D01*
X97563081Y-77624260D02*
X97486890Y-77662355D01*
X97486890Y-77662355D02*
X97448795Y-77700450D01*
X97448795Y-77700450D02*
X97410700Y-77776641D01*
X97410700Y-77776641D02*
X97410700Y-77852831D01*
X97410700Y-77852831D02*
X97448795Y-77967117D01*
X97448795Y-77967117D02*
X97905938Y-78424260D01*
X97905938Y-78424260D02*
X97410700Y-78424260D01*
X104762295Y-79909524D02*
X103962295Y-79909524D01*
X103962295Y-79909524D02*
X103962295Y-80214286D01*
X103962295Y-80214286D02*
X104000390Y-80290476D01*
X104000390Y-80290476D02*
X104038485Y-80328571D01*
X104038485Y-80328571D02*
X104114676Y-80366667D01*
X104114676Y-80366667D02*
X104228961Y-80366667D01*
X104228961Y-80366667D02*
X104305152Y-80328571D01*
X104305152Y-80328571D02*
X104343247Y-80290476D01*
X104343247Y-80290476D02*
X104381342Y-80214286D01*
X104381342Y-80214286D02*
X104381342Y-79909524D01*
X104762295Y-81128571D02*
X104762295Y-80671428D01*
X104762295Y-80900000D02*
X103962295Y-80900000D01*
X103962295Y-80900000D02*
X104076580Y-80823809D01*
X104076580Y-80823809D02*
X104152771Y-80747619D01*
X104152771Y-80747619D02*
X104190866Y-80671428D01*
X104762295Y-77509524D02*
X103962295Y-77509524D01*
X103962295Y-77509524D02*
X103962295Y-77814286D01*
X103962295Y-77814286D02*
X104000390Y-77890476D01*
X104000390Y-77890476D02*
X104038485Y-77928571D01*
X104038485Y-77928571D02*
X104114676Y-77966667D01*
X104114676Y-77966667D02*
X104228961Y-77966667D01*
X104228961Y-77966667D02*
X104305152Y-77928571D01*
X104305152Y-77928571D02*
X104343247Y-77890476D01*
X104343247Y-77890476D02*
X104381342Y-77814286D01*
X104381342Y-77814286D02*
X104381342Y-77509524D01*
X104038485Y-78271428D02*
X104000390Y-78309524D01*
X104000390Y-78309524D02*
X103962295Y-78385714D01*
X103962295Y-78385714D02*
X103962295Y-78576190D01*
X103962295Y-78576190D02*
X104000390Y-78652381D01*
X104000390Y-78652381D02*
X104038485Y-78690476D01*
X104038485Y-78690476D02*
X104114676Y-78728571D01*
X104114676Y-78728571D02*
X104190866Y-78728571D01*
X104190866Y-78728571D02*
X104305152Y-78690476D01*
X104305152Y-78690476D02*
X104762295Y-78233333D01*
X104762295Y-78233333D02*
X104762295Y-78728571D01*
X110609523Y-75600390D02*
X110685713Y-75562295D01*
X110685713Y-75562295D02*
X110799999Y-75562295D01*
X110799999Y-75562295D02*
X110914285Y-75600390D01*
X110914285Y-75600390D02*
X110990475Y-75676580D01*
X110990475Y-75676580D02*
X111028570Y-75752771D01*
X111028570Y-75752771D02*
X111066666Y-75905152D01*
X111066666Y-75905152D02*
X111066666Y-76019438D01*
X111066666Y-76019438D02*
X111028570Y-76171819D01*
X111028570Y-76171819D02*
X110990475Y-76248009D01*
X110990475Y-76248009D02*
X110914285Y-76324200D01*
X110914285Y-76324200D02*
X110799999Y-76362295D01*
X110799999Y-76362295D02*
X110723808Y-76362295D01*
X110723808Y-76362295D02*
X110609523Y-76324200D01*
X110609523Y-76324200D02*
X110571427Y-76286104D01*
X110571427Y-76286104D02*
X110571427Y-76019438D01*
X110571427Y-76019438D02*
X110723808Y-76019438D01*
X110228570Y-76362295D02*
X110228570Y-75562295D01*
X110228570Y-75562295D02*
X109771427Y-76362295D01*
X109771427Y-76362295D02*
X109771427Y-75562295D01*
X109390475Y-76362295D02*
X109390475Y-75562295D01*
X109390475Y-75562295D02*
X109199999Y-75562295D01*
X109199999Y-75562295D02*
X109085713Y-75600390D01*
X109085713Y-75600390D02*
X109009523Y-75676580D01*
X109009523Y-75676580D02*
X108971428Y-75752771D01*
X108971428Y-75752771D02*
X108933332Y-75905152D01*
X108933332Y-75905152D02*
X108933332Y-76019438D01*
X108933332Y-76019438D02*
X108971428Y-76171819D01*
X108971428Y-76171819D02*
X109009523Y-76248009D01*
X109009523Y-76248009D02*
X109085713Y-76324200D01*
X109085713Y-76324200D02*
X109199999Y-76362295D01*
X109199999Y-76362295D02*
X109390475Y-76362295D01*
X110614285Y-78962295D02*
X110995237Y-78962295D01*
X110995237Y-78962295D02*
X110995237Y-78162295D01*
X110347618Y-78543247D02*
X110080952Y-78543247D01*
X109966666Y-78962295D02*
X110347618Y-78962295D01*
X110347618Y-78962295D02*
X110347618Y-78162295D01*
X110347618Y-78162295D02*
X109966666Y-78162295D01*
X109623808Y-78962295D02*
X109623808Y-78162295D01*
X109623808Y-78162295D02*
X109433332Y-78162295D01*
X109433332Y-78162295D02*
X109319046Y-78200390D01*
X109319046Y-78200390D02*
X109242856Y-78276580D01*
X109242856Y-78276580D02*
X109204761Y-78352771D01*
X109204761Y-78352771D02*
X109166665Y-78505152D01*
X109166665Y-78505152D02*
X109166665Y-78619438D01*
X109166665Y-78619438D02*
X109204761Y-78771819D01*
X109204761Y-78771819D02*
X109242856Y-78848009D01*
X109242856Y-78848009D02*
X109319046Y-78924200D01*
X109319046Y-78924200D02*
X109433332Y-78962295D01*
X109433332Y-78962295D02*
X109623808Y-78962295D01*
X111166666Y-80562295D02*
X110899999Y-81362295D01*
X110899999Y-81362295D02*
X110633333Y-80562295D01*
X109909523Y-81286104D02*
X109947619Y-81324200D01*
X109947619Y-81324200D02*
X110061904Y-81362295D01*
X110061904Y-81362295D02*
X110138095Y-81362295D01*
X110138095Y-81362295D02*
X110252381Y-81324200D01*
X110252381Y-81324200D02*
X110328571Y-81248009D01*
X110328571Y-81248009D02*
X110366666Y-81171819D01*
X110366666Y-81171819D02*
X110404762Y-81019438D01*
X110404762Y-81019438D02*
X110404762Y-80905152D01*
X110404762Y-80905152D02*
X110366666Y-80752771D01*
X110366666Y-80752771D02*
X110328571Y-80676580D01*
X110328571Y-80676580D02*
X110252381Y-80600390D01*
X110252381Y-80600390D02*
X110138095Y-80562295D01*
X110138095Y-80562295D02*
X110061904Y-80562295D01*
X110061904Y-80562295D02*
X109947619Y-80600390D01*
X109947619Y-80600390D02*
X109909523Y-80638485D01*
X109109523Y-81286104D02*
X109147619Y-81324200D01*
X109147619Y-81324200D02*
X109261904Y-81362295D01*
X109261904Y-81362295D02*
X109338095Y-81362295D01*
X109338095Y-81362295D02*
X109452381Y-81324200D01*
X109452381Y-81324200D02*
X109528571Y-81248009D01*
X109528571Y-81248009D02*
X109566666Y-81171819D01*
X109566666Y-81171819D02*
X109604762Y-81019438D01*
X109604762Y-81019438D02*
X109604762Y-80905152D01*
X109604762Y-80905152D02*
X109566666Y-80752771D01*
X109566666Y-80752771D02*
X109528571Y-80676580D01*
X109528571Y-80676580D02*
X109452381Y-80600390D01*
X109452381Y-80600390D02*
X109338095Y-80562295D01*
X109338095Y-80562295D02*
X109261904Y-80562295D01*
X109261904Y-80562295D02*
X109147619Y-80600390D01*
X109147619Y-80600390D02*
X109109523Y-80638485D01*
X108233333Y-73654819D02*
X108233333Y-74369104D01*
X108233333Y-74369104D02*
X108280952Y-74511961D01*
X108280952Y-74511961D02*
X108376190Y-74607200D01*
X108376190Y-74607200D02*
X108519047Y-74654819D01*
X108519047Y-74654819D02*
X108614285Y-74654819D01*
X107233333Y-74654819D02*
X107804761Y-74654819D01*
X107519047Y-74654819D02*
X107519047Y-73654819D01*
X107519047Y-73654819D02*
X107614285Y-73797676D01*
X107614285Y-73797676D02*
X107709523Y-73892914D01*
X107709523Y-73892914D02*
X107804761Y-73940533D01*
X112833333Y-78254819D02*
X112833333Y-78969104D01*
X112833333Y-78969104D02*
X112880952Y-79111961D01*
X112880952Y-79111961D02*
X112976190Y-79207200D01*
X112976190Y-79207200D02*
X113119047Y-79254819D01*
X113119047Y-79254819D02*
X113214285Y-79254819D01*
X111928571Y-78254819D02*
X112119047Y-78254819D01*
X112119047Y-78254819D02*
X112214285Y-78302438D01*
X112214285Y-78302438D02*
X112261904Y-78350057D01*
X112261904Y-78350057D02*
X112357142Y-78492914D01*
X112357142Y-78492914D02*
X112404761Y-78683390D01*
X112404761Y-78683390D02*
X112404761Y-79064342D01*
X112404761Y-79064342D02*
X112357142Y-79159580D01*
X112357142Y-79159580D02*
X112309523Y-79207200D01*
X112309523Y-79207200D02*
X112214285Y-79254819D01*
X112214285Y-79254819D02*
X112023809Y-79254819D01*
X112023809Y-79254819D02*
X111928571Y-79207200D01*
X111928571Y-79207200D02*
X111880952Y-79159580D01*
X111880952Y-79159580D02*
X111833333Y-79064342D01*
X111833333Y-79064342D02*
X111833333Y-78826247D01*
X111833333Y-78826247D02*
X111880952Y-78731009D01*
X111880952Y-78731009D02*
X111928571Y-78683390D01*
X111928571Y-78683390D02*
X112023809Y-78635771D01*
X112023809Y-78635771D02*
X112214285Y-78635771D01*
X112214285Y-78635771D02*
X112309523Y-78683390D01*
X112309523Y-78683390D02*
X112357142Y-78731009D01*
X112357142Y-78731009D02*
X112404761Y-78826247D01*
X96539272Y-79311965D02*
X99539272Y-79311965D01*
X96539272Y-81311965D02*
X96539272Y-79311965D01*
X99539272Y-79311965D02*
X99539272Y-81311965D01*
X99539272Y-81311965D02*
X96539272Y-81311965D01*
X96539272Y-77061965D02*
X99539272Y-77061965D01*
X96539272Y-79061965D02*
X96539272Y-77061965D01*
X99539272Y-77061965D02*
X99539272Y-79061965D01*
X99539272Y-79061965D02*
X96539272Y-79061965D01*
X88000000Y-84400000D02*
X100000000Y-84400000D01*
X88000000Y-90400000D02*
X88000000Y-84400000D01*
X100000000Y-84400000D02*
X100000000Y-90400000D01*
X100000000Y-90400000D02*
X88000000Y-90400000D01*
X101700000Y-79300000D02*
X103700000Y-79300000D01*
X101700000Y-81300000D02*
X101700000Y-79300000D01*
X103700000Y-79300000D02*
X103700000Y-81300000D01*
X103700000Y-81300000D02*
X101700000Y-81300000D01*
X101700000Y-77100000D02*
X103700000Y-77100000D01*
X101700000Y-79100000D02*
X101700000Y-77100000D01*
X103700000Y-77100000D02*
X103700000Y-79100000D01*
X103700000Y-79100000D02*
X101700000Y-79100000D01*
X90910000Y-37420000D02*
X108690000Y-37420000D01*
X90910000Y-39960000D02*
X93450000Y-39960000D01*
X90910000Y-70440000D02*
X90910000Y-37420000D01*
X90910000Y-70440000D02*
X90910000Y-39960000D01*
X93450000Y-39960000D02*
X93450000Y-70440000D01*
X93450000Y-70440000D02*
X90910000Y-70440000D01*
X106150000Y-39960000D02*
X108690000Y-39960000D01*
X106150000Y-70440000D02*
X106150000Y-39960000D01*
X108690000Y-37420000D02*
X108690000Y-70440000D01*
X108690000Y-39960000D02*
X108690000Y-70440000D01*
X108690000Y-70440000D02*
X106150000Y-70440000D01*
X88300000Y-74500000D02*
X88900000Y-74500000D01*
X88300000Y-80500000D02*
X88300000Y-74500000D01*
X88300000Y-80500000D02*
X88900000Y-80500000D01*
X91800000Y-74500000D02*
X91100000Y-74500000D01*
X91800000Y-74500000D02*
X91800000Y-80400000D01*
X91800000Y-74500000D02*
X91800000Y-80500000D01*
X91800000Y-80500000D02*
X91100000Y-80500000D01*
X128000000Y-43075000D02*
X128000000Y-48475000D01*
X128000000Y-48475000D02*
X129500000Y-48475000D01*
X128250000Y-46275000D02*
X128750000Y-45375000D01*
X128750000Y-45375000D02*
X129250000Y-46275000D01*
X129250000Y-45275000D02*
X128250000Y-45275000D01*
X129250000Y-46275000D02*
X128250000Y-46275000D01*
X129500000Y-43075000D02*
X128000000Y-43075000D01*
X129500000Y-48475000D02*
X129500000Y-43075000D01*
X130250000Y-43080500D02*
X130250000Y-48480500D01*
X130250000Y-48480500D02*
X131750000Y-48480500D01*
X130500000Y-46280500D02*
X131000000Y-45380500D01*
X131000000Y-45380500D02*
X131500000Y-46280500D01*
X131500000Y-45280500D02*
X130500000Y-45280500D01*
X131500000Y-46280500D02*
X130500000Y-46280500D01*
X131750000Y-43080500D02*
X130250000Y-43080500D01*
X131750000Y-48480500D02*
X131750000Y-43080500D01*
X149750000Y-40340000D02*
X149750000Y-45740000D01*
X149750000Y-45740000D02*
X151250000Y-45740000D01*
X150000000Y-43540000D02*
X150500000Y-42640000D01*
X150500000Y-42640000D02*
X151000000Y-43540000D01*
X151000000Y-42540000D02*
X150000000Y-42540000D01*
X151000000Y-43540000D02*
X150000000Y-43540000D01*
X151250000Y-40340000D02*
X149750000Y-40340000D01*
X151250000Y-45740000D02*
X151250000Y-40340000D01*
X168500000Y-42725000D02*
X168500000Y-48125000D01*
X168500000Y-48125000D02*
X170000000Y-48125000D01*
X168750000Y-45925000D02*
X169250000Y-45025000D01*
X169250000Y-45025000D02*
X169750000Y-45925000D01*
X169750000Y-44925000D02*
X168750000Y-44925000D01*
X169750000Y-45925000D02*
X168750000Y-45925000D01*
X170000000Y-42725000D02*
X168500000Y-42725000D01*
X170000000Y-48125000D02*
X170000000Y-42725000D01*
X187250000Y-47550000D02*
X187250000Y-52950000D01*
X187250000Y-52950000D02*
X188750000Y-52950000D01*
X187500000Y-50750000D02*
X188000000Y-49850000D01*
X188000000Y-49850000D02*
X188500000Y-50750000D01*
X188500000Y-49750000D02*
X187500000Y-49750000D01*
X188500000Y-50750000D02*
X187500000Y-50750000D01*
X188750000Y-47550000D02*
X187250000Y-47550000D01*
X188750000Y-52950000D02*
X188750000Y-47550000D01*
X207000000Y-47325000D02*
X207000000Y-52725000D01*
X207000000Y-52725000D02*
X208500000Y-52725000D01*
X207250000Y-50525000D02*
X207750000Y-49625000D01*
X207750000Y-49625000D02*
X208250000Y-50525000D01*
X208250000Y-49525000D02*
X207250000Y-49525000D01*
X208250000Y-50525000D02*
X207250000Y-50525000D01*
X208500000Y-47325000D02*
X207000000Y-47325000D01*
X208500000Y-52725000D02*
X208500000Y-47325000D01*
X126050000Y-61075000D02*
X126050000Y-66475000D01*
X126050000Y-66475000D02*
X127550000Y-66475000D01*
X126300000Y-64275000D02*
X126800000Y-63375000D01*
X126800000Y-63375000D02*
X127300000Y-64275000D01*
X127300000Y-63275000D02*
X126300000Y-63275000D01*
X127300000Y-64275000D02*
X126300000Y-64275000D01*
X127550000Y-61075000D02*
X126050000Y-61075000D01*
X127550000Y-66475000D02*
X127550000Y-61075000D01*
X129050000Y-61100000D02*
X129050000Y-66500000D01*
X129050000Y-66500000D02*
X130550000Y-66500000D01*
X129300000Y-64300000D02*
X129800000Y-63400000D01*
X129800000Y-63400000D02*
X130300000Y-64300000D01*
X130300000Y-63300000D02*
X129300000Y-63300000D01*
X130300000Y-64300000D02*
X129300000Y-64300000D01*
X130550000Y-61100000D02*
X129050000Y-61100000D01*
X130550000Y-66500000D02*
X130550000Y-61100000D01*
X149500000Y-58365000D02*
X149500000Y-63765000D01*
X149500000Y-63765000D02*
X151000000Y-63765000D01*
X149750000Y-61565000D02*
X150250000Y-60665000D01*
X150250000Y-60665000D02*
X150750000Y-61565000D01*
X150750000Y-60565000D02*
X149750000Y-60565000D01*
X150750000Y-61565000D02*
X149750000Y-61565000D01*
X151000000Y-58365000D02*
X149500000Y-58365000D01*
X151000000Y-63765000D02*
X151000000Y-58365000D01*
X168750000Y-60950000D02*
X168750000Y-66350000D01*
X168750000Y-66350000D02*
X170250000Y-66350000D01*
X169000000Y-64150000D02*
X169500000Y-63250000D01*
X169500000Y-63250000D02*
X170000000Y-64150000D01*
X170000000Y-63150000D02*
X169000000Y-63150000D01*
X170000000Y-64150000D02*
X169000000Y-64150000D01*
X170250000Y-60950000D02*
X168750000Y-60950000D01*
X170250000Y-66350000D02*
X170250000Y-60950000D01*
X187500000Y-64075000D02*
X187500000Y-69475000D01*
X187500000Y-69475000D02*
X189000000Y-69475000D01*
X187750000Y-67275000D02*
X188250000Y-66375000D01*
X188250000Y-66375000D02*
X188750000Y-67275000D01*
X188750000Y-66275000D02*
X187750000Y-66275000D01*
X188750000Y-67275000D02*
X187750000Y-67275000D01*
X189000000Y-64075000D02*
X187500000Y-64075000D01*
X189000000Y-69475000D02*
X189000000Y-64075000D01*
X207000000Y-64575000D02*
X207000000Y-69975000D01*
X207000000Y-69975000D02*
X208500000Y-69975000D01*
X207250000Y-67775000D02*
X207750000Y-66875000D01*
X207750000Y-66875000D02*
X208250000Y-67775000D01*
X208250000Y-66775000D02*
X207250000Y-66775000D01*
X208250000Y-67775000D02*
X207250000Y-67775000D01*
X208500000Y-64575000D02*
X207000000Y-64575000D01*
X208500000Y-69975000D02*
X208500000Y-64575000D01*
X127750000Y-81075000D02*
X127750000Y-86475000D01*
X127750000Y-86475000D02*
X129250000Y-86475000D01*
X128000000Y-84275000D02*
X128500000Y-83375000D01*
X128500000Y-83375000D02*
X129000000Y-84275000D01*
X129000000Y-83275000D02*
X128000000Y-83275000D01*
X129000000Y-84275000D02*
X128000000Y-84275000D01*
X129250000Y-81075000D02*
X127750000Y-81075000D01*
X129250000Y-86475000D02*
X129250000Y-81075000D01*
X130500000Y-80975000D02*
X130500000Y-86375000D01*
X130500000Y-86375000D02*
X132000000Y-86375000D01*
X130750000Y-84175000D02*
X131250000Y-83275000D01*
X131250000Y-83275000D02*
X131750000Y-84175000D01*
X131750000Y-83175000D02*
X130750000Y-83175000D01*
X131750000Y-84175000D02*
X130750000Y-84175000D01*
X132000000Y-80975000D02*
X130500000Y-80975000D01*
X132000000Y-86375000D02*
X132000000Y-80975000D01*
X149000000Y-78865000D02*
X149000000Y-84265000D01*
X149000000Y-84265000D02*
X150500000Y-84265000D01*
X149250000Y-82065000D02*
X149750000Y-81165000D01*
X149750000Y-81165000D02*
X150250000Y-82065000D01*
X150250000Y-81065000D02*
X149250000Y-81065000D01*
X150250000Y-82065000D02*
X149250000Y-82065000D01*
X150500000Y-78865000D02*
X149000000Y-78865000D01*
X150500000Y-84265000D02*
X150500000Y-78865000D01*
X168975000Y-80725000D02*
X168975000Y-86125000D01*
X168975000Y-86125000D02*
X170475000Y-86125000D01*
X169225000Y-83925000D02*
X169725000Y-83025000D01*
X169725000Y-83025000D02*
X170225000Y-83925000D01*
X170225000Y-82925000D02*
X169225000Y-82925000D01*
X170225000Y-83925000D02*
X169225000Y-83925000D01*
X170475000Y-80725000D02*
X168975000Y-80725000D01*
X170475000Y-86125000D02*
X170475000Y-80725000D01*
X187750000Y-86075000D02*
X187750000Y-91475000D01*
X187750000Y-91475000D02*
X189250000Y-91475000D01*
X188000000Y-89275000D02*
X188500000Y-88375000D01*
X188500000Y-88375000D02*
X189000000Y-89275000D01*
X189000000Y-88275000D02*
X188000000Y-88275000D01*
X189000000Y-89275000D02*
X188000000Y-89275000D01*
X189250000Y-86075000D02*
X187750000Y-86075000D01*
X189250000Y-91475000D02*
X189250000Y-86075000D01*
X207000000Y-83575000D02*
X207000000Y-88975000D01*
X207000000Y-88975000D02*
X208500000Y-88975000D01*
X207250000Y-86775000D02*
X207750000Y-85875000D01*
X207750000Y-85875000D02*
X208250000Y-86775000D01*
X208250000Y-85775000D02*
X207250000Y-85775000D01*
X208250000Y-86775000D02*
X207250000Y-86775000D01*
X208500000Y-83575000D02*
X207000000Y-83575000D01*
X208500000Y-88975000D02*
X208500000Y-83575000D01*
X111250000Y-100050000D02*
X111250000Y-105450000D01*
X111250000Y-105450000D02*
X112750000Y-105450000D01*
X111500000Y-103250000D02*
X112000000Y-102350000D01*
X112000000Y-102350000D02*
X112500000Y-103250000D01*
X112500000Y-102250000D02*
X111500000Y-102250000D01*
X112500000Y-103250000D02*
X111500000Y-103250000D01*
X112750000Y-100050000D02*
X111250000Y-100050000D01*
X112750000Y-105450000D02*
X112750000Y-100050000D01*
X130250000Y-100475000D02*
X130250000Y-105875000D01*
X130250000Y-105875000D02*
X131750000Y-105875000D01*
X130500000Y-103675000D02*
X131000000Y-102775000D01*
X131000000Y-102775000D02*
X131500000Y-103675000D01*
X131500000Y-102675000D02*
X130500000Y-102675000D01*
X131500000Y-103675000D02*
X130500000Y-103675000D01*
X131750000Y-100475000D02*
X130250000Y-100475000D01*
X131750000Y-105875000D02*
X131750000Y-100475000D01*
X149250000Y-95865000D02*
X149250000Y-101265000D01*
X149250000Y-101265000D02*
X150750000Y-101265000D01*
X149500000Y-99065000D02*
X150000000Y-98165000D01*
X150000000Y-98165000D02*
X150500000Y-99065000D01*
X150500000Y-98065000D02*
X149500000Y-98065000D01*
X150500000Y-99065000D02*
X149500000Y-99065000D01*
X150750000Y-95865000D02*
X149250000Y-95865000D01*
X150750000Y-101265000D02*
X150750000Y-95865000D01*
X168500000Y-99450000D02*
X168500000Y-104850000D01*
X168500000Y-104850000D02*
X170000000Y-104850000D01*
X168750000Y-102650000D02*
X169250000Y-101750000D01*
X169250000Y-101750000D02*
X169750000Y-102650000D01*
X169750000Y-101650000D02*
X168750000Y-101650000D01*
X169750000Y-102650000D02*
X168750000Y-102650000D01*
X170000000Y-99450000D02*
X168500000Y-99450000D01*
X170000000Y-104850000D02*
X170000000Y-99450000D01*
X187750000Y-104050000D02*
X187750000Y-109450000D01*
X187750000Y-109450000D02*
X189250000Y-109450000D01*
X188000000Y-107250000D02*
X188500000Y-106350000D01*
X188500000Y-106350000D02*
X189000000Y-107250000D01*
X189000000Y-106250000D02*
X188000000Y-106250000D01*
X189000000Y-107250000D02*
X188000000Y-107250000D01*
X189250000Y-104050000D02*
X187750000Y-104050000D01*
X189250000Y-109450000D02*
X189250000Y-104050000D01*
X207450000Y-102475000D02*
X207450000Y-107875000D01*
X207450000Y-107875000D02*
X208950000Y-107875000D01*
X207700000Y-105675000D02*
X208200000Y-104775000D01*
X208200000Y-104775000D02*
X208700000Y-105675000D01*
X208700000Y-104675000D02*
X207700000Y-104675000D01*
X208700000Y-105675000D02*
X207700000Y-105675000D01*
X208950000Y-102475000D02*
X207450000Y-102475000D01*
X208950000Y-107875000D02*
X208950000Y-102475000D01*
X104300000Y-96250000D02*
X104300000Y-97750000D01*
X104300000Y-97750000D02*
X109700000Y-97750000D01*
X106500000Y-96500000D02*
X106500000Y-97500000D01*
X106600000Y-97000000D02*
X107500000Y-96500000D01*
X107500000Y-96500000D02*
X107500000Y-97500000D01*
X107500000Y-97500000D02*
X106600000Y-97000000D01*
X109700000Y-96250000D02*
X104300000Y-96250000D01*
X109700000Y-97750000D02*
X109700000Y-96250000D01*
X98100000Y-122850000D02*
X98100000Y-124350000D01*
X98100000Y-124350000D02*
X103500000Y-124350000D01*
X100300000Y-123100000D02*
X100300000Y-124100000D01*
X100400000Y-123600000D02*
X101300000Y-123100000D01*
X101300000Y-123100000D02*
X101300000Y-124100000D01*
X101300000Y-124100000D02*
X100400000Y-123600000D01*
X103500000Y-122850000D02*
X98100000Y-122850000D01*
X103500000Y-124350000D02*
X103500000Y-122850000D01*
X107724800Y-119874800D02*
X107724800Y-121374800D01*
X107724800Y-121374800D02*
X113124800Y-121374800D01*
X109924800Y-120124800D02*
X109924800Y-121124800D01*
X110024800Y-120624800D02*
X110924800Y-120124800D01*
X110924800Y-120124800D02*
X110924800Y-121124800D01*
X110924800Y-121124800D02*
X110024800Y-120624800D01*
X113124800Y-119874800D02*
X107724800Y-119874800D01*
X113124800Y-121374800D02*
X113124800Y-119874800D01*
X123075000Y-123450000D02*
X123075000Y-124950000D01*
X123075000Y-124950000D02*
X128475000Y-124950000D01*
X125275000Y-123700000D02*
X125275000Y-124700000D01*
X125375000Y-124200000D02*
X126275000Y-123700000D01*
X126275000Y-123700000D02*
X126275000Y-124700000D01*
X126275000Y-124700000D02*
X125375000Y-124200000D01*
X128475000Y-123450000D02*
X123075000Y-123450000D01*
X128475000Y-124950000D02*
X128475000Y-123450000D01*
X123075000Y-120850000D02*
X123075000Y-122350000D01*
X123075000Y-122350000D02*
X128475000Y-122350000D01*
X125275000Y-121100000D02*
X125275000Y-122100000D01*
X125375000Y-121600000D02*
X126275000Y-121100000D01*
X126275000Y-121100000D02*
X126275000Y-122100000D01*
X126275000Y-122100000D02*
X125375000Y-121600000D01*
X128475000Y-120850000D02*
X123075000Y-120850000D01*
X128475000Y-122350000D02*
X128475000Y-120850000D01*
X115900000Y-53000000D02*
X115900000Y-54000000D01*
X115900000Y-54000000D02*
X116100000Y-54000000D01*
X115900000Y-56250000D02*
X115900000Y-56600000D01*
X115900000Y-56600000D02*
X124300001Y-56600000D01*
D11*
X116100000Y-53900000D02*
X116100000Y-53200000D01*
D10*
X116100000Y-56250000D02*
X115900000Y-56250000D01*
D11*
X116100000Y-56400000D02*
X117500000Y-56400000D01*
D10*
X116120000Y-54000000D02*
X116120000Y-56250000D01*
D12*
X116200000Y-53300000D02*
X117600000Y-53300000D01*
D13*
X116600000Y-56000000D02*
X116600000Y-53500000D01*
D14*
X117900000Y-54800000D02*
X124600000Y-54800000D01*
D10*
X120900000Y-53000000D02*
X115900000Y-53000000D01*
D15*
X121870600Y-44650000D02*
X123920600Y-44650000D01*
X121870600Y-46100000D02*
X121870600Y-44650000D01*
X123920600Y-44650000D02*
X123920600Y-46100000D01*
X123920600Y-46100000D02*
X121870600Y-46100000D01*
D16*
X124670000Y-55100000D02*
X124670000Y-52860000D01*
D17*
X125800000Y-51600000D02*
X125800000Y-53399999D01*
D10*
X126170000Y-53700000D02*
X126170000Y-51460000D01*
D12*
X126200000Y-51300000D02*
X123500000Y-51300000D01*
D10*
X126200000Y-51460000D02*
X126400000Y-51460000D01*
D15*
X126300000Y-53800001D02*
X126300000Y-54700000D01*
D10*
X126400000Y-51100000D02*
X123120000Y-51100000D01*
X126400000Y-51100000D02*
X126400000Y-51460000D01*
X126400000Y-53700000D02*
X126200000Y-53700000D01*
X126400000Y-54700000D02*
X126400000Y-53700000D01*
X123116318Y-51121471D02*
G75*
G02*
X120900000Y-53000000I-2151317J291470D01*
G01*
D13*
X123516318Y-51521471D02*
G75*
G02*
X121300000Y-53400000I-2151317J291470D01*
G01*
D10*
X126400000Y-54699999D02*
G75*
G02*
X124300001Y-56600001I-1999999J99997D01*
G01*
X134900000Y-50500000D02*
X134900000Y-51500000D01*
X134900000Y-51500000D02*
X135100000Y-51500000D01*
X134900000Y-53750000D02*
X134900000Y-54100000D01*
X134900000Y-54100000D02*
X143300001Y-54100000D01*
D11*
X135100000Y-51400000D02*
X135100000Y-50700000D01*
D10*
X135100000Y-53750000D02*
X134900000Y-53750000D01*
D11*
X135100000Y-53900000D02*
X136500000Y-53900000D01*
D10*
X135120000Y-51500000D02*
X135120000Y-53750000D01*
D12*
X135200000Y-50800000D02*
X136600000Y-50800000D01*
D13*
X135600000Y-53500000D02*
X135600000Y-51000000D01*
D14*
X136900000Y-52300000D02*
X143600000Y-52300000D01*
D10*
X139900000Y-50500000D02*
X134900000Y-50500000D01*
D15*
X140870600Y-42150000D02*
X142920600Y-42150000D01*
X140870600Y-43600000D02*
X140870600Y-42150000D01*
X142920600Y-42150000D02*
X142920600Y-43600000D01*
X142920600Y-43600000D02*
X140870600Y-43600000D01*
D16*
X143670000Y-52600000D02*
X143670000Y-50360000D01*
D17*
X144800000Y-49100000D02*
X144800000Y-50899999D01*
D10*
X145170000Y-51200000D02*
X145170000Y-48960000D01*
D12*
X145200000Y-48800000D02*
X142500000Y-48800000D01*
D10*
X145200000Y-48960000D02*
X145400000Y-48960000D01*
D15*
X145300000Y-51300001D02*
X145300000Y-52200000D01*
D10*
X145400000Y-48600000D02*
X142120000Y-48600000D01*
X145400000Y-48600000D02*
X145400000Y-48960000D01*
X145400000Y-51200000D02*
X145200000Y-51200000D01*
X145400000Y-52200000D02*
X145400000Y-51200000D01*
X142116318Y-48621471D02*
G75*
G02*
X139900000Y-50500000I-2151317J291470D01*
G01*
D13*
X142516318Y-49021471D02*
G75*
G02*
X140300000Y-50900000I-2151317J291470D01*
G01*
D10*
X145400000Y-52199999D02*
G75*
G02*
X143300001Y-54100001I-1999999J99997D01*
G01*
X154000000Y-48000000D02*
X154000000Y-49000000D01*
X154000000Y-49000000D02*
X154200000Y-49000000D01*
X154000000Y-51250000D02*
X154000000Y-51600000D01*
X154000000Y-51600000D02*
X162400001Y-51600000D01*
D11*
X154200000Y-48900000D02*
X154200000Y-48200000D01*
D10*
X154200000Y-51250000D02*
X154000000Y-51250000D01*
D11*
X154200000Y-51400000D02*
X155600000Y-51400000D01*
D10*
X154220000Y-49000000D02*
X154220000Y-51250000D01*
D12*
X154300000Y-48300000D02*
X155700000Y-48300000D01*
D13*
X154700000Y-51000000D02*
X154700000Y-48500000D01*
D14*
X156000000Y-49800000D02*
X162700000Y-49800000D01*
D10*
X159000000Y-48000000D02*
X154000000Y-48000000D01*
D15*
X159970600Y-39650000D02*
X162020600Y-39650000D01*
X159970600Y-41100000D02*
X159970600Y-39650000D01*
X162020600Y-39650000D02*
X162020600Y-41100000D01*
X162020600Y-41100000D02*
X159970600Y-41100000D01*
D16*
X162770000Y-50100000D02*
X162770000Y-47860000D01*
D17*
X163900000Y-46600000D02*
X163900000Y-48399999D01*
D10*
X164270000Y-48700000D02*
X164270000Y-46460000D01*
D12*
X164300000Y-46300000D02*
X161600000Y-46300000D01*
D10*
X164300000Y-46460000D02*
X164500000Y-46460000D01*
D15*
X164400000Y-48800001D02*
X164400000Y-49700000D01*
D10*
X164500000Y-46100000D02*
X161220000Y-46100000D01*
X164500000Y-46100000D02*
X164500000Y-46460000D01*
X164500000Y-48700000D02*
X164300000Y-48700000D01*
X164500000Y-49700000D02*
X164500000Y-48700000D01*
X161216318Y-46121471D02*
G75*
G02*
X159000000Y-48000000I-2151317J291470D01*
G01*
D13*
X161616318Y-46521471D02*
G75*
G02*
X159400000Y-48400000I-2151317J291470D01*
G01*
D10*
X164500000Y-49699999D02*
G75*
G02*
X162400001Y-51600001I-1999999J99997D01*
G01*
X173000000Y-50500000D02*
X173000000Y-51500000D01*
X173000000Y-51500000D02*
X173200000Y-51500000D01*
X173000000Y-53750000D02*
X173000000Y-54100000D01*
X173000000Y-54100000D02*
X181400001Y-54100000D01*
D11*
X173200000Y-51400000D02*
X173200000Y-50700000D01*
D10*
X173200000Y-53750000D02*
X173000000Y-53750000D01*
D11*
X173200000Y-53900000D02*
X174600000Y-53900000D01*
D10*
X173220000Y-51500000D02*
X173220000Y-53750000D01*
D12*
X173300000Y-50800000D02*
X174700000Y-50800000D01*
D13*
X173700000Y-53500000D02*
X173700000Y-51000000D01*
D14*
X175000000Y-52300000D02*
X181700000Y-52300000D01*
D10*
X178000000Y-50500000D02*
X173000000Y-50500000D01*
D15*
X178970600Y-42150000D02*
X181020600Y-42150000D01*
X178970600Y-43600000D02*
X178970600Y-42150000D01*
X181020600Y-42150000D02*
X181020600Y-43600000D01*
X181020600Y-43600000D02*
X178970600Y-43600000D01*
D16*
X181770000Y-52600000D02*
X181770000Y-50360000D01*
D17*
X182900000Y-49100000D02*
X182900000Y-50899999D01*
D10*
X183270000Y-51200000D02*
X183270000Y-48960000D01*
D12*
X183300000Y-48800000D02*
X180600000Y-48800000D01*
D10*
X183300000Y-48960000D02*
X183500000Y-48960000D01*
D15*
X183400000Y-51300001D02*
X183400000Y-52200000D01*
D10*
X183500000Y-48600000D02*
X180220000Y-48600000D01*
X183500000Y-48600000D02*
X183500000Y-48960000D01*
X183500000Y-51200000D02*
X183300000Y-51200000D01*
X183500000Y-52200000D02*
X183500000Y-51200000D01*
X180216318Y-48621471D02*
G75*
G02*
X178000000Y-50500000I-2151317J291470D01*
G01*
D13*
X180616318Y-49021471D02*
G75*
G02*
X178400000Y-50900000I-2151317J291470D01*
G01*
D10*
X183500000Y-52199999D02*
G75*
G02*
X181400001Y-54100001I-1999999J99997D01*
G01*
X192100000Y-55400000D02*
X192100000Y-56400000D01*
X192100000Y-56400000D02*
X192300000Y-56400000D01*
X192100000Y-58650000D02*
X192100000Y-59000000D01*
X192100000Y-59000000D02*
X200500001Y-59000000D01*
D11*
X192300000Y-56300000D02*
X192300000Y-55600000D01*
D10*
X192300000Y-58650000D02*
X192100000Y-58650000D01*
D11*
X192300000Y-58800000D02*
X193700000Y-58800000D01*
D10*
X192320000Y-56400000D02*
X192320000Y-58650000D01*
D12*
X192400000Y-55700000D02*
X193800000Y-55700000D01*
D13*
X192800000Y-58400000D02*
X192800000Y-55900000D01*
D14*
X194100000Y-57200000D02*
X200800000Y-57200000D01*
D10*
X197100000Y-55400000D02*
X192100000Y-55400000D01*
D15*
X198070600Y-47050000D02*
X200120600Y-47050000D01*
X198070600Y-48500000D02*
X198070600Y-47050000D01*
X200120600Y-47050000D02*
X200120600Y-48500000D01*
X200120600Y-48500000D02*
X198070600Y-48500000D01*
D16*
X200870000Y-57500000D02*
X200870000Y-55260000D01*
D17*
X202000000Y-54000000D02*
X202000000Y-55799999D01*
D10*
X202370000Y-56100000D02*
X202370000Y-53860000D01*
D12*
X202400000Y-53700000D02*
X199700000Y-53700000D01*
D10*
X202400000Y-53860000D02*
X202600000Y-53860000D01*
D15*
X202500000Y-56200001D02*
X202500000Y-57100000D01*
D10*
X202600000Y-53500000D02*
X199320000Y-53500000D01*
X202600000Y-53500000D02*
X202600000Y-53860000D01*
X202600000Y-56100000D02*
X202400000Y-56100000D01*
X202600000Y-57100000D02*
X202600000Y-56100000D01*
X199316318Y-53521471D02*
G75*
G02*
X197100000Y-55400000I-2151317J291470D01*
G01*
D13*
X199716318Y-53921471D02*
G75*
G02*
X197500000Y-55800000I-2151317J291470D01*
G01*
D10*
X202600000Y-57099999D02*
G75*
G02*
X200500001Y-59000001I-1999999J99997D01*
G01*
X115900000Y-72100000D02*
X115900000Y-73100000D01*
X115900000Y-73100000D02*
X116100000Y-73100000D01*
X115900000Y-75350000D02*
X115900000Y-75700000D01*
X115900000Y-75700000D02*
X124300001Y-75700000D01*
D11*
X116100000Y-73000000D02*
X116100000Y-72300000D01*
D10*
X116100000Y-75350000D02*
X115900000Y-75350000D01*
D11*
X116100000Y-75500000D02*
X117500000Y-75500000D01*
D10*
X116120000Y-73100000D02*
X116120000Y-75350000D01*
D12*
X116200000Y-72400000D02*
X117600000Y-72400000D01*
D13*
X116600000Y-75100000D02*
X116600000Y-72600000D01*
D14*
X117900000Y-73900000D02*
X124600000Y-73900000D01*
D10*
X120900000Y-72100000D02*
X115900000Y-72100000D01*
D15*
X121870600Y-63750000D02*
X123920600Y-63750000D01*
X121870600Y-65200000D02*
X121870600Y-63750000D01*
X123920600Y-63750000D02*
X123920600Y-65200000D01*
X123920600Y-65200000D02*
X121870600Y-65200000D01*
D16*
X124670000Y-74200000D02*
X124670000Y-71960000D01*
D17*
X125800000Y-70700000D02*
X125800000Y-72499999D01*
D10*
X126170000Y-72800000D02*
X126170000Y-70560000D01*
D12*
X126200000Y-70400000D02*
X123500000Y-70400000D01*
D10*
X126200000Y-70560000D02*
X126400000Y-70560000D01*
D15*
X126300000Y-72900001D02*
X126300000Y-73800000D01*
D10*
X126400000Y-70200000D02*
X123120000Y-70200000D01*
X126400000Y-70200000D02*
X126400000Y-70560000D01*
X126400000Y-72800000D02*
X126200000Y-72800000D01*
X126400000Y-73800000D02*
X126400000Y-72800000D01*
X123116318Y-70221471D02*
G75*
G02*
X120900000Y-72100000I-2151317J291470D01*
G01*
D13*
X123516318Y-70621471D02*
G75*
G02*
X121300000Y-72500000I-2151317J291470D01*
G01*
D10*
X126400000Y-73799999D02*
G75*
G02*
X124300001Y-75700001I-1999999J99997D01*
G01*
X134900000Y-69600000D02*
X134900000Y-70600000D01*
X134900000Y-70600000D02*
X135100000Y-70600000D01*
X134900000Y-72850000D02*
X134900000Y-73200000D01*
X134900000Y-73200000D02*
X143300001Y-73200000D01*
D11*
X135100000Y-70500000D02*
X135100000Y-69800000D01*
D10*
X135100000Y-72850000D02*
X134900000Y-72850000D01*
D11*
X135100000Y-73000000D02*
X136500000Y-73000000D01*
D10*
X135120000Y-70600000D02*
X135120000Y-72850000D01*
D12*
X135200000Y-69900000D02*
X136600000Y-69900000D01*
D13*
X135600000Y-72600000D02*
X135600000Y-70100000D01*
D14*
X136900000Y-71400000D02*
X143600000Y-71400000D01*
D10*
X139900000Y-69600000D02*
X134900000Y-69600000D01*
D15*
X140870600Y-61250000D02*
X142920600Y-61250000D01*
X140870600Y-62700000D02*
X140870600Y-61250000D01*
X142920600Y-61250000D02*
X142920600Y-62700000D01*
X142920600Y-62700000D02*
X140870600Y-62700000D01*
D16*
X143670000Y-71700000D02*
X143670000Y-69460000D01*
D17*
X144800000Y-68200000D02*
X144800000Y-69999999D01*
D10*
X145170000Y-70300000D02*
X145170000Y-68060000D01*
D12*
X145200000Y-67900000D02*
X142500000Y-67900000D01*
D10*
X145200000Y-68060000D02*
X145400000Y-68060000D01*
D15*
X145300000Y-70400001D02*
X145300000Y-71300000D01*
D10*
X145400000Y-67700000D02*
X142120000Y-67700000D01*
X145400000Y-67700000D02*
X145400000Y-68060000D01*
X145400000Y-70300000D02*
X145200000Y-70300000D01*
X145400000Y-71300000D02*
X145400000Y-70300000D01*
X142116318Y-67721471D02*
G75*
G02*
X139900000Y-69600000I-2151317J291470D01*
G01*
D13*
X142516318Y-68121471D02*
G75*
G02*
X140300000Y-70000000I-2151317J291470D01*
G01*
D10*
X145400000Y-71299999D02*
G75*
G02*
X143300001Y-73200001I-1999999J99997D01*
G01*
X154000000Y-67090000D02*
X154000000Y-68090000D01*
X154000000Y-68090000D02*
X154200000Y-68090000D01*
X154000000Y-70340000D02*
X154000000Y-70690000D01*
X154000000Y-70690000D02*
X162400001Y-70690000D01*
D11*
X154200000Y-67990000D02*
X154200000Y-67290000D01*
D10*
X154200000Y-70340000D02*
X154000000Y-70340000D01*
D11*
X154200000Y-70490000D02*
X155600000Y-70490000D01*
D10*
X154220000Y-68090000D02*
X154220000Y-70340000D01*
D12*
X154300000Y-67390000D02*
X155700000Y-67390000D01*
D13*
X154700000Y-70090000D02*
X154700000Y-67590000D01*
D14*
X156000000Y-68890000D02*
X162700000Y-68890000D01*
D10*
X159000000Y-67090000D02*
X154000000Y-67090000D01*
D15*
X159970600Y-58740000D02*
X162020600Y-58740000D01*
X159970600Y-60190000D02*
X159970600Y-58740000D01*
X162020600Y-58740000D02*
X162020600Y-60190000D01*
X162020600Y-60190000D02*
X159970600Y-60190000D01*
D16*
X162770000Y-69190000D02*
X162770000Y-66950000D01*
D17*
X163900000Y-65690000D02*
X163900000Y-67489999D01*
D10*
X164270000Y-67790000D02*
X164270000Y-65550000D01*
D12*
X164300000Y-65390000D02*
X161600000Y-65390000D01*
D10*
X164300000Y-65550000D02*
X164500000Y-65550000D01*
D15*
X164400000Y-67890001D02*
X164400000Y-68790000D01*
D10*
X164500000Y-65190000D02*
X161220000Y-65190000D01*
X164500000Y-65190000D02*
X164500000Y-65550000D01*
X164500000Y-67790000D02*
X164300000Y-67790000D01*
X164500000Y-68790000D02*
X164500000Y-67790000D01*
X161216318Y-65211471D02*
G75*
G02*
X159000000Y-67090000I-2151317J291470D01*
G01*
D13*
X161616318Y-65611471D02*
G75*
G02*
X159400000Y-67490000I-2151317J291470D01*
G01*
D10*
X164500000Y-68789999D02*
G75*
G02*
X162400001Y-70690001I-1999999J99997D01*
G01*
X173000000Y-69500000D02*
X173000000Y-70500000D01*
X173000000Y-70500000D02*
X173200000Y-70500000D01*
X173000000Y-72750000D02*
X173000000Y-73100000D01*
X173000000Y-73100000D02*
X181400001Y-73100000D01*
D11*
X173200000Y-70400000D02*
X173200000Y-69700000D01*
D10*
X173200000Y-72750000D02*
X173000000Y-72750000D01*
D11*
X173200000Y-72900000D02*
X174600000Y-72900000D01*
D10*
X173220000Y-70500000D02*
X173220000Y-72750000D01*
D12*
X173300000Y-69800000D02*
X174700000Y-69800000D01*
D13*
X173700000Y-72500000D02*
X173700000Y-70000000D01*
D14*
X175000000Y-71300000D02*
X181700000Y-71300000D01*
D10*
X178000000Y-69500000D02*
X173000000Y-69500000D01*
D15*
X178970600Y-61150000D02*
X181020600Y-61150000D01*
X178970600Y-62600000D02*
X178970600Y-61150000D01*
X181020600Y-61150000D02*
X181020600Y-62600000D01*
X181020600Y-62600000D02*
X178970600Y-62600000D01*
D16*
X181770000Y-71600000D02*
X181770000Y-69360000D01*
D17*
X182900000Y-68100000D02*
X182900000Y-69899999D01*
D10*
X183270000Y-70200000D02*
X183270000Y-67960000D01*
D12*
X183300000Y-67800000D02*
X180600000Y-67800000D01*
D10*
X183300000Y-67960000D02*
X183500000Y-67960000D01*
D15*
X183400000Y-70300001D02*
X183400000Y-71200000D01*
D10*
X183500000Y-67600000D02*
X180220000Y-67600000D01*
X183500000Y-67600000D02*
X183500000Y-67960000D01*
X183500000Y-70200000D02*
X183300000Y-70200000D01*
X183500000Y-71200000D02*
X183500000Y-70200000D01*
X180216318Y-67621471D02*
G75*
G02*
X178000000Y-69500000I-2151317J291470D01*
G01*
D13*
X180616318Y-68021471D02*
G75*
G02*
X178400000Y-69900000I-2151317J291470D01*
G01*
D10*
X183500000Y-71199999D02*
G75*
G02*
X181400001Y-73100001I-1999999J99997D01*
G01*
X192100000Y-74300000D02*
X192100000Y-75300000D01*
X192100000Y-75300000D02*
X192300000Y-75300000D01*
X192100000Y-77550000D02*
X192100000Y-77900000D01*
X192100000Y-77900000D02*
X200500001Y-77900000D01*
D11*
X192300000Y-75200000D02*
X192300000Y-74500000D01*
D10*
X192300000Y-77550000D02*
X192100000Y-77550000D01*
D11*
X192300000Y-77700000D02*
X193700000Y-77700000D01*
D10*
X192320000Y-75300000D02*
X192320000Y-77550000D01*
D12*
X192400000Y-74600000D02*
X193800000Y-74600000D01*
D13*
X192800000Y-77300000D02*
X192800000Y-74800000D01*
D14*
X194100000Y-76100000D02*
X200800000Y-76100000D01*
D10*
X197100000Y-74300000D02*
X192100000Y-74300000D01*
D15*
X198070600Y-65950000D02*
X200120600Y-65950000D01*
X198070600Y-67400000D02*
X198070600Y-65950000D01*
X200120600Y-65950000D02*
X200120600Y-67400000D01*
X200120600Y-67400000D02*
X198070600Y-67400000D01*
D16*
X200870000Y-76400000D02*
X200870000Y-74160000D01*
D17*
X202000000Y-72900000D02*
X202000000Y-74699999D01*
D10*
X202370000Y-75000000D02*
X202370000Y-72760000D01*
D12*
X202400000Y-72600000D02*
X199700000Y-72600000D01*
D10*
X202400000Y-72760000D02*
X202600000Y-72760000D01*
D15*
X202500000Y-75100001D02*
X202500000Y-76000000D01*
D10*
X202600000Y-72400000D02*
X199320000Y-72400000D01*
X202600000Y-72400000D02*
X202600000Y-72760000D01*
X202600000Y-75000000D02*
X202400000Y-75000000D01*
X202600000Y-76000000D02*
X202600000Y-75000000D01*
X199316318Y-72421471D02*
G75*
G02*
X197100000Y-74300000I-2151317J291470D01*
G01*
D13*
X199716318Y-72821471D02*
G75*
G02*
X197500000Y-74700000I-2151317J291470D01*
G01*
D10*
X202600000Y-75999999D02*
G75*
G02*
X200500001Y-77900001I-1999999J99997D01*
G01*
X211100000Y-74300000D02*
X211100000Y-75300000D01*
X211100000Y-75300000D02*
X211300000Y-75300000D01*
X211100000Y-77550000D02*
X211100000Y-77900000D01*
X211100000Y-77900000D02*
X219500001Y-77900000D01*
D11*
X211300000Y-75200000D02*
X211300000Y-74500000D01*
D10*
X211300000Y-77550000D02*
X211100000Y-77550000D01*
D11*
X211300000Y-77700000D02*
X212700000Y-77700000D01*
D10*
X211320000Y-75300000D02*
X211320000Y-77550000D01*
D12*
X211400000Y-74600000D02*
X212800000Y-74600000D01*
D13*
X211800000Y-77300000D02*
X211800000Y-74800000D01*
D14*
X213100000Y-76100000D02*
X219800000Y-76100000D01*
D10*
X216100000Y-74300000D02*
X211100000Y-74300000D01*
D15*
X217070600Y-65950000D02*
X219120600Y-65950000D01*
X217070600Y-67400000D02*
X217070600Y-65950000D01*
X219120600Y-65950000D02*
X219120600Y-67400000D01*
X219120600Y-67400000D02*
X217070600Y-67400000D01*
D16*
X219870000Y-76400000D02*
X219870000Y-74160000D01*
D17*
X221000000Y-72900000D02*
X221000000Y-74699999D01*
D10*
X221370000Y-75000000D02*
X221370000Y-72760000D01*
D12*
X221400000Y-72600000D02*
X218700000Y-72600000D01*
D10*
X221400000Y-72760000D02*
X221600000Y-72760000D01*
D15*
X221500000Y-75100001D02*
X221500000Y-76000000D01*
D10*
X221600000Y-72400000D02*
X218320000Y-72400000D01*
X221600000Y-72400000D02*
X221600000Y-72760000D01*
X221600000Y-75000000D02*
X221400000Y-75000000D01*
X221600000Y-76000000D02*
X221600000Y-75000000D01*
X218316318Y-72421471D02*
G75*
G02*
X216100000Y-74300000I-2151317J291470D01*
G01*
D13*
X218716318Y-72821471D02*
G75*
G02*
X216500000Y-74700000I-2151317J291470D01*
G01*
D10*
X221600000Y-75999999D02*
G75*
G02*
X219500001Y-77900001I-1999999J99997D01*
G01*
X115900000Y-91100000D02*
X115900000Y-92100000D01*
X115900000Y-92100000D02*
X116100000Y-92100000D01*
X115900000Y-94350000D02*
X115900000Y-94700000D01*
X115900000Y-94700000D02*
X124300001Y-94700000D01*
D11*
X116100000Y-92000000D02*
X116100000Y-91300000D01*
D10*
X116100000Y-94350000D02*
X115900000Y-94350000D01*
D11*
X116100000Y-94500000D02*
X117500000Y-94500000D01*
D10*
X116120000Y-92100000D02*
X116120000Y-94350000D01*
D12*
X116200000Y-91400000D02*
X117600000Y-91400000D01*
D13*
X116600000Y-94100000D02*
X116600000Y-91600000D01*
D14*
X117900000Y-92900000D02*
X124600000Y-92900000D01*
D10*
X120900000Y-91100000D02*
X115900000Y-91100000D01*
D15*
X121870600Y-82750000D02*
X123920600Y-82750000D01*
X121870600Y-84200000D02*
X121870600Y-82750000D01*
X123920600Y-82750000D02*
X123920600Y-84200000D01*
X123920600Y-84200000D02*
X121870600Y-84200000D01*
D16*
X124670000Y-93200000D02*
X124670000Y-90960000D01*
D17*
X125800000Y-89700000D02*
X125800000Y-91499999D01*
D10*
X126170000Y-91800000D02*
X126170000Y-89560000D01*
D12*
X126200000Y-89400000D02*
X123500000Y-89400000D01*
D10*
X126200000Y-89560000D02*
X126400000Y-89560000D01*
D15*
X126300000Y-91900001D02*
X126300000Y-92800000D01*
D10*
X126400000Y-89200000D02*
X123120000Y-89200000D01*
X126400000Y-89200000D02*
X126400000Y-89560000D01*
X126400000Y-91800000D02*
X126200000Y-91800000D01*
X126400000Y-92800000D02*
X126400000Y-91800000D01*
X123116318Y-89221471D02*
G75*
G02*
X120900000Y-91100000I-2151317J291470D01*
G01*
D13*
X123516318Y-89621471D02*
G75*
G02*
X121300000Y-91500000I-2151317J291470D01*
G01*
D10*
X126400000Y-92799999D02*
G75*
G02*
X124300001Y-94700001I-1999999J99997D01*
G01*
X134900000Y-88600000D02*
X134900000Y-89600000D01*
X134900000Y-89600000D02*
X135100000Y-89600000D01*
X134900000Y-91850000D02*
X134900000Y-92200000D01*
X134900000Y-92200000D02*
X143300001Y-92200000D01*
D11*
X135100000Y-89500000D02*
X135100000Y-88800000D01*
D10*
X135100000Y-91850000D02*
X134900000Y-91850000D01*
D11*
X135100000Y-92000000D02*
X136500000Y-92000000D01*
D10*
X135120000Y-89600000D02*
X135120000Y-91850000D01*
D12*
X135200000Y-88900000D02*
X136600000Y-88900000D01*
D13*
X135600000Y-91600000D02*
X135600000Y-89100000D01*
D14*
X136900000Y-90400000D02*
X143600000Y-90400000D01*
D10*
X139900000Y-88600000D02*
X134900000Y-88600000D01*
D15*
X140870600Y-80250000D02*
X142920600Y-80250000D01*
X140870600Y-81700000D02*
X140870600Y-80250000D01*
X142920600Y-80250000D02*
X142920600Y-81700000D01*
X142920600Y-81700000D02*
X140870600Y-81700000D01*
D16*
X143670000Y-90700000D02*
X143670000Y-88460000D01*
D17*
X144800000Y-87200000D02*
X144800000Y-88999999D01*
D10*
X145170000Y-89300000D02*
X145170000Y-87060000D01*
D12*
X145200000Y-86900000D02*
X142500000Y-86900000D01*
D10*
X145200000Y-87060000D02*
X145400000Y-87060000D01*
D15*
X145300000Y-89400001D02*
X145300000Y-90300000D01*
D10*
X145400000Y-86700000D02*
X142120000Y-86700000D01*
X145400000Y-86700000D02*
X145400000Y-87060000D01*
X145400000Y-89300000D02*
X145200000Y-89300000D01*
X145400000Y-90300000D02*
X145400000Y-89300000D01*
X142116318Y-86721471D02*
G75*
G02*
X139900000Y-88600000I-2151317J291470D01*
G01*
D13*
X142516318Y-87121471D02*
G75*
G02*
X140300000Y-89000000I-2151317J291470D01*
G01*
D10*
X145400000Y-90299999D02*
G75*
G02*
X143300001Y-92200001I-1999999J99997D01*
G01*
X154000000Y-86190000D02*
X154000000Y-87190000D01*
X154000000Y-87190000D02*
X154200000Y-87190000D01*
X154000000Y-89440000D02*
X154000000Y-89790000D01*
X154000000Y-89790000D02*
X162400001Y-89790000D01*
D11*
X154200000Y-87090000D02*
X154200000Y-86390000D01*
D10*
X154200000Y-89440000D02*
X154000000Y-89440000D01*
D11*
X154200000Y-89590000D02*
X155600000Y-89590000D01*
D10*
X154220000Y-87190000D02*
X154220000Y-89440000D01*
D12*
X154300000Y-86490000D02*
X155700000Y-86490000D01*
D13*
X154700000Y-89190000D02*
X154700000Y-86690000D01*
D14*
X156000000Y-87990000D02*
X162700000Y-87990000D01*
D10*
X159000000Y-86190000D02*
X154000000Y-86190000D01*
D15*
X159970600Y-77840000D02*
X162020600Y-77840000D01*
X159970600Y-79290000D02*
X159970600Y-77840000D01*
X162020600Y-77840000D02*
X162020600Y-79290000D01*
X162020600Y-79290000D02*
X159970600Y-79290000D01*
D16*
X162770000Y-88290000D02*
X162770000Y-86050000D01*
D17*
X163900000Y-84790000D02*
X163900000Y-86589999D01*
D10*
X164270000Y-86890000D02*
X164270000Y-84650000D01*
D12*
X164300000Y-84490000D02*
X161600000Y-84490000D01*
D10*
X164300000Y-84650000D02*
X164500000Y-84650000D01*
D15*
X164400000Y-86990001D02*
X164400000Y-87890000D01*
D10*
X164500000Y-84290000D02*
X161220000Y-84290000D01*
X164500000Y-84290000D02*
X164500000Y-84650000D01*
X164500000Y-86890000D02*
X164300000Y-86890000D01*
X164500000Y-87890000D02*
X164500000Y-86890000D01*
X161216318Y-84311471D02*
G75*
G02*
X159000000Y-86190000I-2151317J291470D01*
G01*
D13*
X161616318Y-84711471D02*
G75*
G02*
X159400000Y-86590000I-2151317J291470D01*
G01*
D10*
X164500000Y-87889999D02*
G75*
G02*
X162400001Y-89790001I-1999999J99997D01*
G01*
X173000000Y-88600000D02*
X173000000Y-89600000D01*
X173000000Y-89600000D02*
X173200000Y-89600000D01*
X173000000Y-91850000D02*
X173000000Y-92200000D01*
X173000000Y-92200000D02*
X181400001Y-92200000D01*
D11*
X173200000Y-89500000D02*
X173200000Y-88800000D01*
D10*
X173200000Y-91850000D02*
X173000000Y-91850000D01*
D11*
X173200000Y-92000000D02*
X174600000Y-92000000D01*
D10*
X173220000Y-89600000D02*
X173220000Y-91850000D01*
D12*
X173300000Y-88900000D02*
X174700000Y-88900000D01*
D13*
X173700000Y-91600000D02*
X173700000Y-89100000D01*
D14*
X175000000Y-90400000D02*
X181700000Y-90400000D01*
D10*
X178000000Y-88600000D02*
X173000000Y-88600000D01*
D15*
X178970600Y-80250000D02*
X181020600Y-80250000D01*
X178970600Y-81700000D02*
X178970600Y-80250000D01*
X181020600Y-80250000D02*
X181020600Y-81700000D01*
X181020600Y-81700000D02*
X178970600Y-81700000D01*
D16*
X181770000Y-90700000D02*
X181770000Y-88460000D01*
D17*
X182900000Y-87200000D02*
X182900000Y-88999999D01*
D10*
X183270000Y-89300000D02*
X183270000Y-87060000D01*
D12*
X183300000Y-86900000D02*
X180600000Y-86900000D01*
D10*
X183300000Y-87060000D02*
X183500000Y-87060000D01*
D15*
X183400000Y-89400001D02*
X183400000Y-90300000D01*
D10*
X183500000Y-86700000D02*
X180220000Y-86700000D01*
X183500000Y-86700000D02*
X183500000Y-87060000D01*
X183500000Y-89300000D02*
X183300000Y-89300000D01*
X183500000Y-90300000D02*
X183500000Y-89300000D01*
X180216318Y-86721471D02*
G75*
G02*
X178000000Y-88600000I-2151317J291470D01*
G01*
D13*
X180616318Y-87121471D02*
G75*
G02*
X178400000Y-89000000I-2151317J291470D01*
G01*
D10*
X183500000Y-90299999D02*
G75*
G02*
X181400001Y-92200001I-1999999J99997D01*
G01*
X192100000Y-93500000D02*
X192100000Y-94500000D01*
X192100000Y-94500000D02*
X192300000Y-94500000D01*
X192100000Y-96750000D02*
X192100000Y-97100000D01*
X192100000Y-97100000D02*
X200500001Y-97100000D01*
D11*
X192300000Y-94400000D02*
X192300000Y-93700000D01*
D10*
X192300000Y-96750000D02*
X192100000Y-96750000D01*
D11*
X192300000Y-96900000D02*
X193700000Y-96900000D01*
D10*
X192320000Y-94500000D02*
X192320000Y-96750000D01*
D12*
X192400000Y-93800000D02*
X193800000Y-93800000D01*
D13*
X192800000Y-96500000D02*
X192800000Y-94000000D01*
D14*
X194100000Y-95300000D02*
X200800000Y-95300000D01*
D10*
X197100000Y-93500000D02*
X192100000Y-93500000D01*
D15*
X198070600Y-85150000D02*
X200120600Y-85150000D01*
X198070600Y-86600000D02*
X198070600Y-85150000D01*
X200120600Y-85150000D02*
X200120600Y-86600000D01*
X200120600Y-86600000D02*
X198070600Y-86600000D01*
D16*
X200870000Y-95600000D02*
X200870000Y-93360000D01*
D17*
X202000000Y-92100000D02*
X202000000Y-93899999D01*
D10*
X202370000Y-94200000D02*
X202370000Y-91960000D01*
D12*
X202400000Y-91800000D02*
X199700000Y-91800000D01*
D10*
X202400000Y-91960000D02*
X202600000Y-91960000D01*
D15*
X202500000Y-94300001D02*
X202500000Y-95200000D01*
D10*
X202600000Y-91600000D02*
X199320000Y-91600000D01*
X202600000Y-91600000D02*
X202600000Y-91960000D01*
X202600000Y-94200000D02*
X202400000Y-94200000D01*
X202600000Y-95200000D02*
X202600000Y-94200000D01*
X199316318Y-91621471D02*
G75*
G02*
X197100000Y-93500000I-2151317J291470D01*
G01*
D13*
X199716318Y-92021471D02*
G75*
G02*
X197500000Y-93900000I-2151317J291470D01*
G01*
D10*
X202600000Y-95199999D02*
G75*
G02*
X200500001Y-97100001I-1999999J99997D01*
G01*
X211100000Y-93500000D02*
X211100000Y-94500000D01*
X211100000Y-94500000D02*
X211300000Y-94500000D01*
X211100000Y-96750000D02*
X211100000Y-97100000D01*
X211100000Y-97100000D02*
X219500001Y-97100000D01*
D11*
X211300000Y-94400000D02*
X211300000Y-93700000D01*
D10*
X211300000Y-96750000D02*
X211100000Y-96750000D01*
D11*
X211300000Y-96900000D02*
X212700000Y-96900000D01*
D10*
X211320000Y-94500000D02*
X211320000Y-96750000D01*
D12*
X211400000Y-93800000D02*
X212800000Y-93800000D01*
D13*
X211800000Y-96500000D02*
X211800000Y-94000000D01*
D14*
X213100000Y-95300000D02*
X219800000Y-95300000D01*
D10*
X216100000Y-93500000D02*
X211100000Y-93500000D01*
D15*
X217070600Y-85150000D02*
X219120600Y-85150000D01*
X217070600Y-86600000D02*
X217070600Y-85150000D01*
X219120600Y-85150000D02*
X219120600Y-86600000D01*
X219120600Y-86600000D02*
X217070600Y-86600000D01*
D16*
X219870000Y-95600000D02*
X219870000Y-93360000D01*
D17*
X221000000Y-92100000D02*
X221000000Y-93899999D01*
D10*
X221370000Y-94200000D02*
X221370000Y-91960000D01*
D12*
X221400000Y-91800000D02*
X218700000Y-91800000D01*
D10*
X221400000Y-91960000D02*
X221600000Y-91960000D01*
D15*
X221500000Y-94300001D02*
X221500000Y-95200000D01*
D10*
X221600000Y-91600000D02*
X218320000Y-91600000D01*
X221600000Y-91600000D02*
X221600000Y-91960000D01*
X221600000Y-94200000D02*
X221400000Y-94200000D01*
X221600000Y-95200000D02*
X221600000Y-94200000D01*
X218316318Y-91621471D02*
G75*
G02*
X216100000Y-93500000I-2151317J291470D01*
G01*
D13*
X218716318Y-92021471D02*
G75*
G02*
X216500000Y-93900000I-2151317J291470D01*
G01*
D10*
X221600000Y-95199999D02*
G75*
G02*
X219500001Y-97100001I-1999999J99997D01*
G01*
X115900000Y-110100000D02*
X115900000Y-111100000D01*
X115900000Y-111100000D02*
X116100000Y-111100000D01*
X115900000Y-113350000D02*
X115900000Y-113700000D01*
X115900000Y-113700000D02*
X124300001Y-113700000D01*
D11*
X116100000Y-111000000D02*
X116100000Y-110300000D01*
D10*
X116100000Y-113350000D02*
X115900000Y-113350000D01*
D11*
X116100000Y-113500000D02*
X117500000Y-113500000D01*
D10*
X116120000Y-111100000D02*
X116120000Y-113350000D01*
D12*
X116200000Y-110400000D02*
X117600000Y-110400000D01*
D13*
X116600000Y-113100000D02*
X116600000Y-110600000D01*
D14*
X117900000Y-111900000D02*
X124600000Y-111900000D01*
D10*
X120900000Y-110100000D02*
X115900000Y-110100000D01*
D15*
X121870600Y-101750000D02*
X123920600Y-101750000D01*
X121870600Y-103200000D02*
X121870600Y-101750000D01*
X123920600Y-101750000D02*
X123920600Y-103200000D01*
X123920600Y-103200000D02*
X121870600Y-103200000D01*
D16*
X124670000Y-112200000D02*
X124670000Y-109960000D01*
D17*
X125800000Y-108700000D02*
X125800000Y-110499999D01*
D10*
X126170000Y-110800000D02*
X126170000Y-108560000D01*
D12*
X126200000Y-108400000D02*
X123500000Y-108400000D01*
D10*
X126200000Y-108560000D02*
X126400000Y-108560000D01*
D15*
X126300000Y-110900001D02*
X126300000Y-111800000D01*
D10*
X126400000Y-108200000D02*
X123120000Y-108200000D01*
X126400000Y-108200000D02*
X126400000Y-108560000D01*
X126400000Y-110800000D02*
X126200000Y-110800000D01*
X126400000Y-111800000D02*
X126400000Y-110800000D01*
X123116318Y-108221471D02*
G75*
G02*
X120900000Y-110100000I-2151317J291470D01*
G01*
D13*
X123516318Y-108621471D02*
G75*
G02*
X121300000Y-110500000I-2151317J291470D01*
G01*
D10*
X126400000Y-111799999D02*
G75*
G02*
X124300001Y-113700001I-1999999J99997D01*
G01*
X134900000Y-107700000D02*
X134900000Y-108700000D01*
X134900000Y-108700000D02*
X135100000Y-108700000D01*
X134900000Y-110950000D02*
X134900000Y-111300000D01*
X134900000Y-111300000D02*
X143300001Y-111300000D01*
D11*
X135100000Y-108600000D02*
X135100000Y-107900000D01*
D10*
X135100000Y-110950000D02*
X134900000Y-110950000D01*
D11*
X135100000Y-111100000D02*
X136500000Y-111100000D01*
D10*
X135120000Y-108700000D02*
X135120000Y-110950000D01*
D12*
X135200000Y-108000000D02*
X136600000Y-108000000D01*
D13*
X135600000Y-110700000D02*
X135600000Y-108200000D01*
D14*
X136900000Y-109500000D02*
X143600000Y-109500000D01*
D10*
X139900000Y-107700000D02*
X134900000Y-107700000D01*
D15*
X140870600Y-99350000D02*
X142920600Y-99350000D01*
X140870600Y-100800000D02*
X140870600Y-99350000D01*
X142920600Y-99350000D02*
X142920600Y-100800000D01*
X142920600Y-100800000D02*
X140870600Y-100800000D01*
D16*
X143670000Y-109800000D02*
X143670000Y-107560000D01*
D17*
X144800000Y-106300000D02*
X144800000Y-108099999D01*
D10*
X145170000Y-108400000D02*
X145170000Y-106160000D01*
D12*
X145200000Y-106000000D02*
X142500000Y-106000000D01*
D10*
X145200000Y-106160000D02*
X145400000Y-106160000D01*
D15*
X145300000Y-108500001D02*
X145300000Y-109400000D01*
D10*
X145400000Y-105800000D02*
X142120000Y-105800000D01*
X145400000Y-105800000D02*
X145400000Y-106160000D01*
X145400000Y-108400000D02*
X145200000Y-108400000D01*
X145400000Y-109400000D02*
X145400000Y-108400000D01*
X142116318Y-105821471D02*
G75*
G02*
X139900000Y-107700000I-2151317J291470D01*
G01*
D13*
X142516318Y-106221471D02*
G75*
G02*
X140300000Y-108100000I-2151317J291470D01*
G01*
D10*
X145400000Y-109399999D02*
G75*
G02*
X143300001Y-111300001I-1999999J99997D01*
G01*
X154000000Y-105190000D02*
X154000000Y-106190000D01*
X154000000Y-106190000D02*
X154200000Y-106190000D01*
X154000000Y-108440000D02*
X154000000Y-108790000D01*
X154000000Y-108790000D02*
X162400001Y-108790000D01*
D11*
X154200000Y-106090000D02*
X154200000Y-105390000D01*
D10*
X154200000Y-108440000D02*
X154000000Y-108440000D01*
D11*
X154200000Y-108590000D02*
X155600000Y-108590000D01*
D10*
X154220000Y-106190000D02*
X154220000Y-108440000D01*
D12*
X154300000Y-105490000D02*
X155700000Y-105490000D01*
D13*
X154700000Y-108190000D02*
X154700000Y-105690000D01*
D14*
X156000000Y-106990000D02*
X162700000Y-106990000D01*
D10*
X159000000Y-105190000D02*
X154000000Y-105190000D01*
D15*
X159970600Y-96840000D02*
X162020600Y-96840000D01*
X159970600Y-98290000D02*
X159970600Y-96840000D01*
X162020600Y-96840000D02*
X162020600Y-98290000D01*
X162020600Y-98290000D02*
X159970600Y-98290000D01*
D16*
X162770000Y-107290000D02*
X162770000Y-105050000D01*
D17*
X163900000Y-103790000D02*
X163900000Y-105589999D01*
D10*
X164270000Y-105890000D02*
X164270000Y-103650000D01*
D12*
X164300000Y-103490000D02*
X161600000Y-103490000D01*
D10*
X164300000Y-103650000D02*
X164500000Y-103650000D01*
D15*
X164400000Y-105990001D02*
X164400000Y-106890000D01*
D10*
X164500000Y-103290000D02*
X161220000Y-103290000D01*
X164500000Y-103290000D02*
X164500000Y-103650000D01*
X164500000Y-105890000D02*
X164300000Y-105890000D01*
X164500000Y-106890000D02*
X164500000Y-105890000D01*
X161216318Y-103311471D02*
G75*
G02*
X159000000Y-105190000I-2151317J291470D01*
G01*
D13*
X161616318Y-103711471D02*
G75*
G02*
X159400000Y-105590000I-2151317J291470D01*
G01*
D10*
X164500000Y-106889999D02*
G75*
G02*
X162400001Y-108790001I-1999999J99997D01*
G01*
X173000000Y-107700000D02*
X173000000Y-108700000D01*
X173000000Y-108700000D02*
X173200000Y-108700000D01*
X173000000Y-110950000D02*
X173000000Y-111300000D01*
X173000000Y-111300000D02*
X181400001Y-111300000D01*
D11*
X173200000Y-108600000D02*
X173200000Y-107900000D01*
D10*
X173200000Y-110950000D02*
X173000000Y-110950000D01*
D11*
X173200000Y-111100000D02*
X174600000Y-111100000D01*
D10*
X173220000Y-108700000D02*
X173220000Y-110950000D01*
D12*
X173300000Y-108000000D02*
X174700000Y-108000000D01*
D13*
X173700000Y-110700000D02*
X173700000Y-108200000D01*
D14*
X175000000Y-109500000D02*
X181700000Y-109500000D01*
D10*
X178000000Y-107700000D02*
X173000000Y-107700000D01*
D15*
X178970600Y-99350000D02*
X181020600Y-99350000D01*
X178970600Y-100800000D02*
X178970600Y-99350000D01*
X181020600Y-99350000D02*
X181020600Y-100800000D01*
X181020600Y-100800000D02*
X178970600Y-100800000D01*
D16*
X181770000Y-109800000D02*
X181770000Y-107560000D01*
D17*
X182900000Y-106300000D02*
X182900000Y-108099999D01*
D10*
X183270000Y-108400000D02*
X183270000Y-106160000D01*
D12*
X183300000Y-106000000D02*
X180600000Y-106000000D01*
D10*
X183300000Y-106160000D02*
X183500000Y-106160000D01*
D15*
X183400000Y-108500001D02*
X183400000Y-109400000D01*
D10*
X183500000Y-105800000D02*
X180220000Y-105800000D01*
X183500000Y-105800000D02*
X183500000Y-106160000D01*
X183500000Y-108400000D02*
X183300000Y-108400000D01*
X183500000Y-109400000D02*
X183500000Y-108400000D01*
X180216318Y-105821471D02*
G75*
G02*
X178000000Y-107700000I-2151317J291470D01*
G01*
D13*
X180616318Y-106221471D02*
G75*
G02*
X178400000Y-108100000I-2151317J291470D01*
G01*
D10*
X183500000Y-109399999D02*
G75*
G02*
X181400001Y-111300001I-1999999J99997D01*
G01*
X192100000Y-112500000D02*
X192100000Y-113500000D01*
X192100000Y-113500000D02*
X192300000Y-113500000D01*
X192100000Y-115750000D02*
X192100000Y-116100000D01*
X192100000Y-116100000D02*
X200500001Y-116100000D01*
D11*
X192300000Y-113400000D02*
X192300000Y-112700000D01*
D10*
X192300000Y-115750000D02*
X192100000Y-115750000D01*
D11*
X192300000Y-115900000D02*
X193700000Y-115900000D01*
D10*
X192320000Y-113500000D02*
X192320000Y-115750000D01*
D12*
X192400000Y-112800000D02*
X193800000Y-112800000D01*
D13*
X192800000Y-115500000D02*
X192800000Y-113000000D01*
D14*
X194100000Y-114300000D02*
X200800000Y-114300000D01*
D10*
X197100000Y-112500000D02*
X192100000Y-112500000D01*
D15*
X198070600Y-104150000D02*
X200120600Y-104150000D01*
X198070600Y-105600000D02*
X198070600Y-104150000D01*
X200120600Y-104150000D02*
X200120600Y-105600000D01*
X200120600Y-105600000D02*
X198070600Y-105600000D01*
D16*
X200870000Y-114600000D02*
X200870000Y-112360000D01*
D17*
X202000000Y-111100000D02*
X202000000Y-112899999D01*
D10*
X202370000Y-113200000D02*
X202370000Y-110960000D01*
D12*
X202400000Y-110800000D02*
X199700000Y-110800000D01*
D10*
X202400000Y-110960000D02*
X202600000Y-110960000D01*
D15*
X202500000Y-113300001D02*
X202500000Y-114200000D01*
D10*
X202600000Y-110600000D02*
X199320000Y-110600000D01*
X202600000Y-110600000D02*
X202600000Y-110960000D01*
X202600000Y-113200000D02*
X202400000Y-113200000D01*
X202600000Y-114200000D02*
X202600000Y-113200000D01*
X199316318Y-110621471D02*
G75*
G02*
X197100000Y-112500000I-2151317J291470D01*
G01*
D13*
X199716318Y-111021471D02*
G75*
G02*
X197500000Y-112900000I-2151317J291470D01*
G01*
D10*
X202600000Y-114199999D02*
G75*
G02*
X200500001Y-116100001I-1999999J99997D01*
G01*
X211150000Y-112500000D02*
X211150000Y-113500000D01*
X211150000Y-113500000D02*
X211350000Y-113500000D01*
X211150000Y-115750000D02*
X211150000Y-116100000D01*
X211150000Y-116100000D02*
X219550001Y-116100000D01*
D11*
X211350000Y-113400000D02*
X211350000Y-112700000D01*
D10*
X211350000Y-115750000D02*
X211150000Y-115750000D01*
D11*
X211350000Y-115900000D02*
X212750000Y-115900000D01*
D10*
X211370000Y-113500000D02*
X211370000Y-115750000D01*
D12*
X211450000Y-112800000D02*
X212850000Y-112800000D01*
D13*
X211850000Y-115500000D02*
X211850000Y-113000000D01*
D14*
X213150000Y-114300000D02*
X219850000Y-114300000D01*
D10*
X216150000Y-112500000D02*
X211150000Y-112500000D01*
D15*
X217120600Y-104150000D02*
X219170600Y-104150000D01*
X217120600Y-105600000D02*
X217120600Y-104150000D01*
X219170600Y-104150000D02*
X219170600Y-105600000D01*
X219170600Y-105600000D02*
X217120600Y-105600000D01*
D16*
X219920000Y-114600000D02*
X219920000Y-112360000D01*
D17*
X221050000Y-111100000D02*
X221050000Y-112899999D01*
D10*
X221420000Y-113200000D02*
X221420000Y-110960000D01*
D12*
X221450000Y-110800000D02*
X218750000Y-110800000D01*
D10*
X221450000Y-110960000D02*
X221650000Y-110960000D01*
D15*
X221550000Y-113300001D02*
X221550000Y-114200000D01*
D10*
X221650000Y-110600000D02*
X218370000Y-110600000D01*
X221650000Y-110600000D02*
X221650000Y-110960000D01*
X221650000Y-113200000D02*
X221450000Y-113200000D01*
X221650000Y-114200000D02*
X221650000Y-113200000D01*
X218366318Y-110621471D02*
G75*
G02*
X216150000Y-112500000I-2151317J291470D01*
G01*
D13*
X218766318Y-111021471D02*
G75*
G02*
X216550000Y-112900000I-2151317J291470D01*
G01*
D10*
X221650000Y-114199999D02*
G75*
G02*
X219550001Y-116100001I-1999999J99997D01*
G01*
X88694232Y-132716283D02*
X92894233Y-139990897D01*
D11*
X88967437Y-132789488D02*
X89667437Y-134001924D01*
D10*
X88997341Y-132541283D02*
X88694232Y-132716283D01*
X89097341Y-132714488D02*
X88997341Y-132541283D01*
D13*
X89563848Y-133022501D02*
X91728911Y-131772501D01*
D10*
X90945898Y-131416283D02*
X91045898Y-131589488D01*
X91055898Y-131606809D02*
X89107341Y-132731809D01*
D11*
X91132501Y-131539488D02*
X91738719Y-131189488D01*
D14*
X91253078Y-133548334D02*
X94603078Y-139350704D01*
D12*
X91702116Y-131326091D02*
X92402116Y-132538526D01*
D10*
X91811924Y-130916283D02*
X90945898Y-131416283D01*
X94311924Y-135246410D02*
X91811924Y-130916283D01*
D16*
X94378270Y-139561326D02*
X96318167Y-138441326D01*
D10*
X95589681Y-140859550D02*
X96455706Y-140359550D01*
D15*
X96319103Y-140322948D02*
X95539681Y-140772947D01*
D10*
X96340706Y-140160364D02*
X98280603Y-139040364D01*
X96455706Y-140359550D02*
X96355706Y-140186345D01*
D17*
X97974359Y-138789935D02*
X96415514Y-139689934D01*
D10*
X98295603Y-139066345D02*
X98395603Y-139239550D01*
D12*
X98434167Y-138986345D02*
X97084167Y-136648076D01*
D10*
X98707372Y-139059550D02*
X97067372Y-136218987D01*
X98707372Y-139059550D02*
X98395603Y-139239550D01*
D15*
X100772799Y-132636974D02*
X102028536Y-131911974D01*
X101797799Y-134412326D02*
X100772799Y-132636974D01*
X102028536Y-131911974D02*
X103053536Y-133687326D01*
X103053536Y-133687326D02*
X101797799Y-134412326D01*
D10*
X95589681Y-140859549D02*
G75*
G02*
X92894233Y-139990897I-913399J1782048D01*
G01*
D13*
X96900526Y-136772944D02*
G75*
G02*
X94165513Y-135792821I-823238J2008831D01*
G01*
D10*
X97046937Y-136226533D02*
G75*
G02*
X94311923Y-135246410I-823238J2008833D01*
G01*
X134900000Y-126700000D02*
X134900000Y-127700000D01*
X134900000Y-127700000D02*
X135100000Y-127700000D01*
X134900000Y-129950000D02*
X134900000Y-130300000D01*
X134900000Y-130300000D02*
X143300001Y-130300000D01*
D11*
X135100000Y-127600000D02*
X135100000Y-126900000D01*
D10*
X135100000Y-129950000D02*
X134900000Y-129950000D01*
D11*
X135100000Y-130100000D02*
X136500000Y-130100000D01*
D10*
X135120000Y-127700000D02*
X135120000Y-129950000D01*
D12*
X135200000Y-127000000D02*
X136600000Y-127000000D01*
D13*
X135600000Y-129700000D02*
X135600000Y-127200000D01*
D14*
X136900000Y-128500000D02*
X143600000Y-128500000D01*
D10*
X139900000Y-126700000D02*
X134900000Y-126700000D01*
D15*
X140870600Y-118350000D02*
X142920600Y-118350000D01*
X140870600Y-119800000D02*
X140870600Y-118350000D01*
X142920600Y-118350000D02*
X142920600Y-119800000D01*
X142920600Y-119800000D02*
X140870600Y-119800000D01*
D16*
X143670000Y-128800000D02*
X143670000Y-126560000D01*
D17*
X144800000Y-125300000D02*
X144800000Y-127099999D01*
D10*
X145170000Y-127400000D02*
X145170000Y-125160000D01*
D12*
X145200000Y-125000000D02*
X142500000Y-125000000D01*
D10*
X145200000Y-125160000D02*
X145400000Y-125160000D01*
D15*
X145300000Y-127500001D02*
X145300000Y-128400000D01*
D10*
X145400000Y-124800000D02*
X142120000Y-124800000D01*
X145400000Y-124800000D02*
X145400000Y-125160000D01*
X145400000Y-127400000D02*
X145200000Y-127400000D01*
X145400000Y-128400000D02*
X145400000Y-127400000D01*
X142116318Y-124821471D02*
G75*
G02*
X139900000Y-126700000I-2151317J291470D01*
G01*
D13*
X142516318Y-125221471D02*
G75*
G02*
X140300000Y-127100000I-2151317J291470D01*
G01*
D10*
X145400000Y-128399999D02*
G75*
G02*
X143300001Y-130300001I-1999999J99997D01*
G01*
X154000000Y-124290000D02*
X154000000Y-125290000D01*
X154000000Y-125290000D02*
X154200000Y-125290000D01*
X154000000Y-127540000D02*
X154000000Y-127890000D01*
X154000000Y-127890000D02*
X162400001Y-127890000D01*
D11*
X154200000Y-125190000D02*
X154200000Y-124490000D01*
D10*
X154200000Y-127540000D02*
X154000000Y-127540000D01*
D11*
X154200000Y-127690000D02*
X155600000Y-127690000D01*
D10*
X154220000Y-125290000D02*
X154220000Y-127540000D01*
D12*
X154300000Y-124590000D02*
X155700000Y-124590000D01*
D13*
X154700000Y-127290000D02*
X154700000Y-124790000D01*
D14*
X156000000Y-126090000D02*
X162700000Y-126090000D01*
D10*
X159000000Y-124290000D02*
X154000000Y-124290000D01*
D15*
X159970600Y-115940000D02*
X162020600Y-115940000D01*
X159970600Y-117390000D02*
X159970600Y-115940000D01*
X162020600Y-115940000D02*
X162020600Y-117390000D01*
X162020600Y-117390000D02*
X159970600Y-117390000D01*
D16*
X162770000Y-126390000D02*
X162770000Y-124150000D01*
D17*
X163900000Y-122890000D02*
X163900000Y-124689999D01*
D10*
X164270000Y-124990000D02*
X164270000Y-122750000D01*
D12*
X164300000Y-122590000D02*
X161600000Y-122590000D01*
D10*
X164300000Y-122750000D02*
X164500000Y-122750000D01*
D15*
X164400000Y-125090001D02*
X164400000Y-125990000D01*
D10*
X164500000Y-122390000D02*
X161220000Y-122390000D01*
X164500000Y-122390000D02*
X164500000Y-122750000D01*
X164500000Y-124990000D02*
X164300000Y-124990000D01*
X164500000Y-125990000D02*
X164500000Y-124990000D01*
X161216318Y-122411471D02*
G75*
G02*
X159000000Y-124290000I-2151317J291470D01*
G01*
D13*
X161616318Y-122811471D02*
G75*
G02*
X159400000Y-124690000I-2151317J291470D01*
G01*
D10*
X164500000Y-125989999D02*
G75*
G02*
X162400001Y-127890001I-1999999J99997D01*
G01*
X107000000Y-75100000D02*
X108800000Y-75100000D01*
X107000000Y-76900000D02*
X107000000Y-75100000D01*
X107000000Y-77700000D02*
X108800000Y-77700000D01*
X107000000Y-79500000D02*
X107000000Y-77700000D01*
X107000000Y-80200000D02*
X108800000Y-80200000D01*
X107000000Y-82000000D02*
X107000000Y-80200000D01*
X108800000Y-75100000D02*
X108800000Y-76900000D01*
X108800000Y-76900000D02*
X107000000Y-76900000D01*
X108800000Y-77700000D02*
X108800000Y-79500000D01*
X108800000Y-79500000D02*
X107000000Y-79500000D01*
X108800000Y-80200000D02*
X108800000Y-82000000D01*
X108800000Y-82000000D02*
X107000000Y-82000000D01*
X95430000Y-73330000D02*
X105590000Y-73330000D01*
X95430000Y-75870000D02*
X95430000Y-73330000D01*
X105590000Y-73330000D02*
X105590000Y-75870000D01*
X105590000Y-75870000D02*
X95430000Y-75870000D01*
X123105000Y-118270000D02*
X123105000Y-119770000D01*
X123105000Y-119770000D02*
X128505000Y-119770000D01*
X125305000Y-118520000D02*
X125305000Y-119520000D01*
X125405000Y-119020000D02*
X126305000Y-118520000D01*
X126305000Y-118520000D02*
X126305000Y-119520000D01*
X126305000Y-119520000D02*
X125405000Y-119020000D01*
X128505000Y-118270000D02*
X123105000Y-118270000D01*
X128505000Y-119770000D02*
X128505000Y-118270000D01*
D18*
X93900000Y-98600000D02*
X93900000Y-110400000D01*
X98000000Y-98600000D02*
X93900000Y-98600000D01*
X98000000Y-110400000D02*
X93900000Y-110400000D01*
X99500000Y-104500000D02*
X100500000Y-104500000D01*
X100000000Y-104000000D02*
X100000000Y-105000000D01*
X102000000Y-98600000D02*
X106100000Y-98600000D01*
X106100000Y-98600000D02*
X106100000Y-101000000D01*
X106100000Y-103200000D02*
X106100000Y-105800000D01*
X106100000Y-108000000D02*
X106100000Y-110400000D01*
X106100000Y-110400000D02*
X102000000Y-110400000D01*
X103000000Y-104500000D02*
G75*
G02*
X97000000Y-104500000I-3000000J0D01*
G01*
X97000000Y-104500000D02*
G75*
G02*
X103000000Y-104500000I3000000J0D01*
G01*
D15*
X121464200Y-57900000D02*
X123914200Y-57900000D01*
X121464200Y-59350000D02*
X121464200Y-57900000D01*
X123914200Y-57900000D02*
X123914200Y-59350000D01*
X123914200Y-59350000D02*
X121494200Y-59350000D01*
X155085800Y-53940000D02*
X157505800Y-53940000D01*
X155085800Y-55390000D02*
X155085800Y-53940000D01*
X157535800Y-53940000D02*
X157535800Y-55390000D01*
X157535800Y-55390000D02*
X155085800Y-55390000D01*
X198464200Y-59650000D02*
X200914200Y-59650000D01*
X198464200Y-61100000D02*
X198464200Y-59650000D01*
X200914200Y-59650000D02*
X200914200Y-61100000D01*
X200914200Y-61100000D02*
X198494200Y-61100000D01*
X105435800Y-124280000D02*
X107855800Y-124280000D01*
X105435800Y-125730000D02*
X105435800Y-124280000D01*
X107885800Y-124280000D02*
X107885800Y-125730000D01*
X107885800Y-125730000D02*
X105435800Y-125730000D01*
X145669400Y-118412600D02*
X148089400Y-118412600D01*
X145669400Y-119862600D02*
X145669400Y-118412600D01*
X148119400Y-118412600D02*
X148119400Y-119862600D01*
X148119400Y-119862600D02*
X145669400Y-119862600D01*
X181635800Y-120470000D02*
X184055800Y-120470000D01*
X181635800Y-121920000D02*
X181635800Y-120470000D01*
X184085800Y-120470000D02*
X184085800Y-121920000D01*
X184085800Y-121920000D02*
X181635800Y-121920000D01*
X102335800Y-86650000D02*
X104755800Y-86650000D01*
X102335800Y-88100000D02*
X102335800Y-86650000D01*
X104785800Y-86650000D02*
X104785800Y-88100000D01*
X104785800Y-88100000D02*
X102335800Y-88100000D01*
D10*
X184600000Y-95150000D02*
X186400000Y-95150000D01*
X184600000Y-96950000D02*
X184600000Y-95150000D01*
X184600000Y-97750000D02*
X186400000Y-97750000D01*
X184600000Y-99550000D02*
X184600000Y-97750000D01*
X184600000Y-100250000D02*
X186400000Y-100250000D01*
X184600000Y-102050000D02*
X184600000Y-100250000D01*
X186400000Y-95150000D02*
X186400000Y-96950000D01*
X186400000Y-96950000D02*
X184600000Y-96950000D01*
X186400000Y-97750000D02*
X186400000Y-99550000D01*
X186400000Y-99550000D02*
X184600000Y-99550000D01*
X186400000Y-100250000D02*
X186400000Y-102050000D01*
X186400000Y-102050000D02*
X184600000Y-102050000D01*
X175427000Y-113806600D02*
X177227000Y-113806600D01*
X175427000Y-115606600D02*
X175427000Y-113806600D01*
X177227000Y-113806600D02*
X177227000Y-115606600D01*
X177227000Y-115606600D02*
X175427000Y-115606600D01*
X177927000Y-113806600D02*
X179727000Y-113806600D01*
X177927000Y-115606600D02*
X177927000Y-113806600D01*
X179727000Y-113806600D02*
X179727000Y-115606600D01*
X179727000Y-115606600D02*
X177927000Y-115606600D01*
X180527000Y-113806600D02*
X182327000Y-113806600D01*
X180527000Y-115606600D02*
X180527000Y-113806600D01*
X182327000Y-113806600D02*
X182327000Y-115606600D01*
X182327000Y-115606600D02*
X180527000Y-115606600D01*
X111600000Y-79600000D02*
X113400000Y-79600000D01*
X111600000Y-81400000D02*
X111600000Y-79600000D01*
X111600000Y-82100000D02*
X113400000Y-82100000D01*
X111600000Y-83900000D02*
X111600000Y-82100000D01*
X111600000Y-84700000D02*
X113400000Y-84700000D01*
X111600000Y-86500000D02*
X111600000Y-84700000D01*
X113400000Y-79600000D02*
X113400000Y-81400000D01*
X113400000Y-81400000D02*
X111600000Y-81400000D01*
X113400000Y-82100000D02*
X113400000Y-83900000D01*
X113400000Y-83900000D02*
X111600000Y-83900000D01*
X113400000Y-84700000D02*
X113400000Y-86500000D01*
X113400000Y-86500000D02*
X111600000Y-86500000D01*
X173000000Y-126800000D02*
X173000000Y-127800000D01*
X173000000Y-127800000D02*
X173200000Y-127800000D01*
X173000000Y-130050000D02*
X173000000Y-130400000D01*
X173000000Y-130400000D02*
X181400001Y-130400000D01*
D11*
X173200000Y-127700000D02*
X173200000Y-127000000D01*
D10*
X173200000Y-130050000D02*
X173000000Y-130050000D01*
D11*
X173200000Y-130200000D02*
X174600000Y-130200000D01*
D10*
X173220000Y-127800000D02*
X173220000Y-130050000D01*
D12*
X173300000Y-127100000D02*
X174700000Y-127100000D01*
D13*
X173700000Y-129800000D02*
X173700000Y-127300000D01*
D14*
X175000000Y-128600000D02*
X181700000Y-128600000D01*
D10*
X178000000Y-126800000D02*
X173000000Y-126800000D01*
D15*
X178970600Y-118450000D02*
X181020600Y-118450000D01*
X178970600Y-119900000D02*
X178970600Y-118450000D01*
X181020600Y-118450000D02*
X181020600Y-119900000D01*
X181020600Y-119900000D02*
X178970600Y-119900000D01*
D16*
X181770000Y-128900000D02*
X181770000Y-126660000D01*
D17*
X182900000Y-125400000D02*
X182900000Y-127199999D01*
D10*
X183270000Y-127500000D02*
X183270000Y-125260000D01*
D12*
X183300000Y-125100000D02*
X180600000Y-125100000D01*
D10*
X183300000Y-125260000D02*
X183500000Y-125260000D01*
D15*
X183400000Y-127600001D02*
X183400000Y-128500000D01*
D10*
X183500000Y-124900000D02*
X180220000Y-124900000D01*
X183500000Y-124900000D02*
X183500000Y-125260000D01*
X183500000Y-127500000D02*
X183300000Y-127500000D01*
X183500000Y-128500000D02*
X183500000Y-127500000D01*
X180216318Y-124921471D02*
G75*
G02*
X178000000Y-126800000I-2151317J291470D01*
G01*
D13*
X180616318Y-125321471D02*
G75*
G02*
X178400000Y-127200000I-2151317J291470D01*
G01*
D10*
X183500000Y-128499999D02*
G75*
G02*
X181400001Y-130400001I-1999999J99997D01*
G01*
X113933198Y-132488345D02*
X114192017Y-133454271D01*
X114192017Y-133454271D02*
X114385203Y-133402507D01*
D12*
X114300622Y-132700477D02*
X115652918Y-132338130D01*
D11*
X114359321Y-133305915D02*
X114178147Y-132629765D01*
D10*
X114404521Y-133397331D02*
X114986864Y-135570664D01*
X114774360Y-135627604D02*
X114864947Y-135965678D01*
X114864947Y-135965678D02*
X122978725Y-133791598D01*
X114967545Y-135575840D02*
X114774360Y-135627604D01*
D11*
X115006368Y-135720729D02*
X116358664Y-135358381D01*
D13*
X115385804Y-135204949D02*
X114738756Y-132790135D01*
D14*
X116330924Y-133709373D02*
X122802627Y-131975286D01*
D15*
X117539216Y-122877559D02*
X119519364Y-122346980D01*
X117914504Y-124278152D02*
X117539216Y-122877559D01*
D10*
X118762827Y-131194250D02*
X113933198Y-132488345D01*
D15*
X119519364Y-122346980D02*
X119894652Y-123747573D01*
X119894652Y-123747573D02*
X117914504Y-124278152D01*
D16*
X122947888Y-132246946D02*
X122368133Y-130083272D01*
D17*
X123133517Y-128573740D02*
X123599391Y-130312406D01*
D12*
X123442242Y-128180435D02*
X120834242Y-128879246D01*
D10*
X123483653Y-128334983D02*
X123676838Y-128283219D01*
X123583663Y-127935486D02*
X120415427Y-128784413D01*
X123583663Y-127935486D02*
X123676838Y-128283219D01*
X124034430Y-130506422D02*
X123454675Y-128342748D01*
D15*
X124185881Y-130569369D02*
X124418819Y-131438701D01*
D10*
X124256593Y-130446893D02*
X124063408Y-130498657D01*
X124515412Y-131412819D02*
X124256593Y-130446893D01*
X120417427Y-128806105D02*
G75*
G02*
X118762827Y-131194249I-2153450J-275263D01*
G01*
D13*
X120907325Y-129088948D02*
G75*
G02*
X119252724Y-131477093I-2153453J-275262D01*
G01*
D10*
X124515412Y-131412818D02*
G75*
G02*
X122978725Y-133791599I-1957732J-421048D01*
G01*
X211200000Y-55400000D02*
X211200000Y-56400000D01*
X211200000Y-56400000D02*
X211400000Y-56400000D01*
X211200000Y-58650000D02*
X211200000Y-59000000D01*
X211200000Y-59000000D02*
X219600001Y-59000000D01*
D11*
X211400000Y-56300000D02*
X211400000Y-55600000D01*
D10*
X211400000Y-58650000D02*
X211200000Y-58650000D01*
D11*
X211400000Y-58800000D02*
X212800000Y-58800000D01*
D10*
X211420000Y-56400000D02*
X211420000Y-58650000D01*
D12*
X211500000Y-55700000D02*
X212900000Y-55700000D01*
D13*
X211900000Y-58400000D02*
X211900000Y-55900000D01*
D14*
X213200000Y-57200000D02*
X219900000Y-57200000D01*
D10*
X216200000Y-55400000D02*
X211200000Y-55400000D01*
D15*
X217170600Y-47050000D02*
X219220600Y-47050000D01*
X217170600Y-48500000D02*
X217170600Y-47050000D01*
X219220600Y-47050000D02*
X219220600Y-48500000D01*
X219220600Y-48500000D02*
X217170600Y-48500000D01*
D16*
X219970000Y-57500000D02*
X219970000Y-55260000D01*
D17*
X221100000Y-54000000D02*
X221100000Y-55799999D01*
D10*
X221470000Y-56100000D02*
X221470000Y-53860000D01*
D12*
X221500000Y-53700000D02*
X218800000Y-53700000D01*
D10*
X221500000Y-53860000D02*
X221700000Y-53860000D01*
D15*
X221600000Y-56200001D02*
X221600000Y-57100000D01*
D10*
X221700000Y-53500000D02*
X218420000Y-53500000D01*
X221700000Y-53500000D02*
X221700000Y-53860000D01*
X221700000Y-56100000D02*
X221500000Y-56100000D01*
X221700000Y-57100000D02*
X221700000Y-56100000D01*
X218416318Y-53521471D02*
G75*
G02*
X216200000Y-55400000I-2151317J291470D01*
G01*
D13*
X218816318Y-53921471D02*
G75*
G02*
X216600000Y-55800000I-2151317J291470D01*
G01*
D10*
X221700000Y-57099999D02*
G75*
G02*
X219600001Y-59000001I-1999999J99997D01*
G01*
X100811000Y-68157000D02*
X100811000Y-70443000D01*
X100811000Y-70443000D02*
X102589000Y-70443000D01*
X102589000Y-68157000D02*
X100811000Y-68157000D01*
X102589000Y-70443000D02*
X102589000Y-68157000D01*
X98311000Y-68157000D02*
X98311000Y-70443000D01*
X98311000Y-70443000D02*
X100089000Y-70443000D01*
X100089000Y-68157000D02*
X98311000Y-68157000D01*
X100089000Y-70443000D02*
X100089000Y-68157000D01*
X95811000Y-68157000D02*
X95811000Y-70443000D01*
X95811000Y-70443000D02*
X97589000Y-70443000D01*
X97589000Y-68157000D02*
X95811000Y-68157000D01*
X97589000Y-70443000D02*
X97589000Y-68157000D01*
X103411000Y-68157000D02*
X103411000Y-70443000D01*
X103411000Y-70443000D02*
X105189000Y-70443000D01*
X105189000Y-68157000D02*
X103411000Y-68157000D01*
X105189000Y-70443000D02*
X105189000Y-68157000D01*
D19*
X108718815Y-42425745D03*
X108718815Y-44965745D03*
X108718815Y-47505745D03*
X108718815Y-50045745D03*
X108718815Y-52585745D03*
X108718815Y-55125745D03*
X108718815Y-57665745D03*
X108718815Y-60205745D03*
X108718815Y-62745745D03*
X108718815Y-65285745D03*
X108718815Y-67825745D03*
X108718815Y-70365745D03*
X93478815Y-70365745D03*
X93478815Y-67825745D03*
X93478815Y-65285745D03*
X93478815Y-62745745D03*
X93478815Y-60205745D03*
X93478815Y-57665745D03*
X93478815Y-55125745D03*
X93478815Y-52585745D03*
X93478815Y-50045745D03*
X93478815Y-47505745D03*
X93478815Y-44965745D03*
X93478815Y-42425745D03*
M02*
